%TF.GenerationSoftware,KiCad,Pcbnew,10.0.5*%
%TF.CreationDate,2026-08-01T21:36:43+01:00*%
%TF.ProjectId,rmc-pizz-arco,726d632d-7069-47a7-9a2d-6172636f2e6b,rev?*%
%TF.SameCoordinates,Original*%
%TF.FileFunction,Copper,L4,Bot*%
%TF.FilePolarity,Positive*%
%FSLAX46Y46*%
G04 Gerber Fmt 4.6, Leading zero omitted, Abs format (unit mm)*
G04 Created by KiCad (PCBNEW 10.0.5) date 2026-08-01 21:36:43*
%MOMM*%
%LPD*%
G01*
G04 APERTURE LIST*
%TA.AperFunction,ComponentPad*%
%ADD10R,1.700000X1.700000*%
%TD*%
%TA.AperFunction,ComponentPad*%
%ADD11C,1.700000*%
%TD*%
%TA.AperFunction,ViaPad*%
%ADD12C,0.800000*%
%TD*%
%TA.AperFunction,Conductor*%
%ADD13C,0.300000*%
%TD*%
%TA.AperFunction,Conductor*%
%ADD14C,0.800000*%
%TD*%
G04 APERTURE END LIST*
D10*
%TO.P,J8,1*%
%TO.N,SW_TOG*%
X50000000Y-77600000D03*
D11*
%TO.P,J8,2*%
%TO.N,SW_CTL*%
X52540000Y-77600000D03*
%TD*%
D10*
%TO.P,J1,1*%
%TO.N,AGND*%
X8000000Y-9400000D03*
D11*
%TO.P,J1,2*%
%TO.N,IN_W1*%
X10540000Y-9400000D03*
%TO.P,J1,3*%
%TO.N,OUT1*%
X13080000Y-9400000D03*
%TD*%
D10*
%TO.P,J2,1*%
%TO.N,AGND*%
X8000000Y-18600000D03*
D11*
%TO.P,J2,2*%
%TO.N,IN_W2*%
X10540000Y-18600000D03*
%TO.P,J2,3*%
%TO.N,OUT2*%
X13080000Y-18600000D03*
%TD*%
D10*
%TO.P,J6,1*%
%TO.N,AGND*%
X8000000Y-64599999D03*
D11*
%TO.P,J6,2*%
%TO.N,IN_W6*%
X10540000Y-64599999D03*
%TO.P,J6,3*%
%TO.N,OUT6*%
X13080000Y-64599999D03*
%TD*%
D10*
%TO.P,J3,1*%
%TO.N,AGND*%
X8000000Y-32400000D03*
D11*
%TO.P,J3,2*%
%TO.N,IN_W3*%
X10540000Y-32400000D03*
%TO.P,J3,3*%
%TO.N,OUT3*%
X13080000Y-32400000D03*
%TD*%
D10*
%TO.P,J7,1*%
%TO.N,OUT1*%
X26000000Y-77600000D03*
D11*
%TO.P,J7,2*%
%TO.N,OUT2*%
X28540000Y-77600000D03*
%TO.P,J7,3*%
%TO.N,OUT3*%
X31080000Y-77600000D03*
%TO.P,J7,4*%
%TO.N,OUT4*%
X33620000Y-77600000D03*
%TO.P,J7,5*%
%TO.N,OUT5*%
X36160000Y-77600000D03*
%TO.P,J7,6*%
%TO.N,OUT6*%
X38700000Y-77600000D03*
%TO.P,J7,7*%
%TO.N,V+*%
X41240000Y-77600000D03*
%TO.P,J7,8*%
%TO.N,V-*%
X43780000Y-77600000D03*
%TO.P,J7,9*%
%TO.N,AGND*%
X46320000Y-77600000D03*
%TD*%
D10*
%TO.P,J5,1*%
%TO.N,AGND*%
X8000000Y-55400000D03*
D11*
%TO.P,J5,2*%
%TO.N,IN_W5*%
X10540000Y-55400000D03*
%TO.P,J5,3*%
%TO.N,OUT5*%
X13080000Y-55400000D03*
%TD*%
D10*
%TO.P,J4,1*%
%TO.N,AGND*%
X8000000Y-41600000D03*
D11*
%TO.P,J4,2*%
%TO.N,IN_W4*%
X10540000Y-41600000D03*
%TO.P,J4,3*%
%TO.N,OUT4*%
X13080000Y-41600000D03*
%TD*%
D12*
%TO.N,AGND*%
X8000000Y-40000000D03*
X17475000Y-10925000D03*
X63100000Y-16460000D03*
X14975000Y-68500000D03*
X46275000Y-45500000D03*
X14475000Y-10925000D03*
X46275000Y-51500000D03*
X63100000Y-19000000D03*
X46320000Y-79200000D03*
X9462500Y-45500000D03*
X8000000Y-34000000D03*
X9462500Y-51500000D03*
X72475000Y-35925000D03*
X72475000Y-27925000D03*
X46275000Y-28500000D03*
X64900000Y-19000000D03*
X8000000Y-11000000D03*
X64900000Y-20270000D03*
X15525000Y-33925000D03*
X18525000Y-56925000D03*
X64900000Y-51000000D03*
X14975000Y-22500000D03*
X8000000Y-57000000D03*
X14475000Y-56925000D03*
X64900000Y-53540000D03*
X9462500Y-28500000D03*
X46275000Y-22500000D03*
X63475000Y-45600000D03*
X73525000Y-27925000D03*
X8000000Y-17000000D03*
X14975000Y-28500000D03*
X9462500Y-22500000D03*
X14975000Y-45500000D03*
X63100000Y-48460000D03*
X65450000Y-78100000D03*
X17475000Y-56925000D03*
X64900000Y-52270000D03*
X66500000Y-78100000D03*
X9462500Y-68500000D03*
X17475000Y-33925000D03*
X9462500Y-5500000D03*
X14975000Y-51500000D03*
X14475000Y-33925000D03*
X14975000Y-5500000D03*
X61000000Y-78100000D03*
X73525000Y-35925000D03*
X15525000Y-10925000D03*
X18525000Y-10925000D03*
X46275000Y-5500000D03*
X63100000Y-51000000D03*
X59950000Y-78100000D03*
X15525000Y-56925000D03*
X46275000Y-68500000D03*
X64900000Y-21540000D03*
X18525000Y-33925000D03*
X8000000Y-63000000D03*
%TO.N,APOUT1*%
X32150000Y-7000000D03*
X36275000Y-7000000D03*
%TO.N,APOUT2*%
X32150000Y-21000000D03*
X36275000Y-21000000D03*
%TO.N,APOUT3*%
X36275000Y-30000000D03*
X32150000Y-30000000D03*
%TO.N,APOUT4*%
X36275000Y-44000000D03*
X32150000Y-44000000D03*
%TO.N,APOUT5*%
X32150000Y-53000000D03*
X36275000Y-53000000D03*
%TO.N,APOUT6*%
X32150000Y-67000000D03*
X36275000Y-67000000D03*
%TO.N,BUFOUT1*%
X34800000Y-10190000D03*
X27525000Y-10190000D03*
%TO.N,BUFOUT2*%
X34800000Y-17810000D03*
X27525000Y-17810000D03*
%TO.N,BUFOUT3*%
X27525000Y-33189999D03*
X34800000Y-33189999D03*
%TO.N,BUFOUT4*%
X34800000Y-40810000D03*
X27525000Y-40810000D03*
%TO.N,BUFOUT5*%
X27525000Y-56190000D03*
X34800000Y-56190000D03*
%TO.N,BUFOUT6*%
X34800000Y-63810000D03*
X27525000Y-63810000D03*
%TO.N,OUT1*%
X26000000Y-76000000D03*
X46275000Y-8050000D03*
X13080000Y-8050000D03*
%TO.N,OUT2*%
X13080000Y-19950000D03*
X28540000Y-75180000D03*
X46275000Y-19950000D03*
%TO.N,OUT3*%
X31080000Y-74360000D03*
X46275000Y-31050000D03*
X13080000Y-31050000D03*
%TO.N,OUT4*%
X33620000Y-73540000D03*
X13080000Y-42950000D03*
X46275000Y-42950000D03*
%TO.N,OUT5*%
X46275000Y-54050000D03*
X36160000Y-72720000D03*
X13080000Y-54050000D03*
%TO.N,OUT6*%
X38700000Y-71900000D03*
X46275000Y-65950000D03*
X13080000Y-65950000D03*
%TO.N,SW_CTL*%
X59300000Y-51000000D03*
X70400000Y-15935000D03*
X59300000Y-45500000D03*
X70400000Y-47935000D03*
X70400000Y-16985000D03*
X59300000Y-24000000D03*
X70400000Y-39500000D03*
X70400000Y-73000000D03*
X70400000Y-48985000D03*
X59300000Y-39500000D03*
X59300000Y-35500000D03*
X59300000Y-32500000D03*
X59300000Y-42500000D03*
%TO.N,SW_TOG*%
X69200000Y-29475000D03*
X69200000Y-30525000D03*
X69200000Y-72000000D03*
%TO.N,V+*%
X58050000Y-80400000D03*
X68000000Y-31950000D03*
X4525000Y-14000000D03*
X3475000Y-14000000D03*
X68000000Y-15190000D03*
X57000000Y-80400000D03*
X3475000Y-37000000D03*
X68000000Y-47190000D03*
X3475000Y-60000000D03*
X68000000Y-28025000D03*
X4525000Y-37000000D03*
X68000000Y-33000000D03*
X4525000Y-60000000D03*
X68000000Y-26975000D03*
%TO.N,V-*%
X63550000Y-78100000D03*
X62500000Y-78100000D03*
X73525000Y-42075000D03*
X15525000Y-17075000D03*
X64900000Y-49730000D03*
X15525000Y-40075000D03*
X14475000Y-17075000D03*
X63462500Y-35600000D03*
X29400000Y-37000000D03*
X63100000Y-54810000D03*
X29400000Y-60000000D03*
X29400000Y-14000000D03*
X14475000Y-40075000D03*
X14475000Y-63075000D03*
X64900000Y-17730000D03*
X72475000Y-42075000D03*
X15525000Y-63075000D03*
X63100000Y-22810000D03*
X43780000Y-79200000D03*
%TD*%
%TO.N,APOUT1*%
D13*
X32150000Y-7000000D02*
X36275000Y-7000000D01*
%TO.N,APOUT2*%
X32150000Y-21000000D02*
X36275000Y-21000000D01*
%TO.N,APOUT3*%
X32150000Y-30000000D02*
X36275000Y-30000000D01*
%TO.N,APOUT4*%
X32150000Y-44000000D02*
X36275000Y-44000000D01*
%TO.N,APOUT5*%
X32150000Y-53000000D02*
X36275000Y-53000000D01*
%TO.N,APOUT6*%
X32150000Y-67000000D02*
X36275000Y-67000000D01*
%TO.N,BUFOUT1*%
X27525000Y-10190000D02*
X34800000Y-10190000D01*
%TO.N,BUFOUT2*%
X27525000Y-17810000D02*
X34800000Y-17810000D01*
%TO.N,BUFOUT3*%
X27525000Y-33189999D02*
X34800000Y-33189999D01*
%TO.N,BUFOUT4*%
X27525000Y-40810000D02*
X34800000Y-40810000D01*
%TO.N,BUFOUT5*%
X27525000Y-56190000D02*
X34800000Y-56190000D01*
%TO.N,BUFOUT6*%
X27525000Y-63810000D02*
X34800000Y-63810000D01*
%TO.N,OUT1*%
X13080000Y-8050000D02*
X46275000Y-8050000D01*
X58400000Y-8050000D02*
X58400000Y-76000000D01*
X58400000Y-76000000D02*
X26000000Y-76000000D01*
X46275000Y-8050000D02*
X58400000Y-8050000D01*
%TO.N,OUT2*%
X57800000Y-19950000D02*
X57800000Y-75180000D01*
X13080000Y-19950000D02*
X46275000Y-19950000D01*
X46275000Y-19950000D02*
X57800000Y-19950000D01*
X57800000Y-75180000D02*
X28540000Y-75180000D01*
%TO.N,OUT3*%
X46275000Y-31050000D02*
X57200000Y-31050000D01*
X57200000Y-74360000D02*
X31080000Y-74360000D01*
X57200000Y-31050000D02*
X57200000Y-74360000D01*
X13080000Y-31050000D02*
X46275000Y-31050000D01*
%TO.N,OUT4*%
X13080000Y-42950000D02*
X46275000Y-42950000D01*
X46275000Y-42950000D02*
X56600000Y-42950000D01*
X56600000Y-42950000D02*
X56600000Y-73540000D01*
X56600000Y-73540000D02*
X33620000Y-73540000D01*
%TO.N,OUT5*%
X46275000Y-54050000D02*
X56000000Y-54050000D01*
X56000000Y-72720000D02*
X36160000Y-72720000D01*
X56000000Y-54050000D02*
X56000000Y-72720000D01*
X13080000Y-54050000D02*
X46275000Y-54050000D01*
%TO.N,OUT6*%
X55400000Y-65950000D02*
X55400000Y-71900000D01*
X55400000Y-71900000D02*
X38700000Y-71900000D01*
X46275000Y-65950000D02*
X55400000Y-65950000D01*
X13080000Y-65950000D02*
X46275000Y-65950000D01*
%TO.N,SW_CTL*%
X59300000Y-35500000D02*
X59300000Y-42500000D01*
X70400000Y-16460000D02*
X70400000Y-73000000D01*
X59300000Y-45500000D02*
X59300000Y-51000000D01*
X59300000Y-24000000D02*
X59300000Y-32500000D01*
%TO.N,SW_TOG*%
X69200000Y-30000000D02*
X69200000Y-72000000D01*
%TO.N,V+*%
D14*
X4000000Y-80400000D02*
X68000000Y-80400000D01*
X4000000Y-14000000D02*
X4000000Y-80400000D01*
X41240000Y-80400000D02*
X41240000Y-77600000D01*
X68000000Y-80400000D02*
X68000000Y-15190000D01*
%TD*%
M02*
