M48
; DRILL file KiCad 10.0.5 date 2026-08-02T09:34:22
; FORMAT={-:-/ absolute / metric / decimal}
; #@! TF.CreationDate,2026-08-02T09:34:22+01:00
; #@! TF.GenerationSoftware,Kicad,Pcbnew,10.0.5
; #@! TF.FileFunction,MixedPlating,1,4
FMAT,2
METRIC
; #@! TA.AperFunction,Plated,PTH,ViaDrill
T1C0.400
; #@! TA.AperFunction,Plated,PTH,ComponentDrill
T2C1.000
%
G90
G05
T1
X3.475Y-14.0
X3.475Y-37.0
X3.475Y-60.0
X4.525Y-14.0
X4.525Y-37.0
X4.525Y-60.0
X8.0Y-11.0
X8.0Y-17.0
X8.0Y-34.0
X8.0Y-40.0
X8.0Y-57.0
X8.0Y-63.0
X9.463Y-5.5
X9.463Y-22.5
X9.463Y-28.5
X9.463Y-45.5
X9.463Y-51.5
X9.463Y-68.5
X13.08Y-8.05
X13.08Y-19.95
X13.08Y-31.05
X13.08Y-42.95
X13.08Y-54.05
X13.08Y-65.95
X14.475Y-10.925
X14.475Y-17.075
X14.475Y-33.925
X14.475Y-40.075
X14.475Y-56.925
X14.475Y-63.075
X14.975Y-5.5
X14.975Y-22.5
X14.975Y-28.5
X14.975Y-45.5
X14.975Y-51.5
X14.975Y-68.5
X15.525Y-10.925
X15.525Y-17.075
X15.525Y-33.925
X15.525Y-40.075
X15.525Y-56.925
X15.525Y-63.075
X17.475Y-10.925
X17.475Y-33.925
X17.475Y-56.925
X18.525Y-10.925
X18.525Y-33.925
X18.525Y-56.925
X26.0Y-76.0
X27.525Y-10.19
X27.525Y-17.81
X27.525Y-33.19
X27.525Y-40.81
X27.525Y-56.19
X27.525Y-63.81
X28.54Y-75.18
X29.4Y-14.0
X29.4Y-37.0
X29.4Y-60.0
X31.08Y-74.36
X32.15Y-7.0
X32.15Y-21.0
X32.15Y-30.0
X32.15Y-44.0
X32.15Y-53.0
X32.15Y-67.0
X33.62Y-73.54
X34.8Y-10.19
X34.8Y-17.81
X34.8Y-33.19
X34.8Y-40.81
X34.8Y-56.19
X34.8Y-63.81
X36.16Y-72.72
X36.275Y-7.0
X36.275Y-21.0
X36.275Y-30.0
X36.275Y-44.0
X36.275Y-53.0
X36.275Y-67.0
X38.7Y-71.9
X43.78Y-79.2
X46.275Y-5.5
X46.275Y-8.05
X46.275Y-19.95
X46.275Y-22.5
X46.275Y-28.5
X46.275Y-31.05
X46.275Y-42.95
X46.275Y-45.5
X46.275Y-51.5
X46.275Y-54.05
X46.275Y-65.95
X46.275Y-68.5
X46.32Y-79.2
X57.0Y-80.4
X58.05Y-80.4
X59.3Y-24.0
X59.3Y-32.5
X59.3Y-35.5
X59.3Y-39.5
X59.3Y-42.5
X59.3Y-45.5
X59.3Y-51.0
X59.95Y-78.1
X61.0Y-78.1
X62.5Y-78.1
X63.1Y-16.46
X63.1Y-19.0
X63.1Y-22.81
X63.1Y-48.46
X63.1Y-51.0
X63.1Y-54.81
X63.462Y-35.6
X63.475Y-45.6
X63.55Y-78.1
X64.9Y-17.73
X64.9Y-19.0
X64.9Y-20.27
X64.9Y-21.54
X64.9Y-49.73
X64.9Y-51.0
X64.9Y-52.27
X64.9Y-53.54
X65.45Y-78.1
X66.5Y-78.1
X68.0Y-15.19
X68.0Y-26.975
X68.0Y-28.025
X68.0Y-31.95
X68.0Y-33.0
X68.0Y-47.19
X69.2Y-29.475
X69.2Y-30.525
X69.2Y-72.0
X70.4Y-15.935
X70.4Y-16.985
X70.4Y-39.5
X70.4Y-47.935
X70.4Y-48.985
X70.4Y-73.0
X72.475Y-27.925
X72.475Y-35.925
X72.475Y-42.075
X73.525Y-27.925
X73.525Y-35.925
X73.525Y-42.075
T2
X8.0Y-9.4
X8.0Y-18.6
X8.0Y-32.4
X8.0Y-41.6
X8.0Y-55.4
X8.0Y-64.6
X10.54Y-9.4
X10.54Y-18.6
X10.54Y-32.4
X10.54Y-41.6
X10.54Y-55.4
X10.54Y-64.6
X13.08Y-9.4
X13.08Y-18.6
X13.08Y-32.4
X13.08Y-41.6
X13.08Y-55.4
X13.08Y-64.6
X26.0Y-77.6
X28.54Y-77.6
X31.08Y-77.6
X33.62Y-77.6
X36.16Y-77.6
X38.7Y-77.6
X41.24Y-77.6
X43.78Y-77.6
X46.32Y-77.6
X50.0Y-77.6
X52.54Y-77.6
M30
