%TF.GenerationSoftware,KiCad,Pcbnew,10.0.5*%
%TF.CreationDate,2026-08-01T21:36:43+01:00*%
%TF.ProjectId,rmc-pizz-arco,726d632d-7069-47a7-9a2d-6172636f2e6b,rev?*%
%TF.SameCoordinates,Original*%
%TF.FileFunction,Copper,L2,Inr*%
%TF.FilePolarity,Positive*%
%FSLAX46Y46*%
G04 Gerber Fmt 4.6, Leading zero omitted, Abs format (unit mm)*
G04 Created by KiCad (PCBNEW 10.0.5) date 2026-08-01 21:36:43*
%MOMM*%
%LPD*%
G01*
G04 APERTURE LIST*
%TA.AperFunction,ComponentPad*%
%ADD10R,1.700000X1.700000*%
%TD*%
%TA.AperFunction,ComponentPad*%
%ADD11C,1.700000*%
%TD*%
%TA.AperFunction,ViaPad*%
%ADD12C,0.800000*%
%TD*%
G04 APERTURE END LIST*
D10*
%TO.N,SW_TOG*%
%TO.C,J8*%
X50000000Y-77600000D03*
D11*
%TO.N,SW_CTL*%
X52540000Y-77600000D03*
%TD*%
D10*
%TO.N,AGND*%
%TO.C,J1*%
X8000000Y-9400000D03*
D11*
%TO.N,IN_W1*%
X10540000Y-9400000D03*
%TO.N,OUT1*%
X13080000Y-9400000D03*
%TD*%
D10*
%TO.N,AGND*%
%TO.C,J2*%
X8000000Y-18600000D03*
D11*
%TO.N,IN_W2*%
X10540000Y-18600000D03*
%TO.N,OUT2*%
X13080000Y-18600000D03*
%TD*%
D10*
%TO.N,AGND*%
%TO.C,J6*%
X8000000Y-64599999D03*
D11*
%TO.N,IN_W6*%
X10540000Y-64599999D03*
%TO.N,OUT6*%
X13080000Y-64599999D03*
%TD*%
D10*
%TO.N,AGND*%
%TO.C,J3*%
X8000000Y-32400000D03*
D11*
%TO.N,IN_W3*%
X10540000Y-32400000D03*
%TO.N,OUT3*%
X13080000Y-32400000D03*
%TD*%
D10*
%TO.N,OUT1*%
%TO.C,J7*%
X26000000Y-77600000D03*
D11*
%TO.N,OUT2*%
X28540000Y-77600000D03*
%TO.N,OUT3*%
X31080000Y-77600000D03*
%TO.N,OUT4*%
X33620000Y-77600000D03*
%TO.N,OUT5*%
X36160000Y-77600000D03*
%TO.N,OUT6*%
X38700000Y-77600000D03*
%TO.N,V+*%
X41240000Y-77600000D03*
%TO.N,V-*%
X43780000Y-77600000D03*
%TO.N,AGND*%
X46320000Y-77600000D03*
%TD*%
D10*
%TO.N,AGND*%
%TO.C,J5*%
X8000000Y-55400000D03*
D11*
%TO.N,IN_W5*%
X10540000Y-55400000D03*
%TO.N,OUT5*%
X13080000Y-55400000D03*
%TD*%
D10*
%TO.N,AGND*%
%TO.C,J4*%
X8000000Y-41600000D03*
D11*
%TO.N,IN_W4*%
X10540000Y-41600000D03*
%TO.N,OUT4*%
X13080000Y-41600000D03*
%TD*%
D12*
%TO.N,AGND*%
X8000000Y-40000000D03*
X17475000Y-10925000D03*
X63100000Y-16460000D03*
X14975000Y-68500000D03*
X46275000Y-45500000D03*
X14475000Y-10925000D03*
X46275000Y-51500000D03*
X63100000Y-19000000D03*
X46320000Y-79200000D03*
X9462500Y-45500000D03*
X8000000Y-34000000D03*
X9462500Y-51500000D03*
X72475000Y-35925000D03*
X72475000Y-27925000D03*
X46275000Y-28500000D03*
X64900000Y-19000000D03*
X8000000Y-11000000D03*
X64900000Y-20270000D03*
X15525000Y-33925000D03*
X18525000Y-56925000D03*
X64900000Y-51000000D03*
X14975000Y-22500000D03*
X8000000Y-57000000D03*
X14475000Y-56925000D03*
X64900000Y-53540000D03*
X9462500Y-28500000D03*
X46275000Y-22500000D03*
X63475000Y-45600000D03*
X73525000Y-27925000D03*
X8000000Y-17000000D03*
X14975000Y-28500000D03*
X9462500Y-22500000D03*
X14975000Y-45500000D03*
X63100000Y-48460000D03*
X65450000Y-78100000D03*
X17475000Y-56925000D03*
X64900000Y-52270000D03*
X66500000Y-78100000D03*
X9462500Y-68500000D03*
X17475000Y-33925000D03*
X9462500Y-5500000D03*
X14975000Y-51500000D03*
X14475000Y-33925000D03*
X14975000Y-5500000D03*
X61000000Y-78100000D03*
X73525000Y-35925000D03*
X15525000Y-10925000D03*
X18525000Y-10925000D03*
X46275000Y-5500000D03*
X63100000Y-51000000D03*
X59950000Y-78100000D03*
X15525000Y-56925000D03*
X46275000Y-68500000D03*
X64900000Y-21540000D03*
X18525000Y-33925000D03*
X8000000Y-63000000D03*
%TO.N,APOUT1*%
X32150000Y-7000000D03*
X36275000Y-7000000D03*
%TO.N,APOUT2*%
X32150000Y-21000000D03*
X36275000Y-21000000D03*
%TO.N,APOUT3*%
X36275000Y-30000000D03*
X32150000Y-30000000D03*
%TO.N,APOUT4*%
X36275000Y-44000000D03*
X32150000Y-44000000D03*
%TO.N,APOUT5*%
X32150000Y-53000000D03*
X36275000Y-53000000D03*
%TO.N,APOUT6*%
X32150000Y-67000000D03*
X36275000Y-67000000D03*
%TO.N,BUFOUT1*%
X34800000Y-10190000D03*
X27525000Y-10190000D03*
%TO.N,BUFOUT2*%
X34800000Y-17810000D03*
X27525000Y-17810000D03*
%TO.N,BUFOUT3*%
X27525000Y-33189999D03*
X34800000Y-33189999D03*
%TO.N,BUFOUT4*%
X34800000Y-40810000D03*
X27525000Y-40810000D03*
%TO.N,BUFOUT5*%
X27525000Y-56190000D03*
X34800000Y-56190000D03*
%TO.N,BUFOUT6*%
X34800000Y-63810000D03*
X27525000Y-63810000D03*
%TO.N,OUT1*%
X26000000Y-76000000D03*
X46275000Y-8050000D03*
X13080000Y-8050000D03*
%TO.N,OUT2*%
X13080000Y-19950000D03*
X28540000Y-75180000D03*
X46275000Y-19950000D03*
%TO.N,OUT3*%
X31080000Y-74360000D03*
X46275000Y-31050000D03*
X13080000Y-31050000D03*
%TO.N,OUT4*%
X33620000Y-73540000D03*
X13080000Y-42950000D03*
X46275000Y-42950000D03*
%TO.N,OUT5*%
X46275000Y-54050000D03*
X36160000Y-72720000D03*
X13080000Y-54050000D03*
%TO.N,OUT6*%
X38700000Y-71900000D03*
X46275000Y-65950000D03*
X13080000Y-65950000D03*
%TO.N,SW_CTL*%
X59300000Y-51000000D03*
X70400000Y-15935000D03*
X59300000Y-45500000D03*
X70400000Y-47935000D03*
X70400000Y-16985000D03*
X59300000Y-24000000D03*
X70400000Y-39500000D03*
X70400000Y-73000000D03*
X70400000Y-48985000D03*
X59300000Y-39500000D03*
X59300000Y-35500000D03*
X59300000Y-32500000D03*
X59300000Y-42500000D03*
%TO.N,SW_TOG*%
X69200000Y-29475000D03*
X69200000Y-30525000D03*
X69200000Y-72000000D03*
%TO.N,V+*%
X58050000Y-80400000D03*
X68000000Y-31950000D03*
X4525000Y-14000000D03*
X3475000Y-14000000D03*
X68000000Y-15190000D03*
X57000000Y-80400000D03*
X3475000Y-37000000D03*
X68000000Y-47190000D03*
X3475000Y-60000000D03*
X68000000Y-28025000D03*
X4525000Y-37000000D03*
X68000000Y-33000000D03*
X4525000Y-60000000D03*
X68000000Y-26975000D03*
%TO.N,V-*%
X63550000Y-78100000D03*
X62500000Y-78100000D03*
X73525000Y-42075000D03*
X15525000Y-17075000D03*
X64900000Y-49730000D03*
X15525000Y-40075000D03*
X14475000Y-17075000D03*
X63462500Y-35600000D03*
X29400000Y-37000000D03*
X63100000Y-54810000D03*
X29400000Y-60000000D03*
X29400000Y-14000000D03*
X14475000Y-40075000D03*
X14475000Y-63075000D03*
X64900000Y-17730000D03*
X72475000Y-42075000D03*
X15525000Y-63075000D03*
X63100000Y-22810000D03*
X43780000Y-79200000D03*
%TD*%
%TA.AperFunction,Conductor*%
%TO.N,AGND*%
G36*
X76658691Y-519407D02*
G01*
X76694655Y-568907D01*
X76699500Y-599500D01*
X76699500Y-81800500D01*
X76680593Y-81858691D01*
X76631093Y-81894655D01*
X76600500Y-81899500D01*
X599500Y-81899500D01*
X541309Y-81880593D01*
X505345Y-81831093D01*
X500500Y-81800500D01*
X500500Y-80335930D01*
X56349500Y-80335930D01*
X56349500Y-80464069D01*
X56374499Y-80589742D01*
X56374500Y-80589747D01*
X56423534Y-80708125D01*
X56423538Y-80708133D01*
X56466365Y-80772226D01*
X56494724Y-80814669D01*
X56585331Y-80905276D01*
X56648848Y-80947717D01*
X56691866Y-80976461D01*
X56691870Y-80976463D01*
X56691873Y-80976465D01*
X56810256Y-81025501D01*
X56935931Y-81050500D01*
X56935932Y-81050500D01*
X57064068Y-81050500D01*
X57064069Y-81050500D01*
X57189744Y-81025501D01*
X57308127Y-80976465D01*
X57414669Y-80905276D01*
X57454996Y-80864949D01*
X57509512Y-80837171D01*
X57569944Y-80846742D01*
X57595004Y-80864949D01*
X57635322Y-80905268D01*
X57635326Y-80905271D01*
X57635331Y-80905276D01*
X57698848Y-80947717D01*
X57741866Y-80976461D01*
X57741870Y-80976463D01*
X57741873Y-80976465D01*
X57860256Y-81025501D01*
X57985931Y-81050500D01*
X57985932Y-81050500D01*
X58114068Y-81050500D01*
X58114069Y-81050500D01*
X58239744Y-81025501D01*
X58358127Y-80976465D01*
X58464669Y-80905276D01*
X58555276Y-80814669D01*
X58626465Y-80708127D01*
X58675501Y-80589744D01*
X58700500Y-80464069D01*
X58700500Y-80335931D01*
X58675501Y-80210256D01*
X58626465Y-80091873D01*
X58626463Y-80091870D01*
X58626461Y-80091866D01*
X58597717Y-80048848D01*
X58555276Y-79985331D01*
X58464669Y-79894724D01*
X58422226Y-79866365D01*
X58358133Y-79823538D01*
X58358125Y-79823534D01*
X58239747Y-79774500D01*
X58239745Y-79774499D01*
X58239744Y-79774499D01*
X58114069Y-79749500D01*
X57985931Y-79749500D01*
X57985930Y-79749500D01*
X57923093Y-79761999D01*
X57860256Y-79774499D01*
X57860255Y-79774499D01*
X57860252Y-79774500D01*
X57741874Y-79823534D01*
X57741866Y-79823538D01*
X57635331Y-79894724D01*
X57635327Y-79894727D01*
X57595004Y-79935051D01*
X57540487Y-79962828D01*
X57480055Y-79953257D01*
X57454996Y-79935051D01*
X57414672Y-79894727D01*
X57414669Y-79894724D01*
X57372226Y-79866365D01*
X57308133Y-79823538D01*
X57308125Y-79823534D01*
X57189747Y-79774500D01*
X57189745Y-79774499D01*
X57189744Y-79774499D01*
X57064069Y-79749500D01*
X56935931Y-79749500D01*
X56935930Y-79749500D01*
X56873093Y-79761999D01*
X56810256Y-79774499D01*
X56810255Y-79774499D01*
X56810252Y-79774500D01*
X56691874Y-79823534D01*
X56691866Y-79823538D01*
X56585331Y-79894724D01*
X56585327Y-79894727D01*
X56494727Y-79985327D01*
X56494724Y-79985331D01*
X56423538Y-80091866D01*
X56423534Y-80091874D01*
X56374500Y-80210252D01*
X56374499Y-80210257D01*
X56349500Y-80335930D01*
X500500Y-80335930D01*
X500500Y-76725327D01*
X24899500Y-76725327D01*
X24899500Y-78474672D01*
X24899501Y-78474684D01*
X24914033Y-78547736D01*
X24914035Y-78547742D01*
X24969397Y-78630599D01*
X24969400Y-78630602D01*
X25052257Y-78685964D01*
X25052260Y-78685966D01*
X25096289Y-78694724D01*
X25125315Y-78700498D01*
X25125320Y-78700498D01*
X25125326Y-78700500D01*
X25125327Y-78700500D01*
X26874673Y-78700500D01*
X26874674Y-78700500D01*
X26947740Y-78685966D01*
X27030601Y-78630601D01*
X27085966Y-78547740D01*
X27100500Y-78474674D01*
X27100500Y-77513385D01*
X27439500Y-77513385D01*
X27439500Y-77686614D01*
X27466597Y-77857702D01*
X27466598Y-77857706D01*
X27520123Y-78022438D01*
X27520125Y-78022441D01*
X27520126Y-78022444D01*
X27520127Y-78022445D01*
X27598768Y-78176788D01*
X27700586Y-78316928D01*
X27823072Y-78439414D01*
X27963212Y-78541232D01*
X28117555Y-78619873D01*
X28117557Y-78619873D01*
X28117558Y-78619874D01*
X28117561Y-78619876D01*
X28282293Y-78673401D01*
X28282297Y-78673402D01*
X28453386Y-78700500D01*
X28453389Y-78700500D01*
X28626614Y-78700500D01*
X28797702Y-78673402D01*
X28797706Y-78673401D01*
X28962438Y-78619876D01*
X28962440Y-78619874D01*
X28962445Y-78619873D01*
X29116788Y-78541232D01*
X29256928Y-78439414D01*
X29379414Y-78316928D01*
X29481232Y-78176788D01*
X29559873Y-78022445D01*
X29559874Y-78022440D01*
X29559876Y-78022438D01*
X29613401Y-77857706D01*
X29613402Y-77857702D01*
X29640500Y-77686614D01*
X29640500Y-77513385D01*
X29979500Y-77513385D01*
X29979500Y-77686614D01*
X30006597Y-77857702D01*
X30006598Y-77857706D01*
X30060123Y-78022438D01*
X30060125Y-78022441D01*
X30060126Y-78022444D01*
X30060127Y-78022445D01*
X30138768Y-78176788D01*
X30240586Y-78316928D01*
X30363072Y-78439414D01*
X30503212Y-78541232D01*
X30657555Y-78619873D01*
X30657557Y-78619873D01*
X30657558Y-78619874D01*
X30657561Y-78619876D01*
X30822293Y-78673401D01*
X30822297Y-78673402D01*
X30993386Y-78700500D01*
X30993389Y-78700500D01*
X31166614Y-78700500D01*
X31337702Y-78673402D01*
X31337706Y-78673401D01*
X31502438Y-78619876D01*
X31502440Y-78619874D01*
X31502445Y-78619873D01*
X31656788Y-78541232D01*
X31796928Y-78439414D01*
X31919414Y-78316928D01*
X32021232Y-78176788D01*
X32099873Y-78022445D01*
X32099874Y-78022440D01*
X32099876Y-78022438D01*
X32153401Y-77857706D01*
X32153402Y-77857702D01*
X32180500Y-77686614D01*
X32180500Y-77513385D01*
X32519500Y-77513385D01*
X32519500Y-77686614D01*
X32546597Y-77857702D01*
X32546598Y-77857706D01*
X32600123Y-78022438D01*
X32600125Y-78022441D01*
X32600126Y-78022444D01*
X32600127Y-78022445D01*
X32678768Y-78176788D01*
X32780586Y-78316928D01*
X32903072Y-78439414D01*
X33043212Y-78541232D01*
X33197555Y-78619873D01*
X33197557Y-78619873D01*
X33197558Y-78619874D01*
X33197561Y-78619876D01*
X33362293Y-78673401D01*
X33362297Y-78673402D01*
X33533386Y-78700500D01*
X33533389Y-78700500D01*
X33706614Y-78700500D01*
X33877702Y-78673402D01*
X33877706Y-78673401D01*
X34042438Y-78619876D01*
X34042440Y-78619874D01*
X34042445Y-78619873D01*
X34196788Y-78541232D01*
X34336928Y-78439414D01*
X34459414Y-78316928D01*
X34561232Y-78176788D01*
X34639873Y-78022445D01*
X34639874Y-78022440D01*
X34639876Y-78022438D01*
X34693401Y-77857706D01*
X34693402Y-77857702D01*
X34720500Y-77686614D01*
X34720500Y-77513385D01*
X35059500Y-77513385D01*
X35059500Y-77686614D01*
X35086597Y-77857702D01*
X35086598Y-77857706D01*
X35140123Y-78022438D01*
X35140125Y-78022441D01*
X35140126Y-78022444D01*
X35140127Y-78022445D01*
X35218768Y-78176788D01*
X35320586Y-78316928D01*
X35443072Y-78439414D01*
X35583212Y-78541232D01*
X35737555Y-78619873D01*
X35737557Y-78619873D01*
X35737558Y-78619874D01*
X35737561Y-78619876D01*
X35902293Y-78673401D01*
X35902297Y-78673402D01*
X36073386Y-78700500D01*
X36073389Y-78700500D01*
X36246614Y-78700500D01*
X36417702Y-78673402D01*
X36417706Y-78673401D01*
X36582438Y-78619876D01*
X36582440Y-78619874D01*
X36582445Y-78619873D01*
X36736788Y-78541232D01*
X36876928Y-78439414D01*
X36999414Y-78316928D01*
X37101232Y-78176788D01*
X37179873Y-78022445D01*
X37179874Y-78022440D01*
X37179876Y-78022438D01*
X37233401Y-77857706D01*
X37233402Y-77857702D01*
X37260500Y-77686614D01*
X37260500Y-77513385D01*
X37599500Y-77513385D01*
X37599500Y-77686614D01*
X37626597Y-77857702D01*
X37626598Y-77857706D01*
X37680123Y-78022438D01*
X37680125Y-78022441D01*
X37680126Y-78022444D01*
X37680127Y-78022445D01*
X37758768Y-78176788D01*
X37860586Y-78316928D01*
X37983072Y-78439414D01*
X38123212Y-78541232D01*
X38277555Y-78619873D01*
X38277557Y-78619873D01*
X38277558Y-78619874D01*
X38277561Y-78619876D01*
X38442293Y-78673401D01*
X38442297Y-78673402D01*
X38613386Y-78700500D01*
X38613389Y-78700500D01*
X38786614Y-78700500D01*
X38957702Y-78673402D01*
X38957706Y-78673401D01*
X39122438Y-78619876D01*
X39122440Y-78619874D01*
X39122445Y-78619873D01*
X39276788Y-78541232D01*
X39416928Y-78439414D01*
X39539414Y-78316928D01*
X39641232Y-78176788D01*
X39719873Y-78022445D01*
X39719874Y-78022440D01*
X39719876Y-78022438D01*
X39773401Y-77857706D01*
X39773402Y-77857702D01*
X39800500Y-77686614D01*
X39800500Y-77513385D01*
X40139500Y-77513385D01*
X40139500Y-77686614D01*
X40166597Y-77857702D01*
X40166598Y-77857706D01*
X40220123Y-78022438D01*
X40220125Y-78022441D01*
X40220126Y-78022444D01*
X40220127Y-78022445D01*
X40298768Y-78176788D01*
X40400586Y-78316928D01*
X40523072Y-78439414D01*
X40663212Y-78541232D01*
X40817555Y-78619873D01*
X40817557Y-78619873D01*
X40817558Y-78619874D01*
X40817561Y-78619876D01*
X40982293Y-78673401D01*
X40982297Y-78673402D01*
X41153386Y-78700500D01*
X41153389Y-78700500D01*
X41326614Y-78700500D01*
X41497702Y-78673402D01*
X41497706Y-78673401D01*
X41662438Y-78619876D01*
X41662440Y-78619874D01*
X41662445Y-78619873D01*
X41816788Y-78541232D01*
X41956928Y-78439414D01*
X42079414Y-78316928D01*
X42181232Y-78176788D01*
X42259873Y-78022445D01*
X42259874Y-78022440D01*
X42259876Y-78022438D01*
X42313401Y-77857706D01*
X42313402Y-77857702D01*
X42340500Y-77686614D01*
X42340500Y-77513385D01*
X42679500Y-77513385D01*
X42679500Y-77686614D01*
X42706597Y-77857702D01*
X42706598Y-77857706D01*
X42760123Y-78022438D01*
X42760125Y-78022441D01*
X42760126Y-78022444D01*
X42760127Y-78022445D01*
X42838768Y-78176788D01*
X42940586Y-78316928D01*
X43063072Y-78439414D01*
X43111617Y-78474684D01*
X43203213Y-78541233D01*
X43290881Y-78585901D01*
X43334145Y-78629165D01*
X43343717Y-78689597D01*
X43315940Y-78744114D01*
X43315940Y-78744115D01*
X43274727Y-78785327D01*
X43274724Y-78785331D01*
X43203538Y-78891866D01*
X43203534Y-78891874D01*
X43154500Y-79010252D01*
X43154499Y-79010257D01*
X43129500Y-79135930D01*
X43129500Y-79264069D01*
X43154499Y-79389742D01*
X43154500Y-79389747D01*
X43203534Y-79508125D01*
X43203538Y-79508133D01*
X43246365Y-79572226D01*
X43274724Y-79614669D01*
X43365331Y-79705276D01*
X43428848Y-79747717D01*
X43471866Y-79776461D01*
X43471870Y-79776463D01*
X43471873Y-79776465D01*
X43590256Y-79825501D01*
X43715931Y-79850500D01*
X43715932Y-79850500D01*
X43844068Y-79850500D01*
X43844069Y-79850500D01*
X43969744Y-79825501D01*
X44088127Y-79776465D01*
X44194669Y-79705276D01*
X44285276Y-79614669D01*
X44356465Y-79508127D01*
X44405501Y-79389744D01*
X44430500Y-79264069D01*
X44430500Y-79135931D01*
X44405501Y-79010256D01*
X44356465Y-78891873D01*
X44356463Y-78891870D01*
X44356461Y-78891866D01*
X44327717Y-78848848D01*
X44285276Y-78785331D01*
X44244059Y-78744114D01*
X44216283Y-78689598D01*
X44225854Y-78629166D01*
X44269119Y-78585901D01*
X44356786Y-78541233D01*
X44356785Y-78541233D01*
X44356788Y-78541232D01*
X44496928Y-78439414D01*
X44619414Y-78316928D01*
X44721232Y-78176788D01*
X44799873Y-78022445D01*
X44824675Y-77946111D01*
X44860639Y-77896612D01*
X44918830Y-77877705D01*
X44977021Y-77896612D01*
X45012985Y-77946112D01*
X45068904Y-78118215D01*
X45165376Y-78307553D01*
X45165380Y-78307559D01*
X45204728Y-78361716D01*
X45204729Y-78361716D01*
X45837037Y-77729407D01*
X45854075Y-77792993D01*
X45919901Y-77907007D01*
X46012993Y-78000099D01*
X46127007Y-78065925D01*
X46190589Y-78082962D01*
X45558282Y-78715269D01*
X45558282Y-78715270D01*
X45612440Y-78754619D01*
X45612446Y-78754623D01*
X45801784Y-78851095D01*
X46003878Y-78916759D01*
X46213750Y-78950000D01*
X46426250Y-78950000D01*
X46636121Y-78916759D01*
X46838215Y-78851095D01*
X47027556Y-78754620D01*
X47081716Y-78715270D01*
X46449408Y-78082962D01*
X46512993Y-78065925D01*
X46627007Y-78000099D01*
X46720099Y-77907007D01*
X46785925Y-77792993D01*
X46802962Y-77729408D01*
X47435270Y-78361716D01*
X47474620Y-78307556D01*
X47571095Y-78118215D01*
X47636759Y-77916121D01*
X47670000Y-77706250D01*
X47670000Y-77493749D01*
X47636759Y-77283878D01*
X47571095Y-77081784D01*
X47474623Y-76892446D01*
X47474619Y-76892440D01*
X47435270Y-76838282D01*
X47435269Y-76838282D01*
X46802962Y-77470589D01*
X46785925Y-77407007D01*
X46720099Y-77292993D01*
X46627007Y-77199901D01*
X46512993Y-77134075D01*
X46449408Y-77117037D01*
X46841119Y-76725327D01*
X48899500Y-76725327D01*
X48899500Y-78474672D01*
X48899501Y-78474684D01*
X48914033Y-78547736D01*
X48914035Y-78547742D01*
X48969397Y-78630599D01*
X48969400Y-78630602D01*
X49052257Y-78685964D01*
X49052260Y-78685966D01*
X49096289Y-78694724D01*
X49125315Y-78700498D01*
X49125320Y-78700498D01*
X49125326Y-78700500D01*
X49125327Y-78700500D01*
X50874673Y-78700500D01*
X50874674Y-78700500D01*
X50947740Y-78685966D01*
X51030601Y-78630601D01*
X51085966Y-78547740D01*
X51100500Y-78474674D01*
X51100500Y-77513385D01*
X51439500Y-77513385D01*
X51439500Y-77686614D01*
X51466597Y-77857702D01*
X51466598Y-77857706D01*
X51520123Y-78022438D01*
X51520125Y-78022441D01*
X51520126Y-78022444D01*
X51520127Y-78022445D01*
X51598768Y-78176788D01*
X51700586Y-78316928D01*
X51823072Y-78439414D01*
X51963212Y-78541232D01*
X52117555Y-78619873D01*
X52117557Y-78619873D01*
X52117558Y-78619874D01*
X52117561Y-78619876D01*
X52282293Y-78673401D01*
X52282297Y-78673402D01*
X52453386Y-78700500D01*
X52453389Y-78700500D01*
X52626614Y-78700500D01*
X52797702Y-78673402D01*
X52797706Y-78673401D01*
X52962438Y-78619876D01*
X52962440Y-78619874D01*
X52962445Y-78619873D01*
X53116788Y-78541232D01*
X53256928Y-78439414D01*
X53379414Y-78316928D01*
X53481232Y-78176788D01*
X53553002Y-78035930D01*
X61849500Y-78035930D01*
X61849500Y-78164069D01*
X61874499Y-78289742D01*
X61874500Y-78289747D01*
X61923534Y-78408125D01*
X61923538Y-78408133D01*
X61944440Y-78439414D01*
X61994724Y-78514669D01*
X62085331Y-78605276D01*
X62146372Y-78646062D01*
X62191866Y-78676461D01*
X62191870Y-78676463D01*
X62191873Y-78676465D01*
X62310256Y-78725501D01*
X62435931Y-78750500D01*
X62435932Y-78750500D01*
X62564068Y-78750500D01*
X62564069Y-78750500D01*
X62689744Y-78725501D01*
X62808127Y-78676465D01*
X62914669Y-78605276D01*
X62954996Y-78564949D01*
X63009512Y-78537171D01*
X63069944Y-78546742D01*
X63095004Y-78564949D01*
X63135322Y-78605268D01*
X63135326Y-78605271D01*
X63135331Y-78605276D01*
X63196372Y-78646062D01*
X63241866Y-78676461D01*
X63241870Y-78676463D01*
X63241873Y-78676465D01*
X63360256Y-78725501D01*
X63485931Y-78750500D01*
X63485932Y-78750500D01*
X63614068Y-78750500D01*
X63614069Y-78750500D01*
X63739744Y-78725501D01*
X63858127Y-78676465D01*
X63964669Y-78605276D01*
X64055276Y-78514669D01*
X64126465Y-78408127D01*
X64175501Y-78289744D01*
X64200500Y-78164069D01*
X64200500Y-78035931D01*
X64175501Y-77910256D01*
X64126465Y-77791873D01*
X64126463Y-77791870D01*
X64126461Y-77791866D01*
X64097717Y-77748848D01*
X64055276Y-77685331D01*
X63964669Y-77594724D01*
X63922226Y-77566365D01*
X63858133Y-77523538D01*
X63858125Y-77523534D01*
X63739747Y-77474500D01*
X63739745Y-77474499D01*
X63739744Y-77474499D01*
X63614069Y-77449500D01*
X63485931Y-77449500D01*
X63485930Y-77449500D01*
X63423093Y-77461999D01*
X63360256Y-77474499D01*
X63360255Y-77474499D01*
X63360252Y-77474500D01*
X63241874Y-77523534D01*
X63241866Y-77523538D01*
X63135331Y-77594724D01*
X63135327Y-77594727D01*
X63095004Y-77635051D01*
X63040487Y-77662828D01*
X62980055Y-77653257D01*
X62954996Y-77635051D01*
X62914672Y-77594727D01*
X62914669Y-77594724D01*
X62872226Y-77566365D01*
X62808133Y-77523538D01*
X62808125Y-77523534D01*
X62689747Y-77474500D01*
X62689745Y-77474499D01*
X62689744Y-77474499D01*
X62564069Y-77449500D01*
X62435931Y-77449500D01*
X62435930Y-77449500D01*
X62373093Y-77461999D01*
X62310256Y-77474499D01*
X62310255Y-77474499D01*
X62310252Y-77474500D01*
X62191874Y-77523534D01*
X62191866Y-77523538D01*
X62085331Y-77594724D01*
X62085327Y-77594727D01*
X61994727Y-77685327D01*
X61994724Y-77685331D01*
X61923538Y-77791866D01*
X61923534Y-77791874D01*
X61874500Y-77910252D01*
X61874499Y-77910255D01*
X61874499Y-77910256D01*
X61861999Y-77973093D01*
X61849500Y-78035930D01*
X53553002Y-78035930D01*
X53559873Y-78022445D01*
X53561851Y-78016354D01*
X53567012Y-78000476D01*
X53567012Y-78000474D01*
X53572547Y-77983438D01*
X53613402Y-77857701D01*
X53626951Y-77772156D01*
X53640500Y-77686614D01*
X53640500Y-77513385D01*
X53613402Y-77342297D01*
X53613401Y-77342293D01*
X53559876Y-77177561D01*
X53559874Y-77177558D01*
X53559873Y-77177557D01*
X53559873Y-77177555D01*
X53481232Y-77023212D01*
X53379414Y-76883072D01*
X53256928Y-76760586D01*
X53116788Y-76658768D01*
X53116787Y-76658767D01*
X53116785Y-76658766D01*
X52962441Y-76580125D01*
X52962438Y-76580123D01*
X52797706Y-76526598D01*
X52797702Y-76526597D01*
X52626614Y-76499500D01*
X52626611Y-76499500D01*
X52453389Y-76499500D01*
X52453386Y-76499500D01*
X52282297Y-76526597D01*
X52282293Y-76526598D01*
X52117561Y-76580123D01*
X52117558Y-76580125D01*
X51963214Y-76658766D01*
X51823073Y-76760585D01*
X51700585Y-76883073D01*
X51598766Y-77023214D01*
X51520125Y-77177558D01*
X51520123Y-77177561D01*
X51466598Y-77342293D01*
X51466597Y-77342297D01*
X51439500Y-77513385D01*
X51100500Y-77513385D01*
X51100500Y-76725326D01*
X51085966Y-76652260D01*
X51037768Y-76580125D01*
X51030602Y-76569400D01*
X51030599Y-76569397D01*
X50947742Y-76514035D01*
X50947740Y-76514034D01*
X50947737Y-76514033D01*
X50947736Y-76514033D01*
X50874684Y-76499501D01*
X50874674Y-76499500D01*
X49125326Y-76499500D01*
X49125325Y-76499500D01*
X49125315Y-76499501D01*
X49052263Y-76514033D01*
X49052257Y-76514035D01*
X48969400Y-76569397D01*
X48969397Y-76569400D01*
X48914035Y-76652257D01*
X48914033Y-76652263D01*
X48899501Y-76725315D01*
X48899500Y-76725327D01*
X46841119Y-76725327D01*
X46915988Y-76650458D01*
X47081716Y-76484729D01*
X47081716Y-76484728D01*
X47027559Y-76445380D01*
X47027553Y-76445376D01*
X46838215Y-76348904D01*
X46636121Y-76283240D01*
X46426250Y-76250000D01*
X46213750Y-76250000D01*
X46003878Y-76283240D01*
X45801784Y-76348904D01*
X45612446Y-76445376D01*
X45612442Y-76445378D01*
X45558282Y-76484728D01*
X46190591Y-77117037D01*
X46127007Y-77134075D01*
X46012993Y-77199901D01*
X45919901Y-77292993D01*
X45854075Y-77407007D01*
X45837037Y-77470591D01*
X45204728Y-76838282D01*
X45165378Y-76892442D01*
X45165376Y-76892446D01*
X45068904Y-77081784D01*
X45012985Y-77253887D01*
X44977021Y-77303387D01*
X44918830Y-77322294D01*
X44860639Y-77303387D01*
X44824676Y-77253887D01*
X44799876Y-77177561D01*
X44799874Y-77177558D01*
X44799873Y-77177557D01*
X44799873Y-77177555D01*
X44721232Y-77023212D01*
X44619414Y-76883072D01*
X44496928Y-76760586D01*
X44356788Y-76658768D01*
X44356787Y-76658767D01*
X44356785Y-76658766D01*
X44262390Y-76610670D01*
X44262388Y-76610668D01*
X44202447Y-76580127D01*
X44202438Y-76580123D01*
X44037706Y-76526598D01*
X44037702Y-76526597D01*
X43866614Y-76499500D01*
X43866611Y-76499500D01*
X43693389Y-76499500D01*
X43693386Y-76499500D01*
X43522297Y-76526597D01*
X43522293Y-76526598D01*
X43357561Y-76580123D01*
X43357558Y-76580125D01*
X43203214Y-76658766D01*
X43063073Y-76760585D01*
X42940585Y-76883073D01*
X42838766Y-77023214D01*
X42760125Y-77177558D01*
X42760123Y-77177561D01*
X42706598Y-77342293D01*
X42706597Y-77342297D01*
X42679500Y-77513385D01*
X42340500Y-77513385D01*
X42313402Y-77342297D01*
X42313401Y-77342293D01*
X42259876Y-77177561D01*
X42259874Y-77177558D01*
X42259873Y-77177557D01*
X42259873Y-77177555D01*
X42181232Y-77023212D01*
X42079414Y-76883072D01*
X41956928Y-76760586D01*
X41816788Y-76658768D01*
X41816787Y-76658767D01*
X41816785Y-76658766D01*
X41662441Y-76580125D01*
X41662438Y-76580123D01*
X41497706Y-76526598D01*
X41497702Y-76526597D01*
X41326614Y-76499500D01*
X41326611Y-76499500D01*
X41153389Y-76499500D01*
X41153386Y-76499500D01*
X40982297Y-76526597D01*
X40982293Y-76526598D01*
X40817561Y-76580123D01*
X40817558Y-76580125D01*
X40663214Y-76658766D01*
X40523073Y-76760585D01*
X40400585Y-76883073D01*
X40298766Y-77023214D01*
X40220125Y-77177558D01*
X40220123Y-77177561D01*
X40166598Y-77342293D01*
X40166597Y-77342297D01*
X40139500Y-77513385D01*
X39800500Y-77513385D01*
X39773402Y-77342297D01*
X39773401Y-77342293D01*
X39719876Y-77177561D01*
X39719874Y-77177558D01*
X39719873Y-77177557D01*
X39719873Y-77177555D01*
X39641232Y-77023212D01*
X39539414Y-76883072D01*
X39416928Y-76760586D01*
X39276788Y-76658768D01*
X39276787Y-76658767D01*
X39276785Y-76658766D01*
X39122441Y-76580125D01*
X39122438Y-76580123D01*
X38957706Y-76526598D01*
X38957702Y-76526597D01*
X38786614Y-76499500D01*
X38786611Y-76499500D01*
X38613389Y-76499500D01*
X38613386Y-76499500D01*
X38442297Y-76526597D01*
X38442293Y-76526598D01*
X38277561Y-76580123D01*
X38277558Y-76580125D01*
X38123214Y-76658766D01*
X37983073Y-76760585D01*
X37860585Y-76883073D01*
X37758766Y-77023214D01*
X37680125Y-77177558D01*
X37680123Y-77177561D01*
X37626598Y-77342293D01*
X37626597Y-77342297D01*
X37599500Y-77513385D01*
X37260500Y-77513385D01*
X37233402Y-77342297D01*
X37233401Y-77342293D01*
X37179876Y-77177561D01*
X37179874Y-77177558D01*
X37179873Y-77177557D01*
X37179873Y-77177555D01*
X37101232Y-77023212D01*
X36999414Y-76883072D01*
X36876928Y-76760586D01*
X36736788Y-76658768D01*
X36736787Y-76658767D01*
X36736785Y-76658766D01*
X36582441Y-76580125D01*
X36582438Y-76580123D01*
X36417706Y-76526598D01*
X36417702Y-76526597D01*
X36246614Y-76499500D01*
X36246611Y-76499500D01*
X36073389Y-76499500D01*
X36073386Y-76499500D01*
X35902297Y-76526597D01*
X35902293Y-76526598D01*
X35737561Y-76580123D01*
X35737558Y-76580125D01*
X35583214Y-76658766D01*
X35443073Y-76760585D01*
X35320585Y-76883073D01*
X35218766Y-77023214D01*
X35140125Y-77177558D01*
X35140123Y-77177561D01*
X35086598Y-77342293D01*
X35086597Y-77342297D01*
X35059500Y-77513385D01*
X34720500Y-77513385D01*
X34693402Y-77342297D01*
X34693401Y-77342293D01*
X34639876Y-77177561D01*
X34639874Y-77177558D01*
X34639873Y-77177557D01*
X34639873Y-77177555D01*
X34561232Y-77023212D01*
X34459414Y-76883072D01*
X34336928Y-76760586D01*
X34196788Y-76658768D01*
X34196787Y-76658767D01*
X34196785Y-76658766D01*
X34042441Y-76580125D01*
X34042438Y-76580123D01*
X33877706Y-76526598D01*
X33877702Y-76526597D01*
X33706614Y-76499500D01*
X33706611Y-76499500D01*
X33533389Y-76499500D01*
X33533386Y-76499500D01*
X33362297Y-76526597D01*
X33362293Y-76526598D01*
X33197561Y-76580123D01*
X33197558Y-76580125D01*
X33043214Y-76658766D01*
X32903073Y-76760585D01*
X32780585Y-76883073D01*
X32678766Y-77023214D01*
X32600125Y-77177558D01*
X32600123Y-77177561D01*
X32546598Y-77342293D01*
X32546597Y-77342297D01*
X32519500Y-77513385D01*
X32180500Y-77513385D01*
X32153402Y-77342297D01*
X32153401Y-77342293D01*
X32099876Y-77177561D01*
X32099874Y-77177558D01*
X32099873Y-77177557D01*
X32099873Y-77177555D01*
X32021232Y-77023212D01*
X31919414Y-76883072D01*
X31796928Y-76760586D01*
X31656788Y-76658768D01*
X31656787Y-76658767D01*
X31656785Y-76658766D01*
X31502441Y-76580125D01*
X31502438Y-76580123D01*
X31337706Y-76526598D01*
X31337702Y-76526597D01*
X31166614Y-76499500D01*
X31166611Y-76499500D01*
X30993389Y-76499500D01*
X30993386Y-76499500D01*
X30822297Y-76526597D01*
X30822293Y-76526598D01*
X30657561Y-76580123D01*
X30657558Y-76580125D01*
X30503214Y-76658766D01*
X30363073Y-76760585D01*
X30240585Y-76883073D01*
X30138766Y-77023214D01*
X30060125Y-77177558D01*
X30060123Y-77177561D01*
X30006598Y-77342293D01*
X30006597Y-77342297D01*
X29979500Y-77513385D01*
X29640500Y-77513385D01*
X29613402Y-77342297D01*
X29613401Y-77342293D01*
X29559876Y-77177561D01*
X29559874Y-77177558D01*
X29559873Y-77177557D01*
X29559873Y-77177555D01*
X29481232Y-77023212D01*
X29379414Y-76883072D01*
X29256928Y-76760586D01*
X29116788Y-76658768D01*
X29116787Y-76658767D01*
X29116785Y-76658766D01*
X28962441Y-76580125D01*
X28962438Y-76580123D01*
X28797706Y-76526598D01*
X28797702Y-76526597D01*
X28626614Y-76499500D01*
X28626611Y-76499500D01*
X28453389Y-76499500D01*
X28453386Y-76499500D01*
X28282297Y-76526597D01*
X28282293Y-76526598D01*
X28117561Y-76580123D01*
X28117558Y-76580125D01*
X27963214Y-76658766D01*
X27823073Y-76760585D01*
X27700585Y-76883073D01*
X27598766Y-77023214D01*
X27520125Y-77177558D01*
X27520123Y-77177561D01*
X27466598Y-77342293D01*
X27466597Y-77342297D01*
X27439500Y-77513385D01*
X27100500Y-77513385D01*
X27100500Y-76725326D01*
X27085966Y-76652260D01*
X27037768Y-76580125D01*
X27030602Y-76569400D01*
X27030599Y-76569397D01*
X26947742Y-76514035D01*
X26947740Y-76514034D01*
X26947737Y-76514033D01*
X26947736Y-76514033D01*
X26874684Y-76499501D01*
X26874674Y-76499500D01*
X26874673Y-76499500D01*
X26633810Y-76499500D01*
X26575619Y-76480593D01*
X26539655Y-76431093D01*
X26539655Y-76369907D01*
X26551495Y-76345498D01*
X26576461Y-76308134D01*
X26576462Y-76308130D01*
X26576465Y-76308127D01*
X26625501Y-76189744D01*
X26650500Y-76064069D01*
X26650500Y-75935931D01*
X26625501Y-75810256D01*
X26576465Y-75691873D01*
X26576463Y-75691870D01*
X26576461Y-75691866D01*
X26511515Y-75594669D01*
X26505276Y-75585331D01*
X26414669Y-75494724D01*
X26372226Y-75466365D01*
X26308133Y-75423538D01*
X26308125Y-75423534D01*
X26189747Y-75374500D01*
X26189745Y-75374499D01*
X26189744Y-75374499D01*
X26064069Y-75349500D01*
X25935931Y-75349500D01*
X25935930Y-75349500D01*
X25873093Y-75361999D01*
X25810256Y-75374499D01*
X25810255Y-75374499D01*
X25810252Y-75374500D01*
X25691874Y-75423534D01*
X25691866Y-75423538D01*
X25585331Y-75494724D01*
X25585327Y-75494727D01*
X25494727Y-75585327D01*
X25494724Y-75585331D01*
X25423538Y-75691866D01*
X25423534Y-75691874D01*
X25374500Y-75810252D01*
X25374499Y-75810257D01*
X25349500Y-75935930D01*
X25349500Y-76064069D01*
X25374499Y-76189742D01*
X25374500Y-76189747D01*
X25423534Y-76308125D01*
X25423538Y-76308134D01*
X25448505Y-76345498D01*
X25465114Y-76404386D01*
X25443937Y-76461790D01*
X25393063Y-76495783D01*
X25366190Y-76499500D01*
X25125326Y-76499500D01*
X25125325Y-76499500D01*
X25125315Y-76499501D01*
X25052263Y-76514033D01*
X25052257Y-76514035D01*
X24969400Y-76569397D01*
X24969397Y-76569400D01*
X24914035Y-76652257D01*
X24914033Y-76652263D01*
X24899501Y-76725315D01*
X24899500Y-76725327D01*
X500500Y-76725327D01*
X500500Y-75115930D01*
X27889500Y-75115930D01*
X27889500Y-75244069D01*
X27914499Y-75369742D01*
X27914500Y-75369747D01*
X27963534Y-75488125D01*
X27963538Y-75488133D01*
X28006365Y-75552226D01*
X28034724Y-75594669D01*
X28125331Y-75685276D01*
X28188848Y-75727717D01*
X28231866Y-75756461D01*
X28231870Y-75756463D01*
X28231873Y-75756465D01*
X28350256Y-75805501D01*
X28475931Y-75830500D01*
X28475932Y-75830500D01*
X28604068Y-75830500D01*
X28604069Y-75830500D01*
X28729744Y-75805501D01*
X28848127Y-75756465D01*
X28954669Y-75685276D01*
X29045276Y-75594669D01*
X29116465Y-75488127D01*
X29165501Y-75369744D01*
X29190500Y-75244069D01*
X29190500Y-75115931D01*
X29165501Y-74990256D01*
X29116465Y-74871873D01*
X29116463Y-74871870D01*
X29116461Y-74871866D01*
X29051515Y-74774669D01*
X29045276Y-74765331D01*
X28954669Y-74674724D01*
X28912226Y-74646365D01*
X28848133Y-74603538D01*
X28848125Y-74603534D01*
X28729747Y-74554500D01*
X28729745Y-74554499D01*
X28729744Y-74554499D01*
X28604069Y-74529500D01*
X28475931Y-74529500D01*
X28475930Y-74529500D01*
X28413093Y-74541999D01*
X28350256Y-74554499D01*
X28350255Y-74554499D01*
X28350252Y-74554500D01*
X28231874Y-74603534D01*
X28231866Y-74603538D01*
X28125331Y-74674724D01*
X28125327Y-74674727D01*
X28034727Y-74765327D01*
X28034724Y-74765331D01*
X27963538Y-74871866D01*
X27963534Y-74871874D01*
X27914500Y-74990252D01*
X27914499Y-74990257D01*
X27889500Y-75115930D01*
X500500Y-75115930D01*
X500500Y-74295930D01*
X30429500Y-74295930D01*
X30429500Y-74424069D01*
X30454499Y-74549742D01*
X30454500Y-74549747D01*
X30503534Y-74668125D01*
X30503538Y-74668133D01*
X30546365Y-74732226D01*
X30574724Y-74774669D01*
X30665331Y-74865276D01*
X30728848Y-74907717D01*
X30771866Y-74936461D01*
X30771870Y-74936463D01*
X30771873Y-74936465D01*
X30890256Y-74985501D01*
X31015931Y-75010500D01*
X31015932Y-75010500D01*
X31144068Y-75010500D01*
X31144069Y-75010500D01*
X31269744Y-74985501D01*
X31388127Y-74936465D01*
X31494669Y-74865276D01*
X31585276Y-74774669D01*
X31656465Y-74668127D01*
X31705501Y-74549744D01*
X31730500Y-74424069D01*
X31730500Y-74295931D01*
X31705501Y-74170256D01*
X31656465Y-74051873D01*
X31656463Y-74051870D01*
X31656461Y-74051866D01*
X31591515Y-73954669D01*
X31585276Y-73945331D01*
X31494669Y-73854724D01*
X31452226Y-73826365D01*
X31388133Y-73783538D01*
X31388125Y-73783534D01*
X31269747Y-73734500D01*
X31269745Y-73734499D01*
X31269744Y-73734499D01*
X31144069Y-73709500D01*
X31015931Y-73709500D01*
X31015930Y-73709500D01*
X30953093Y-73721999D01*
X30890256Y-73734499D01*
X30890255Y-73734499D01*
X30890252Y-73734500D01*
X30771874Y-73783534D01*
X30771866Y-73783538D01*
X30665331Y-73854724D01*
X30665327Y-73854727D01*
X30574727Y-73945327D01*
X30574724Y-73945331D01*
X30503538Y-74051866D01*
X30503534Y-74051874D01*
X30454500Y-74170252D01*
X30454499Y-74170257D01*
X30429500Y-74295930D01*
X500500Y-74295930D01*
X500500Y-73475930D01*
X32969500Y-73475930D01*
X32969500Y-73604069D01*
X32994499Y-73729742D01*
X32994500Y-73729747D01*
X33043534Y-73848125D01*
X33043538Y-73848133D01*
X33086365Y-73912226D01*
X33114724Y-73954669D01*
X33205331Y-74045276D01*
X33268848Y-74087717D01*
X33311866Y-74116461D01*
X33311870Y-74116463D01*
X33311873Y-74116465D01*
X33430256Y-74165501D01*
X33555931Y-74190500D01*
X33555932Y-74190500D01*
X33684068Y-74190500D01*
X33684069Y-74190500D01*
X33809744Y-74165501D01*
X33928127Y-74116465D01*
X34034669Y-74045276D01*
X34125276Y-73954669D01*
X34196465Y-73848127D01*
X34245501Y-73729744D01*
X34270500Y-73604069D01*
X34270500Y-73475931D01*
X34245501Y-73350256D01*
X34196465Y-73231873D01*
X34196463Y-73231870D01*
X34196461Y-73231866D01*
X34131515Y-73134669D01*
X34125276Y-73125331D01*
X34034669Y-73034724D01*
X33992226Y-73006365D01*
X33928133Y-72963538D01*
X33928125Y-72963534D01*
X33809747Y-72914500D01*
X33809745Y-72914499D01*
X33809744Y-72914499D01*
X33684069Y-72889500D01*
X33555931Y-72889500D01*
X33555930Y-72889500D01*
X33493093Y-72901999D01*
X33430256Y-72914499D01*
X33430255Y-72914499D01*
X33430252Y-72914500D01*
X33311874Y-72963534D01*
X33311866Y-72963538D01*
X33205331Y-73034724D01*
X33205327Y-73034727D01*
X33114727Y-73125327D01*
X33114724Y-73125331D01*
X33043538Y-73231866D01*
X33043534Y-73231874D01*
X32994500Y-73350252D01*
X32994499Y-73350257D01*
X32969500Y-73475930D01*
X500500Y-73475930D01*
X500500Y-72655931D01*
X35509500Y-72655931D01*
X35509500Y-72784069D01*
X35534499Y-72909744D01*
X35534499Y-72909745D01*
X35534500Y-72909747D01*
X35583534Y-73028125D01*
X35583538Y-73028133D01*
X35626365Y-73092226D01*
X35654724Y-73134669D01*
X35745331Y-73225276D01*
X35808848Y-73267717D01*
X35851866Y-73296461D01*
X35851870Y-73296463D01*
X35851873Y-73296465D01*
X35970256Y-73345501D01*
X36095931Y-73370500D01*
X36095932Y-73370500D01*
X36224068Y-73370500D01*
X36224069Y-73370500D01*
X36349744Y-73345501D01*
X36468127Y-73296465D01*
X36574669Y-73225276D01*
X36665276Y-73134669D01*
X36736465Y-73028127D01*
X36774654Y-72935931D01*
X69749500Y-72935931D01*
X69749500Y-73064069D01*
X69763543Y-73134668D01*
X69774499Y-73189742D01*
X69774500Y-73189747D01*
X69823534Y-73308125D01*
X69823538Y-73308133D01*
X69851685Y-73350257D01*
X69894724Y-73414669D01*
X69985331Y-73505276D01*
X70048848Y-73547717D01*
X70091866Y-73576461D01*
X70091870Y-73576463D01*
X70091873Y-73576465D01*
X70210256Y-73625501D01*
X70335931Y-73650500D01*
X70335932Y-73650500D01*
X70464068Y-73650500D01*
X70464069Y-73650500D01*
X70589744Y-73625501D01*
X70708127Y-73576465D01*
X70814669Y-73505276D01*
X70905276Y-73414669D01*
X70976465Y-73308127D01*
X71025501Y-73189744D01*
X71050500Y-73064069D01*
X71050500Y-72935931D01*
X71025501Y-72810256D01*
X70976465Y-72691873D01*
X70976463Y-72691870D01*
X70976461Y-72691866D01*
X70947717Y-72648848D01*
X70905276Y-72585331D01*
X70814669Y-72494724D01*
X70772226Y-72466365D01*
X70708133Y-72423538D01*
X70708125Y-72423534D01*
X70589747Y-72374500D01*
X70589745Y-72374499D01*
X70589744Y-72374499D01*
X70464069Y-72349500D01*
X70335931Y-72349500D01*
X70335930Y-72349500D01*
X70273093Y-72361999D01*
X70210256Y-72374499D01*
X70210255Y-72374499D01*
X70210252Y-72374500D01*
X70091874Y-72423534D01*
X70091866Y-72423538D01*
X69985331Y-72494724D01*
X69985327Y-72494727D01*
X69894727Y-72585327D01*
X69894724Y-72585331D01*
X69823538Y-72691866D01*
X69823534Y-72691874D01*
X69774500Y-72810252D01*
X69774499Y-72810255D01*
X69774499Y-72810256D01*
X69749500Y-72935931D01*
X36774654Y-72935931D01*
X36785501Y-72909744D01*
X36810500Y-72784069D01*
X36810500Y-72655931D01*
X36785501Y-72530256D01*
X36736465Y-72411873D01*
X36736463Y-72411870D01*
X36736461Y-72411866D01*
X36707717Y-72368848D01*
X36665276Y-72305331D01*
X36574669Y-72214724D01*
X36532226Y-72186365D01*
X36468133Y-72143538D01*
X36468125Y-72143534D01*
X36349747Y-72094500D01*
X36349745Y-72094499D01*
X36349744Y-72094499D01*
X36224069Y-72069500D01*
X36095931Y-72069500D01*
X36095930Y-72069500D01*
X36033093Y-72081999D01*
X35970256Y-72094499D01*
X35970255Y-72094499D01*
X35970252Y-72094500D01*
X35851874Y-72143534D01*
X35851866Y-72143538D01*
X35745331Y-72214724D01*
X35745327Y-72214727D01*
X35654727Y-72305327D01*
X35654724Y-72305331D01*
X35583538Y-72411866D01*
X35583534Y-72411874D01*
X35534500Y-72530252D01*
X35534499Y-72530257D01*
X35510581Y-72650499D01*
X35509500Y-72655931D01*
X500500Y-72655931D01*
X500500Y-71835931D01*
X38049500Y-71835931D01*
X38049500Y-71964069D01*
X38069391Y-72064067D01*
X38074499Y-72089742D01*
X38074500Y-72089747D01*
X38123534Y-72208125D01*
X38123538Y-72208133D01*
X38166365Y-72272226D01*
X38194724Y-72314669D01*
X38285331Y-72405276D01*
X38348848Y-72447717D01*
X38391866Y-72476461D01*
X38391870Y-72476463D01*
X38391873Y-72476465D01*
X38510256Y-72525501D01*
X38635931Y-72550500D01*
X38635932Y-72550500D01*
X38764068Y-72550500D01*
X38764069Y-72550500D01*
X38889744Y-72525501D01*
X39008127Y-72476465D01*
X39114669Y-72405276D01*
X39205276Y-72314669D01*
X39276465Y-72208127D01*
X39325501Y-72089744D01*
X39350500Y-71964069D01*
X39350500Y-71935930D01*
X68549500Y-71935930D01*
X68549500Y-72064069D01*
X68574499Y-72189742D01*
X68574500Y-72189747D01*
X68623534Y-72308125D01*
X68623538Y-72308133D01*
X68666365Y-72372226D01*
X68694724Y-72414669D01*
X68785331Y-72505276D01*
X68822718Y-72530257D01*
X68891866Y-72576461D01*
X68891870Y-72576463D01*
X68891873Y-72576465D01*
X69010256Y-72625501D01*
X69135931Y-72650500D01*
X69135932Y-72650500D01*
X69264068Y-72650500D01*
X69264069Y-72650500D01*
X69389744Y-72625501D01*
X69508127Y-72576465D01*
X69614669Y-72505276D01*
X69705276Y-72414669D01*
X69776465Y-72308127D01*
X69825501Y-72189744D01*
X69850500Y-72064069D01*
X69850500Y-71935931D01*
X69825501Y-71810256D01*
X69776465Y-71691873D01*
X69776463Y-71691870D01*
X69776461Y-71691866D01*
X69747717Y-71648848D01*
X69705276Y-71585331D01*
X69614669Y-71494724D01*
X69572226Y-71466365D01*
X69508133Y-71423538D01*
X69508125Y-71423534D01*
X69389747Y-71374500D01*
X69389745Y-71374499D01*
X69389744Y-71374499D01*
X69264069Y-71349500D01*
X69135931Y-71349500D01*
X69135930Y-71349500D01*
X69073093Y-71361999D01*
X69010256Y-71374499D01*
X69010255Y-71374499D01*
X69010252Y-71374500D01*
X68891874Y-71423534D01*
X68891866Y-71423538D01*
X68785331Y-71494724D01*
X68785327Y-71494727D01*
X68694727Y-71585327D01*
X68694724Y-71585331D01*
X68623538Y-71691866D01*
X68623534Y-71691874D01*
X68574500Y-71810252D01*
X68574499Y-71810257D01*
X68549500Y-71935930D01*
X39350500Y-71935930D01*
X39350500Y-71835931D01*
X39325501Y-71710256D01*
X39276465Y-71591873D01*
X39276463Y-71591870D01*
X39276461Y-71591866D01*
X39247717Y-71548848D01*
X39205276Y-71485331D01*
X39114669Y-71394724D01*
X39072226Y-71366365D01*
X39008133Y-71323538D01*
X39008125Y-71323534D01*
X38889747Y-71274500D01*
X38889745Y-71274499D01*
X38889744Y-71274499D01*
X38764069Y-71249500D01*
X38635931Y-71249500D01*
X38635930Y-71249500D01*
X38573093Y-71261999D01*
X38510256Y-71274499D01*
X38510255Y-71274499D01*
X38510252Y-71274500D01*
X38391874Y-71323534D01*
X38391866Y-71323538D01*
X38285331Y-71394724D01*
X38285327Y-71394727D01*
X38194727Y-71485327D01*
X38194724Y-71485331D01*
X38123538Y-71591866D01*
X38123534Y-71591874D01*
X38074500Y-71710252D01*
X38074499Y-71710255D01*
X38074499Y-71710256D01*
X38049500Y-71835931D01*
X500500Y-71835931D01*
X500500Y-66935930D01*
X31499500Y-66935930D01*
X31499500Y-67064069D01*
X31524499Y-67189742D01*
X31524500Y-67189747D01*
X31573534Y-67308125D01*
X31573538Y-67308133D01*
X31616365Y-67372226D01*
X31644724Y-67414669D01*
X31735331Y-67505276D01*
X31798848Y-67547717D01*
X31841866Y-67576461D01*
X31841870Y-67576463D01*
X31841873Y-67576465D01*
X31960256Y-67625501D01*
X32085931Y-67650500D01*
X32085932Y-67650500D01*
X32214068Y-67650500D01*
X32214069Y-67650500D01*
X32339744Y-67625501D01*
X32458127Y-67576465D01*
X32564669Y-67505276D01*
X32655276Y-67414669D01*
X32726465Y-67308127D01*
X32775501Y-67189744D01*
X32800500Y-67064069D01*
X32800500Y-66935931D01*
X32800500Y-66935930D01*
X35624500Y-66935930D01*
X35624500Y-67064069D01*
X35649499Y-67189742D01*
X35649500Y-67189747D01*
X35698534Y-67308125D01*
X35698538Y-67308133D01*
X35741365Y-67372226D01*
X35769724Y-67414669D01*
X35860331Y-67505276D01*
X35923848Y-67547717D01*
X35966866Y-67576461D01*
X35966870Y-67576463D01*
X35966873Y-67576465D01*
X36085256Y-67625501D01*
X36210931Y-67650500D01*
X36210932Y-67650500D01*
X36339068Y-67650500D01*
X36339069Y-67650500D01*
X36464744Y-67625501D01*
X36583127Y-67576465D01*
X36689669Y-67505276D01*
X36780276Y-67414669D01*
X36851465Y-67308127D01*
X36900501Y-67189744D01*
X36925500Y-67064069D01*
X36925500Y-66935931D01*
X36900501Y-66810256D01*
X36851465Y-66691873D01*
X36851463Y-66691870D01*
X36851461Y-66691866D01*
X36822717Y-66648848D01*
X36780276Y-66585331D01*
X36689669Y-66494724D01*
X36630631Y-66455276D01*
X36583133Y-66423538D01*
X36583125Y-66423534D01*
X36464747Y-66374500D01*
X36464745Y-66374499D01*
X36464744Y-66374499D01*
X36339069Y-66349500D01*
X36210931Y-66349500D01*
X36210930Y-66349500D01*
X36148093Y-66361999D01*
X36085256Y-66374499D01*
X36085255Y-66374499D01*
X36085252Y-66374500D01*
X35966874Y-66423534D01*
X35966866Y-66423538D01*
X35860331Y-66494724D01*
X35860327Y-66494727D01*
X35769727Y-66585327D01*
X35769724Y-66585331D01*
X35698538Y-66691866D01*
X35698534Y-66691874D01*
X35649500Y-66810252D01*
X35649499Y-66810257D01*
X35624500Y-66935930D01*
X32800500Y-66935930D01*
X32775501Y-66810256D01*
X32726465Y-66691873D01*
X32726463Y-66691870D01*
X32726461Y-66691866D01*
X32697717Y-66648848D01*
X32655276Y-66585331D01*
X32564669Y-66494724D01*
X32505631Y-66455276D01*
X32458133Y-66423538D01*
X32458125Y-66423534D01*
X32339747Y-66374500D01*
X32339745Y-66374499D01*
X32339744Y-66374499D01*
X32214069Y-66349500D01*
X32085931Y-66349500D01*
X32085930Y-66349500D01*
X32023093Y-66361999D01*
X31960256Y-66374499D01*
X31960255Y-66374499D01*
X31960252Y-66374500D01*
X31841874Y-66423534D01*
X31841866Y-66423538D01*
X31735331Y-66494724D01*
X31735327Y-66494727D01*
X31644727Y-66585327D01*
X31644724Y-66585331D01*
X31573538Y-66691866D01*
X31573534Y-66691874D01*
X31524500Y-66810252D01*
X31524499Y-66810257D01*
X31499500Y-66935930D01*
X500500Y-66935930D01*
X500500Y-65497823D01*
X6649999Y-65497823D01*
X6656401Y-65557369D01*
X6656403Y-65557380D01*
X6706646Y-65692087D01*
X6706647Y-65692089D01*
X6792807Y-65807183D01*
X6792815Y-65807191D01*
X6907909Y-65893351D01*
X6907911Y-65893352D01*
X7042618Y-65943595D01*
X7042629Y-65943597D01*
X7102176Y-65949999D01*
X7749999Y-65949999D01*
X7750000Y-65949998D01*
X7750000Y-65033011D01*
X7807007Y-65065924D01*
X7934174Y-65099999D01*
X8065826Y-65099999D01*
X8192993Y-65065924D01*
X8250000Y-65033011D01*
X8250000Y-65949998D01*
X8250001Y-65949999D01*
X8897824Y-65949999D01*
X8957370Y-65943597D01*
X8957381Y-65943595D01*
X9092088Y-65893352D01*
X9092090Y-65893351D01*
X9207184Y-65807191D01*
X9207192Y-65807183D01*
X9293352Y-65692089D01*
X9293353Y-65692087D01*
X9343596Y-65557380D01*
X9343598Y-65557369D01*
X9350000Y-65497823D01*
X9350000Y-65100916D01*
X9368907Y-65042725D01*
X9418407Y-65006761D01*
X9479593Y-65006761D01*
X9529093Y-65042725D01*
X9537210Y-65055971D01*
X9598766Y-65176785D01*
X9654451Y-65253429D01*
X9700586Y-65316927D01*
X9823072Y-65439413D01*
X9963212Y-65541231D01*
X10117555Y-65619872D01*
X10117557Y-65619872D01*
X10117558Y-65619873D01*
X10117561Y-65619875D01*
X10282293Y-65673400D01*
X10282297Y-65673401D01*
X10453386Y-65700499D01*
X10453389Y-65700499D01*
X10626614Y-65700499D01*
X10797702Y-65673401D01*
X10797706Y-65673400D01*
X10962438Y-65619875D01*
X10962440Y-65619873D01*
X10962445Y-65619872D01*
X11116788Y-65541231D01*
X11256928Y-65439413D01*
X11379414Y-65316927D01*
X11481232Y-65176787D01*
X11559873Y-65022444D01*
X11559874Y-65022439D01*
X11559876Y-65022437D01*
X11613401Y-64857705D01*
X11613402Y-64857701D01*
X11640500Y-64686613D01*
X11640500Y-64513384D01*
X11979500Y-64513384D01*
X11979500Y-64686613D01*
X12006597Y-64857701D01*
X12006598Y-64857705D01*
X12060123Y-65022437D01*
X12060125Y-65022440D01*
X12060126Y-65022443D01*
X12060127Y-65022444D01*
X12138768Y-65176787D01*
X12240586Y-65316927D01*
X12363072Y-65439413D01*
X12363075Y-65439415D01*
X12363077Y-65439417D01*
X12472414Y-65518856D01*
X12508378Y-65568356D01*
X12508377Y-65629541D01*
X12505097Y-65637256D01*
X12505396Y-65637380D01*
X12454500Y-65760252D01*
X12454499Y-65760257D01*
X12429500Y-65885930D01*
X12429500Y-66014069D01*
X12454499Y-66139742D01*
X12454500Y-66139747D01*
X12503534Y-66258125D01*
X12503538Y-66258133D01*
X12546365Y-66322226D01*
X12574724Y-66364669D01*
X12665331Y-66455276D01*
X12724369Y-66494724D01*
X12771866Y-66526461D01*
X12771870Y-66526463D01*
X12771873Y-66526465D01*
X12890256Y-66575501D01*
X13015931Y-66600500D01*
X13015932Y-66600500D01*
X13144068Y-66600500D01*
X13144069Y-66600500D01*
X13269744Y-66575501D01*
X13388127Y-66526465D01*
X13494669Y-66455276D01*
X13585276Y-66364669D01*
X13656465Y-66258127D01*
X13705501Y-66139744D01*
X13730500Y-66014069D01*
X13730500Y-65885931D01*
X13730500Y-65885930D01*
X45624500Y-65885930D01*
X45624500Y-66014069D01*
X45649499Y-66139742D01*
X45649500Y-66139747D01*
X45698534Y-66258125D01*
X45698538Y-66258133D01*
X45741365Y-66322226D01*
X45769724Y-66364669D01*
X45860331Y-66455276D01*
X45919369Y-66494724D01*
X45966866Y-66526461D01*
X45966870Y-66526463D01*
X45966873Y-66526465D01*
X46085256Y-66575501D01*
X46210931Y-66600500D01*
X46210932Y-66600500D01*
X46339068Y-66600500D01*
X46339069Y-66600500D01*
X46464744Y-66575501D01*
X46583127Y-66526465D01*
X46689669Y-66455276D01*
X46780276Y-66364669D01*
X46851465Y-66258127D01*
X46900501Y-66139744D01*
X46925500Y-66014069D01*
X46925500Y-65885931D01*
X46900501Y-65760256D01*
X46851465Y-65641873D01*
X46851463Y-65641870D01*
X46851461Y-65641866D01*
X46813735Y-65585406D01*
X46780276Y-65535331D01*
X46689669Y-65444724D01*
X46647226Y-65416365D01*
X46583133Y-65373538D01*
X46583125Y-65373534D01*
X46464747Y-65324500D01*
X46464745Y-65324499D01*
X46464744Y-65324499D01*
X46339069Y-65299500D01*
X46210931Y-65299500D01*
X46210930Y-65299500D01*
X46148093Y-65311999D01*
X46085256Y-65324499D01*
X46085255Y-65324499D01*
X46085252Y-65324500D01*
X45966874Y-65373534D01*
X45966866Y-65373538D01*
X45860331Y-65444724D01*
X45860327Y-65444727D01*
X45769727Y-65535327D01*
X45769724Y-65535331D01*
X45698538Y-65641866D01*
X45698534Y-65641874D01*
X45649500Y-65760252D01*
X45649499Y-65760257D01*
X45624500Y-65885930D01*
X13730500Y-65885930D01*
X13705501Y-65760256D01*
X13656465Y-65641873D01*
X13654604Y-65637380D01*
X13656834Y-65636456D01*
X13647707Y-65585406D01*
X13674396Y-65530348D01*
X13687584Y-65518856D01*
X13796928Y-65439413D01*
X13919414Y-65316927D01*
X14021232Y-65176787D01*
X14099873Y-65022444D01*
X14099874Y-65022439D01*
X14099876Y-65022437D01*
X14153401Y-64857705D01*
X14153402Y-64857701D01*
X14180500Y-64686613D01*
X14180500Y-64513384D01*
X14153402Y-64342296D01*
X14153401Y-64342292D01*
X14099876Y-64177560D01*
X14099874Y-64177557D01*
X14099873Y-64177556D01*
X14099873Y-64177554D01*
X14021232Y-64023211D01*
X13919414Y-63883071D01*
X13796928Y-63760585D01*
X13776757Y-63745930D01*
X26874500Y-63745930D01*
X26874500Y-63874069D01*
X26899499Y-63999742D01*
X26899500Y-63999747D01*
X26948534Y-64118125D01*
X26948538Y-64118133D01*
X26959190Y-64134074D01*
X27019724Y-64224669D01*
X27110331Y-64315276D01*
X27162296Y-64349998D01*
X27216866Y-64386461D01*
X27216870Y-64386463D01*
X27216873Y-64386465D01*
X27335256Y-64435501D01*
X27460931Y-64460500D01*
X27460932Y-64460500D01*
X27589068Y-64460500D01*
X27589069Y-64460500D01*
X27714744Y-64435501D01*
X27833127Y-64386465D01*
X27939669Y-64315276D01*
X28030276Y-64224669D01*
X28101465Y-64118127D01*
X28150501Y-63999744D01*
X28175500Y-63874069D01*
X28175500Y-63745931D01*
X28175500Y-63745930D01*
X34149500Y-63745930D01*
X34149500Y-63874069D01*
X34174499Y-63999742D01*
X34174500Y-63999747D01*
X34223534Y-64118125D01*
X34223538Y-64118133D01*
X34234190Y-64134074D01*
X34294724Y-64224669D01*
X34385331Y-64315276D01*
X34437296Y-64349998D01*
X34491866Y-64386461D01*
X34491870Y-64386463D01*
X34491873Y-64386465D01*
X34610256Y-64435501D01*
X34735931Y-64460500D01*
X34735932Y-64460500D01*
X34864068Y-64460500D01*
X34864069Y-64460500D01*
X34989744Y-64435501D01*
X35108127Y-64386465D01*
X35214669Y-64315276D01*
X35305276Y-64224669D01*
X35376465Y-64118127D01*
X35425501Y-63999744D01*
X35450500Y-63874069D01*
X35450500Y-63745931D01*
X35425501Y-63620256D01*
X35376465Y-63501873D01*
X35376463Y-63501870D01*
X35376461Y-63501866D01*
X35347717Y-63458848D01*
X35305276Y-63395331D01*
X35214669Y-63304724D01*
X35172226Y-63276365D01*
X35108133Y-63233538D01*
X35108125Y-63233534D01*
X34989747Y-63184500D01*
X34989745Y-63184499D01*
X34989744Y-63184499D01*
X34864069Y-63159500D01*
X34735931Y-63159500D01*
X34735930Y-63159500D01*
X34673093Y-63171999D01*
X34610256Y-63184499D01*
X34610255Y-63184499D01*
X34610252Y-63184500D01*
X34491874Y-63233534D01*
X34491866Y-63233538D01*
X34385331Y-63304724D01*
X34385327Y-63304727D01*
X34294727Y-63395327D01*
X34294724Y-63395331D01*
X34223538Y-63501866D01*
X34223534Y-63501874D01*
X34174500Y-63620252D01*
X34174499Y-63620255D01*
X34174499Y-63620256D01*
X34161999Y-63683093D01*
X34149500Y-63745930D01*
X28175500Y-63745930D01*
X28150501Y-63620256D01*
X28101465Y-63501873D01*
X28101463Y-63501870D01*
X28101461Y-63501866D01*
X28072717Y-63458848D01*
X28030276Y-63395331D01*
X27939669Y-63304724D01*
X27897226Y-63276365D01*
X27833133Y-63233538D01*
X27833125Y-63233534D01*
X27714747Y-63184500D01*
X27714745Y-63184499D01*
X27714744Y-63184499D01*
X27589069Y-63159500D01*
X27460931Y-63159500D01*
X27460930Y-63159500D01*
X27398093Y-63171999D01*
X27335256Y-63184499D01*
X27335255Y-63184499D01*
X27335252Y-63184500D01*
X27216874Y-63233534D01*
X27216866Y-63233538D01*
X27110331Y-63304724D01*
X27110327Y-63304727D01*
X27019727Y-63395327D01*
X27019724Y-63395331D01*
X26948538Y-63501866D01*
X26948534Y-63501874D01*
X26899500Y-63620252D01*
X26899499Y-63620255D01*
X26899499Y-63620256D01*
X26886999Y-63683093D01*
X26874500Y-63745930D01*
X13776757Y-63745930D01*
X13656788Y-63658767D01*
X13656787Y-63658766D01*
X13656785Y-63658765D01*
X13502737Y-63580275D01*
X13502445Y-63580126D01*
X13502444Y-63580125D01*
X13502441Y-63580124D01*
X13502438Y-63580122D01*
X13337706Y-63526597D01*
X13337702Y-63526596D01*
X13166614Y-63499499D01*
X13166611Y-63499499D01*
X12993389Y-63499499D01*
X12993386Y-63499499D01*
X12822297Y-63526596D01*
X12822293Y-63526597D01*
X12657561Y-63580122D01*
X12657558Y-63580124D01*
X12503214Y-63658765D01*
X12363073Y-63760584D01*
X12240585Y-63883072D01*
X12138766Y-64023213D01*
X12060125Y-64177557D01*
X12060123Y-64177560D01*
X12006598Y-64342292D01*
X12006597Y-64342296D01*
X11979500Y-64513384D01*
X11640500Y-64513384D01*
X11613402Y-64342296D01*
X11613401Y-64342292D01*
X11559876Y-64177560D01*
X11559874Y-64177557D01*
X11559873Y-64177556D01*
X11559873Y-64177554D01*
X11481232Y-64023211D01*
X11379414Y-63883071D01*
X11256928Y-63760585D01*
X11116788Y-63658767D01*
X11116787Y-63658766D01*
X11116785Y-63658765D01*
X10962737Y-63580275D01*
X10962445Y-63580126D01*
X10962444Y-63580125D01*
X10962441Y-63580124D01*
X10962438Y-63580122D01*
X10797706Y-63526597D01*
X10797702Y-63526596D01*
X10626614Y-63499499D01*
X10626611Y-63499499D01*
X10453389Y-63499499D01*
X10453386Y-63499499D01*
X10282297Y-63526596D01*
X10282293Y-63526597D01*
X10117561Y-63580122D01*
X10117558Y-63580124D01*
X9963214Y-63658765D01*
X9823073Y-63760584D01*
X9700585Y-63883072D01*
X9598766Y-64023213D01*
X9537210Y-64144026D01*
X9493945Y-64187291D01*
X9433513Y-64196862D01*
X9378997Y-64169085D01*
X9351219Y-64114568D01*
X9350000Y-64099081D01*
X9350000Y-63702174D01*
X9343598Y-63642628D01*
X9343596Y-63642617D01*
X9293353Y-63507910D01*
X9293352Y-63507908D01*
X9207192Y-63392814D01*
X9207184Y-63392806D01*
X9092090Y-63306646D01*
X9092088Y-63306645D01*
X8957381Y-63256402D01*
X8957370Y-63256400D01*
X8897824Y-63249999D01*
X8250001Y-63249999D01*
X8250000Y-63250000D01*
X8250000Y-64166987D01*
X8192993Y-64134074D01*
X8065826Y-64099999D01*
X7934174Y-64099999D01*
X7807007Y-64134074D01*
X7750000Y-64166987D01*
X7750000Y-63250000D01*
X7749999Y-63249999D01*
X7102176Y-63249999D01*
X7042629Y-63256400D01*
X7042618Y-63256402D01*
X6907911Y-63306645D01*
X6907909Y-63306646D01*
X6792815Y-63392806D01*
X6792807Y-63392814D01*
X6706647Y-63507908D01*
X6706646Y-63507910D01*
X6656403Y-63642617D01*
X6656401Y-63642628D01*
X6650000Y-63702174D01*
X6650000Y-64349998D01*
X6650001Y-64349999D01*
X7566988Y-64349999D01*
X7534075Y-64407006D01*
X7500000Y-64534173D01*
X7500000Y-64665825D01*
X7534075Y-64792992D01*
X7566988Y-64849999D01*
X6650001Y-64849999D01*
X6650000Y-64850000D01*
X6650000Y-65497823D01*
X6649999Y-65497823D01*
X500500Y-65497823D01*
X500500Y-63010931D01*
X13824500Y-63010931D01*
X13824500Y-63139069D01*
X13847839Y-63256400D01*
X13849499Y-63264742D01*
X13849500Y-63264747D01*
X13898534Y-63383125D01*
X13898538Y-63383133D01*
X13906689Y-63395331D01*
X13969724Y-63489669D01*
X14060331Y-63580276D01*
X14120159Y-63620252D01*
X14166866Y-63651461D01*
X14166870Y-63651463D01*
X14166873Y-63651465D01*
X14285256Y-63700501D01*
X14410931Y-63725500D01*
X14410932Y-63725500D01*
X14539068Y-63725500D01*
X14539069Y-63725500D01*
X14664744Y-63700501D01*
X14783127Y-63651465D01*
X14889669Y-63580276D01*
X14929996Y-63539949D01*
X14984512Y-63512171D01*
X15044944Y-63521742D01*
X15070004Y-63539949D01*
X15110322Y-63580268D01*
X15110326Y-63580271D01*
X15110331Y-63580276D01*
X15170159Y-63620252D01*
X15216866Y-63651461D01*
X15216870Y-63651463D01*
X15216873Y-63651465D01*
X15335256Y-63700501D01*
X15460931Y-63725500D01*
X15460932Y-63725500D01*
X15589068Y-63725500D01*
X15589069Y-63725500D01*
X15714744Y-63700501D01*
X15833127Y-63651465D01*
X15939669Y-63580276D01*
X16030276Y-63489669D01*
X16101465Y-63383127D01*
X16150501Y-63264744D01*
X16175500Y-63139069D01*
X16175500Y-63010931D01*
X16150501Y-62885256D01*
X16101465Y-62766873D01*
X16101463Y-62766870D01*
X16101461Y-62766866D01*
X16072717Y-62723848D01*
X16030276Y-62660331D01*
X15939669Y-62569724D01*
X15897226Y-62541365D01*
X15833133Y-62498538D01*
X15833125Y-62498534D01*
X15714747Y-62449500D01*
X15714745Y-62449499D01*
X15714744Y-62449499D01*
X15589069Y-62424500D01*
X15460931Y-62424500D01*
X15460930Y-62424500D01*
X15398093Y-62436999D01*
X15335256Y-62449499D01*
X15335255Y-62449499D01*
X15335252Y-62449500D01*
X15216874Y-62498534D01*
X15216866Y-62498538D01*
X15110331Y-62569724D01*
X15110327Y-62569727D01*
X15070004Y-62610051D01*
X15015487Y-62637828D01*
X14955055Y-62628257D01*
X14929996Y-62610051D01*
X14889672Y-62569727D01*
X14889669Y-62569724D01*
X14847226Y-62541365D01*
X14783133Y-62498538D01*
X14783125Y-62498534D01*
X14664747Y-62449500D01*
X14664745Y-62449499D01*
X14664744Y-62449499D01*
X14539069Y-62424500D01*
X14410931Y-62424500D01*
X14410930Y-62424500D01*
X14348093Y-62436999D01*
X14285256Y-62449499D01*
X14285255Y-62449499D01*
X14285252Y-62449500D01*
X14166874Y-62498534D01*
X14166866Y-62498538D01*
X14060331Y-62569724D01*
X14060327Y-62569727D01*
X13969727Y-62660327D01*
X13969724Y-62660331D01*
X13898538Y-62766866D01*
X13898534Y-62766874D01*
X13849500Y-62885252D01*
X13849499Y-62885255D01*
X13849499Y-62885256D01*
X13824500Y-63010931D01*
X500500Y-63010931D01*
X500500Y-59935930D01*
X2824500Y-59935930D01*
X2824500Y-60064069D01*
X2849499Y-60189742D01*
X2849500Y-60189747D01*
X2898534Y-60308125D01*
X2898538Y-60308133D01*
X2941365Y-60372226D01*
X2969724Y-60414669D01*
X3060331Y-60505276D01*
X3123848Y-60547717D01*
X3166866Y-60576461D01*
X3166870Y-60576463D01*
X3166873Y-60576465D01*
X3285256Y-60625501D01*
X3410931Y-60650500D01*
X3410932Y-60650500D01*
X3539068Y-60650500D01*
X3539069Y-60650500D01*
X3664744Y-60625501D01*
X3783127Y-60576465D01*
X3889669Y-60505276D01*
X3929996Y-60464949D01*
X3984512Y-60437171D01*
X4044944Y-60446742D01*
X4070004Y-60464949D01*
X4110322Y-60505268D01*
X4110326Y-60505271D01*
X4110331Y-60505276D01*
X4173848Y-60547717D01*
X4216866Y-60576461D01*
X4216870Y-60576463D01*
X4216873Y-60576465D01*
X4335256Y-60625501D01*
X4460931Y-60650500D01*
X4460932Y-60650500D01*
X4589068Y-60650500D01*
X4589069Y-60650500D01*
X4714744Y-60625501D01*
X4833127Y-60576465D01*
X4939669Y-60505276D01*
X5030276Y-60414669D01*
X5101465Y-60308127D01*
X5150501Y-60189744D01*
X5175500Y-60064069D01*
X5175500Y-59935931D01*
X5175500Y-59935930D01*
X28749500Y-59935930D01*
X28749500Y-60064069D01*
X28774499Y-60189742D01*
X28774500Y-60189747D01*
X28823534Y-60308125D01*
X28823538Y-60308133D01*
X28866365Y-60372226D01*
X28894724Y-60414669D01*
X28985331Y-60505276D01*
X29048848Y-60547717D01*
X29091866Y-60576461D01*
X29091870Y-60576463D01*
X29091873Y-60576465D01*
X29210256Y-60625501D01*
X29335931Y-60650500D01*
X29335932Y-60650500D01*
X29464068Y-60650500D01*
X29464069Y-60650500D01*
X29589744Y-60625501D01*
X29708127Y-60576465D01*
X29814669Y-60505276D01*
X29905276Y-60414669D01*
X29976465Y-60308127D01*
X30025501Y-60189744D01*
X30050500Y-60064069D01*
X30050500Y-59935931D01*
X30025501Y-59810256D01*
X29976465Y-59691873D01*
X29976463Y-59691870D01*
X29976461Y-59691866D01*
X29947717Y-59648848D01*
X29905276Y-59585331D01*
X29814669Y-59494724D01*
X29772226Y-59466365D01*
X29708133Y-59423538D01*
X29708125Y-59423534D01*
X29589747Y-59374500D01*
X29589745Y-59374499D01*
X29589744Y-59374499D01*
X29464069Y-59349500D01*
X29335931Y-59349500D01*
X29335930Y-59349500D01*
X29273093Y-59361999D01*
X29210256Y-59374499D01*
X29210255Y-59374499D01*
X29210252Y-59374500D01*
X29091874Y-59423534D01*
X29091866Y-59423538D01*
X28985331Y-59494724D01*
X28985327Y-59494727D01*
X28894727Y-59585327D01*
X28894724Y-59585331D01*
X28823538Y-59691866D01*
X28823534Y-59691874D01*
X28774500Y-59810252D01*
X28774499Y-59810257D01*
X28749500Y-59935930D01*
X5175500Y-59935930D01*
X5150501Y-59810256D01*
X5101465Y-59691873D01*
X5101463Y-59691870D01*
X5101461Y-59691866D01*
X5072717Y-59648848D01*
X5030276Y-59585331D01*
X4939669Y-59494724D01*
X4897226Y-59466365D01*
X4833133Y-59423538D01*
X4833125Y-59423534D01*
X4714747Y-59374500D01*
X4714745Y-59374499D01*
X4714744Y-59374499D01*
X4589069Y-59349500D01*
X4460931Y-59349500D01*
X4460930Y-59349500D01*
X4398093Y-59361999D01*
X4335256Y-59374499D01*
X4335255Y-59374499D01*
X4335252Y-59374500D01*
X4216874Y-59423534D01*
X4216866Y-59423538D01*
X4110331Y-59494724D01*
X4110327Y-59494727D01*
X4070004Y-59535051D01*
X4015487Y-59562828D01*
X3955055Y-59553257D01*
X3929996Y-59535051D01*
X3889672Y-59494727D01*
X3889669Y-59494724D01*
X3847226Y-59466365D01*
X3783133Y-59423538D01*
X3783125Y-59423534D01*
X3664747Y-59374500D01*
X3664745Y-59374499D01*
X3664744Y-59374499D01*
X3539069Y-59349500D01*
X3410931Y-59349500D01*
X3410930Y-59349500D01*
X3348093Y-59361999D01*
X3285256Y-59374499D01*
X3285255Y-59374499D01*
X3285252Y-59374500D01*
X3166874Y-59423534D01*
X3166866Y-59423538D01*
X3060331Y-59494724D01*
X3060327Y-59494727D01*
X2969727Y-59585327D01*
X2969724Y-59585331D01*
X2898538Y-59691866D01*
X2898534Y-59691874D01*
X2849500Y-59810252D01*
X2849499Y-59810257D01*
X2824500Y-59935930D01*
X500500Y-59935930D01*
X500500Y-56297824D01*
X6649999Y-56297824D01*
X6656401Y-56357370D01*
X6656403Y-56357381D01*
X6706646Y-56492088D01*
X6706647Y-56492090D01*
X6792807Y-56607184D01*
X6792815Y-56607192D01*
X6907909Y-56693352D01*
X6907911Y-56693353D01*
X7042618Y-56743596D01*
X7042629Y-56743598D01*
X7102176Y-56750000D01*
X7749999Y-56750000D01*
X7750000Y-56749999D01*
X7750000Y-55833012D01*
X7807007Y-55865925D01*
X7934174Y-55900000D01*
X8065826Y-55900000D01*
X8192993Y-55865925D01*
X8250000Y-55833012D01*
X8250000Y-56749999D01*
X8250001Y-56750000D01*
X8897824Y-56750000D01*
X8957370Y-56743598D01*
X8957381Y-56743596D01*
X9092088Y-56693353D01*
X9092090Y-56693352D01*
X9207184Y-56607192D01*
X9207192Y-56607184D01*
X9293352Y-56492090D01*
X9293353Y-56492088D01*
X9343596Y-56357381D01*
X9343598Y-56357370D01*
X9350000Y-56297824D01*
X9350000Y-55900917D01*
X9368907Y-55842726D01*
X9418407Y-55806762D01*
X9479593Y-55806762D01*
X9529093Y-55842726D01*
X9537210Y-55855972D01*
X9598766Y-55976786D01*
X9615819Y-56000257D01*
X9700586Y-56116928D01*
X9823072Y-56239414D01*
X9963212Y-56341232D01*
X10117555Y-56419873D01*
X10117557Y-56419873D01*
X10117558Y-56419874D01*
X10117561Y-56419876D01*
X10282293Y-56473401D01*
X10282297Y-56473402D01*
X10453386Y-56500500D01*
X10453389Y-56500500D01*
X10626614Y-56500500D01*
X10797702Y-56473402D01*
X10797706Y-56473401D01*
X10962438Y-56419876D01*
X10962440Y-56419874D01*
X10962445Y-56419873D01*
X11116788Y-56341232D01*
X11256928Y-56239414D01*
X11379414Y-56116928D01*
X11481232Y-55976788D01*
X11559873Y-55822445D01*
X11559874Y-55822440D01*
X11559876Y-55822438D01*
X11613401Y-55657706D01*
X11613402Y-55657702D01*
X11640500Y-55486614D01*
X11640500Y-55313385D01*
X11979500Y-55313385D01*
X11979500Y-55486614D01*
X12006597Y-55657702D01*
X12006598Y-55657706D01*
X12060123Y-55822438D01*
X12060125Y-55822441D01*
X12060126Y-55822444D01*
X12060127Y-55822445D01*
X12138768Y-55976788D01*
X12240586Y-56116928D01*
X12363072Y-56239414D01*
X12503212Y-56341232D01*
X12657555Y-56419873D01*
X12657557Y-56419873D01*
X12657558Y-56419874D01*
X12657561Y-56419876D01*
X12822293Y-56473401D01*
X12822297Y-56473402D01*
X12993386Y-56500500D01*
X12993389Y-56500500D01*
X13166614Y-56500500D01*
X13337702Y-56473402D01*
X13337706Y-56473401D01*
X13502438Y-56419876D01*
X13502440Y-56419874D01*
X13502445Y-56419873D01*
X13656788Y-56341232D01*
X13796928Y-56239414D01*
X13910411Y-56125931D01*
X26874500Y-56125931D01*
X26874500Y-56254069D01*
X26895048Y-56357370D01*
X26899499Y-56379742D01*
X26899500Y-56379747D01*
X26948534Y-56498125D01*
X26948538Y-56498133D01*
X26991365Y-56562226D01*
X27019724Y-56604669D01*
X27110331Y-56695276D01*
X27173848Y-56737717D01*
X27216866Y-56766461D01*
X27216870Y-56766463D01*
X27216873Y-56766465D01*
X27335256Y-56815501D01*
X27460931Y-56840500D01*
X27460932Y-56840500D01*
X27589068Y-56840500D01*
X27589069Y-56840500D01*
X27714744Y-56815501D01*
X27833127Y-56766465D01*
X27939669Y-56695276D01*
X28030276Y-56604669D01*
X28101465Y-56498127D01*
X28150501Y-56379744D01*
X28175500Y-56254069D01*
X28175500Y-56125931D01*
X34149500Y-56125931D01*
X34149500Y-56254069D01*
X34170048Y-56357370D01*
X34174499Y-56379742D01*
X34174500Y-56379747D01*
X34223534Y-56498125D01*
X34223538Y-56498133D01*
X34266365Y-56562226D01*
X34294724Y-56604669D01*
X34385331Y-56695276D01*
X34448848Y-56737717D01*
X34491866Y-56766461D01*
X34491870Y-56766463D01*
X34491873Y-56766465D01*
X34610256Y-56815501D01*
X34735931Y-56840500D01*
X34735932Y-56840500D01*
X34864068Y-56840500D01*
X34864069Y-56840500D01*
X34989744Y-56815501D01*
X35108127Y-56766465D01*
X35214669Y-56695276D01*
X35305276Y-56604669D01*
X35376465Y-56498127D01*
X35425501Y-56379744D01*
X35450500Y-56254069D01*
X35450500Y-56125931D01*
X35425501Y-56000256D01*
X35376465Y-55881873D01*
X35376463Y-55881870D01*
X35376461Y-55881866D01*
X35347717Y-55838848D01*
X35305276Y-55775331D01*
X35214669Y-55684724D01*
X35172226Y-55656365D01*
X35108133Y-55613538D01*
X35108125Y-55613534D01*
X34989747Y-55564500D01*
X34989745Y-55564499D01*
X34989744Y-55564499D01*
X34864069Y-55539500D01*
X34735931Y-55539500D01*
X34735930Y-55539500D01*
X34673093Y-55551999D01*
X34610256Y-55564499D01*
X34610255Y-55564499D01*
X34610252Y-55564500D01*
X34491874Y-55613534D01*
X34491866Y-55613538D01*
X34385331Y-55684724D01*
X34385327Y-55684727D01*
X34294727Y-55775327D01*
X34294724Y-55775331D01*
X34223538Y-55881866D01*
X34223534Y-55881874D01*
X34174500Y-56000252D01*
X34174499Y-56000255D01*
X34174499Y-56000256D01*
X34149500Y-56125931D01*
X28175500Y-56125931D01*
X28150501Y-56000256D01*
X28101465Y-55881873D01*
X28101463Y-55881870D01*
X28101461Y-55881866D01*
X28072717Y-55838848D01*
X28030276Y-55775331D01*
X27939669Y-55684724D01*
X27897226Y-55656365D01*
X27833133Y-55613538D01*
X27833125Y-55613534D01*
X27714747Y-55564500D01*
X27714745Y-55564499D01*
X27714744Y-55564499D01*
X27589069Y-55539500D01*
X27460931Y-55539500D01*
X27460930Y-55539500D01*
X27398093Y-55551999D01*
X27335256Y-55564499D01*
X27335255Y-55564499D01*
X27335252Y-55564500D01*
X27216874Y-55613534D01*
X27216866Y-55613538D01*
X27110331Y-55684724D01*
X27110327Y-55684727D01*
X27019727Y-55775327D01*
X27019724Y-55775331D01*
X26948538Y-55881866D01*
X26948534Y-55881874D01*
X26899500Y-56000252D01*
X26899499Y-56000255D01*
X26899499Y-56000256D01*
X26874500Y-56125931D01*
X13910411Y-56125931D01*
X13919414Y-56116928D01*
X14021232Y-55976788D01*
X14099873Y-55822445D01*
X14099874Y-55822440D01*
X14099876Y-55822438D01*
X14153401Y-55657706D01*
X14153402Y-55657702D01*
X14180500Y-55486614D01*
X14180500Y-55313385D01*
X14153402Y-55142297D01*
X14153401Y-55142293D01*
X14099876Y-54977561D01*
X14099874Y-54977558D01*
X14099873Y-54977557D01*
X14099873Y-54977555D01*
X14021232Y-54823212D01*
X13965084Y-54745931D01*
X62449500Y-54745931D01*
X62449500Y-54874069D01*
X62470086Y-54977561D01*
X62474499Y-54999742D01*
X62474500Y-54999747D01*
X62523534Y-55118125D01*
X62523538Y-55118133D01*
X62566365Y-55182226D01*
X62594724Y-55224669D01*
X62685331Y-55315276D01*
X62748848Y-55357717D01*
X62791866Y-55386461D01*
X62791870Y-55386463D01*
X62791873Y-55386465D01*
X62910256Y-55435501D01*
X63035931Y-55460500D01*
X63035932Y-55460500D01*
X63164068Y-55460500D01*
X63164069Y-55460500D01*
X63289744Y-55435501D01*
X63408127Y-55386465D01*
X63514669Y-55315276D01*
X63605276Y-55224669D01*
X63676465Y-55118127D01*
X63725501Y-54999744D01*
X63750500Y-54874069D01*
X63750500Y-54745931D01*
X63725501Y-54620256D01*
X63676465Y-54501873D01*
X63676463Y-54501870D01*
X63676461Y-54501866D01*
X63636872Y-54442618D01*
X63605276Y-54395331D01*
X63514669Y-54304724D01*
X63472226Y-54276365D01*
X63408133Y-54233538D01*
X63408125Y-54233534D01*
X63289747Y-54184500D01*
X63289745Y-54184499D01*
X63289744Y-54184499D01*
X63164069Y-54159500D01*
X63035931Y-54159500D01*
X63035930Y-54159500D01*
X62973093Y-54171999D01*
X62910256Y-54184499D01*
X62910255Y-54184499D01*
X62910252Y-54184500D01*
X62791874Y-54233534D01*
X62791866Y-54233538D01*
X62685331Y-54304724D01*
X62685327Y-54304727D01*
X62594727Y-54395327D01*
X62594724Y-54395331D01*
X62523538Y-54501866D01*
X62523534Y-54501874D01*
X62474500Y-54620252D01*
X62474499Y-54620255D01*
X62474499Y-54620256D01*
X62449500Y-54745931D01*
X13965084Y-54745931D01*
X13919414Y-54683072D01*
X13796928Y-54560586D01*
X13687584Y-54481142D01*
X13651621Y-54431644D01*
X13651621Y-54370458D01*
X13654909Y-54362746D01*
X13654604Y-54362620D01*
X13680749Y-54299500D01*
X13705501Y-54239744D01*
X13730500Y-54114069D01*
X13730500Y-53985931D01*
X45624500Y-53985931D01*
X45624500Y-54114069D01*
X45640162Y-54192807D01*
X45649499Y-54239742D01*
X45649500Y-54239747D01*
X45698534Y-54358125D01*
X45698538Y-54358133D01*
X45736308Y-54414658D01*
X45769724Y-54464669D01*
X45860331Y-54555276D01*
X45923848Y-54597717D01*
X45966866Y-54626461D01*
X45966870Y-54626463D01*
X45966873Y-54626465D01*
X46085256Y-54675501D01*
X46210931Y-54700500D01*
X46210932Y-54700500D01*
X46339068Y-54700500D01*
X46339069Y-54700500D01*
X46464744Y-54675501D01*
X46583127Y-54626465D01*
X46689669Y-54555276D01*
X46780276Y-54464669D01*
X46851465Y-54358127D01*
X46900501Y-54239744D01*
X46925500Y-54114069D01*
X46925500Y-53985931D01*
X46900501Y-53860256D01*
X46851465Y-53741873D01*
X46851463Y-53741870D01*
X46851461Y-53741866D01*
X46822717Y-53698848D01*
X46780276Y-53635331D01*
X46689669Y-53544724D01*
X46630631Y-53505276D01*
X46583133Y-53473538D01*
X46583125Y-53473534D01*
X46464747Y-53424500D01*
X46464745Y-53424499D01*
X46464744Y-53424499D01*
X46339069Y-53399500D01*
X46210931Y-53399500D01*
X46210930Y-53399500D01*
X46148093Y-53411999D01*
X46085256Y-53424499D01*
X46085255Y-53424499D01*
X46085252Y-53424500D01*
X45966874Y-53473534D01*
X45966866Y-53473538D01*
X45860331Y-53544724D01*
X45860327Y-53544727D01*
X45769727Y-53635327D01*
X45769724Y-53635331D01*
X45698538Y-53741866D01*
X45698534Y-53741874D01*
X45649500Y-53860252D01*
X45649499Y-53860255D01*
X45649499Y-53860256D01*
X45624500Y-53985931D01*
X13730500Y-53985931D01*
X13705501Y-53860256D01*
X13656465Y-53741873D01*
X13656463Y-53741870D01*
X13656461Y-53741866D01*
X13627717Y-53698848D01*
X13585276Y-53635331D01*
X13494669Y-53544724D01*
X13435631Y-53505276D01*
X13388133Y-53473538D01*
X13388125Y-53473534D01*
X13269747Y-53424500D01*
X13269745Y-53424499D01*
X13269744Y-53424499D01*
X13144069Y-53399500D01*
X13015931Y-53399500D01*
X13015930Y-53399500D01*
X12953093Y-53411999D01*
X12890256Y-53424499D01*
X12890255Y-53424499D01*
X12890252Y-53424500D01*
X12771874Y-53473534D01*
X12771866Y-53473538D01*
X12665331Y-53544724D01*
X12665327Y-53544727D01*
X12574727Y-53635327D01*
X12574724Y-53635331D01*
X12503538Y-53741866D01*
X12503534Y-53741874D01*
X12454500Y-53860252D01*
X12454499Y-53860255D01*
X12454499Y-53860256D01*
X12429500Y-53985931D01*
X12429500Y-54114069D01*
X12445162Y-54192807D01*
X12454499Y-54239742D01*
X12454500Y-54239747D01*
X12505396Y-54362620D01*
X12503177Y-54363538D01*
X12512283Y-54414658D01*
X12485557Y-54469698D01*
X12472414Y-54481143D01*
X12363077Y-54560581D01*
X12240585Y-54683073D01*
X12138766Y-54823214D01*
X12060125Y-54977558D01*
X12060123Y-54977561D01*
X12006598Y-55142293D01*
X12006597Y-55142297D01*
X11979500Y-55313385D01*
X11640500Y-55313385D01*
X11613402Y-55142297D01*
X11613401Y-55142293D01*
X11559876Y-54977561D01*
X11559874Y-54977558D01*
X11559873Y-54977557D01*
X11559873Y-54977555D01*
X11481232Y-54823212D01*
X11379414Y-54683072D01*
X11256928Y-54560586D01*
X11116788Y-54458768D01*
X11116787Y-54458767D01*
X11116785Y-54458766D01*
X10962441Y-54380125D01*
X10962438Y-54380123D01*
X10797706Y-54326598D01*
X10797702Y-54326597D01*
X10626614Y-54299500D01*
X10626611Y-54299500D01*
X10453389Y-54299500D01*
X10453386Y-54299500D01*
X10282297Y-54326597D01*
X10282293Y-54326598D01*
X10117561Y-54380123D01*
X10117558Y-54380125D01*
X9963214Y-54458766D01*
X9823073Y-54560585D01*
X9700585Y-54683073D01*
X9598766Y-54823214D01*
X9537210Y-54944027D01*
X9493945Y-54987292D01*
X9433513Y-54996863D01*
X9378997Y-54969086D01*
X9351219Y-54914569D01*
X9350000Y-54899082D01*
X9350000Y-54502175D01*
X9343598Y-54442629D01*
X9343596Y-54442618D01*
X9293353Y-54307911D01*
X9293352Y-54307909D01*
X9207192Y-54192815D01*
X9207184Y-54192807D01*
X9092090Y-54106647D01*
X9092088Y-54106646D01*
X8957381Y-54056403D01*
X8957370Y-54056401D01*
X8897824Y-54050000D01*
X8250001Y-54050000D01*
X8250000Y-54050001D01*
X8250000Y-54966988D01*
X8192993Y-54934075D01*
X8065826Y-54900000D01*
X7934174Y-54900000D01*
X7807007Y-54934075D01*
X7750000Y-54966988D01*
X7750000Y-54050001D01*
X7749999Y-54050000D01*
X7102176Y-54050000D01*
X7042629Y-54056401D01*
X7042618Y-54056403D01*
X6907911Y-54106646D01*
X6907909Y-54106647D01*
X6792815Y-54192807D01*
X6792807Y-54192815D01*
X6706647Y-54307909D01*
X6706646Y-54307911D01*
X6656403Y-54442618D01*
X6656401Y-54442629D01*
X6650000Y-54502175D01*
X6650000Y-55149999D01*
X6650001Y-55150000D01*
X7566988Y-55150000D01*
X7534075Y-55207007D01*
X7500000Y-55334174D01*
X7500000Y-55465826D01*
X7534075Y-55592993D01*
X7566988Y-55650000D01*
X6650001Y-55650000D01*
X6650000Y-55650001D01*
X6650000Y-56297824D01*
X6649999Y-56297824D01*
X500500Y-56297824D01*
X500500Y-52935930D01*
X31499500Y-52935930D01*
X31499500Y-53064069D01*
X31524499Y-53189742D01*
X31524500Y-53189747D01*
X31573534Y-53308125D01*
X31573538Y-53308133D01*
X31616365Y-53372226D01*
X31644724Y-53414669D01*
X31735331Y-53505276D01*
X31794369Y-53544724D01*
X31841866Y-53576461D01*
X31841870Y-53576463D01*
X31841873Y-53576465D01*
X31960256Y-53625501D01*
X32085931Y-53650500D01*
X32085932Y-53650500D01*
X32214068Y-53650500D01*
X32214069Y-53650500D01*
X32339744Y-53625501D01*
X32458127Y-53576465D01*
X32564669Y-53505276D01*
X32655276Y-53414669D01*
X32726465Y-53308127D01*
X32775501Y-53189744D01*
X32800500Y-53064069D01*
X32800500Y-52935931D01*
X32800500Y-52935930D01*
X35624500Y-52935930D01*
X35624500Y-53064069D01*
X35649499Y-53189742D01*
X35649500Y-53189747D01*
X35698534Y-53308125D01*
X35698538Y-53308133D01*
X35741365Y-53372226D01*
X35769724Y-53414669D01*
X35860331Y-53505276D01*
X35919369Y-53544724D01*
X35966866Y-53576461D01*
X35966870Y-53576463D01*
X35966873Y-53576465D01*
X36085256Y-53625501D01*
X36210931Y-53650500D01*
X36210932Y-53650500D01*
X36339068Y-53650500D01*
X36339069Y-53650500D01*
X36464744Y-53625501D01*
X36583127Y-53576465D01*
X36689669Y-53505276D01*
X36780276Y-53414669D01*
X36851465Y-53308127D01*
X36900501Y-53189744D01*
X36925500Y-53064069D01*
X36925500Y-52935931D01*
X36900501Y-52810256D01*
X36851465Y-52691873D01*
X36851463Y-52691870D01*
X36851461Y-52691866D01*
X36822717Y-52648848D01*
X36780276Y-52585331D01*
X36689669Y-52494724D01*
X36647226Y-52466365D01*
X36583133Y-52423538D01*
X36583125Y-52423534D01*
X36464747Y-52374500D01*
X36464745Y-52374499D01*
X36464744Y-52374499D01*
X36339069Y-52349500D01*
X36210931Y-52349500D01*
X36210930Y-52349500D01*
X36148093Y-52361999D01*
X36085256Y-52374499D01*
X36085255Y-52374499D01*
X36085252Y-52374500D01*
X35966874Y-52423534D01*
X35966866Y-52423538D01*
X35860331Y-52494724D01*
X35860327Y-52494727D01*
X35769727Y-52585327D01*
X35769724Y-52585331D01*
X35698538Y-52691866D01*
X35698534Y-52691874D01*
X35649500Y-52810252D01*
X35649499Y-52810257D01*
X35624500Y-52935930D01*
X32800500Y-52935930D01*
X32775501Y-52810256D01*
X32726465Y-52691873D01*
X32726463Y-52691870D01*
X32726461Y-52691866D01*
X32697717Y-52648848D01*
X32655276Y-52585331D01*
X32564669Y-52494724D01*
X32522226Y-52466365D01*
X32458133Y-52423538D01*
X32458125Y-52423534D01*
X32339747Y-52374500D01*
X32339745Y-52374499D01*
X32339744Y-52374499D01*
X32214069Y-52349500D01*
X32085931Y-52349500D01*
X32085930Y-52349500D01*
X32023093Y-52361999D01*
X31960256Y-52374499D01*
X31960255Y-52374499D01*
X31960252Y-52374500D01*
X31841874Y-52423534D01*
X31841866Y-52423538D01*
X31735331Y-52494724D01*
X31735327Y-52494727D01*
X31644727Y-52585327D01*
X31644724Y-52585331D01*
X31573538Y-52691866D01*
X31573534Y-52691874D01*
X31524500Y-52810252D01*
X31524499Y-52810257D01*
X31499500Y-52935930D01*
X500500Y-52935930D01*
X500500Y-50935930D01*
X58649500Y-50935930D01*
X58649500Y-51064069D01*
X58674499Y-51189742D01*
X58674500Y-51189747D01*
X58723534Y-51308125D01*
X58723538Y-51308133D01*
X58766365Y-51372226D01*
X58794724Y-51414669D01*
X58885331Y-51505276D01*
X58948848Y-51547717D01*
X58991866Y-51576461D01*
X58991870Y-51576463D01*
X58991873Y-51576465D01*
X59110256Y-51625501D01*
X59235931Y-51650500D01*
X59235932Y-51650500D01*
X59364068Y-51650500D01*
X59364069Y-51650500D01*
X59489744Y-51625501D01*
X59608127Y-51576465D01*
X59714669Y-51505276D01*
X59805276Y-51414669D01*
X59876465Y-51308127D01*
X59925501Y-51189744D01*
X59950500Y-51064069D01*
X59950500Y-50935931D01*
X59925501Y-50810256D01*
X59876465Y-50691873D01*
X59876463Y-50691870D01*
X59876461Y-50691866D01*
X59847717Y-50648848D01*
X59805276Y-50585331D01*
X59714669Y-50494724D01*
X59672226Y-50466365D01*
X59608133Y-50423538D01*
X59608125Y-50423534D01*
X59489747Y-50374500D01*
X59489745Y-50374499D01*
X59489744Y-50374499D01*
X59364069Y-50349500D01*
X59235931Y-50349500D01*
X59235930Y-50349500D01*
X59173093Y-50361999D01*
X59110256Y-50374499D01*
X59110255Y-50374499D01*
X59110252Y-50374500D01*
X58991874Y-50423534D01*
X58991866Y-50423538D01*
X58885331Y-50494724D01*
X58885327Y-50494727D01*
X58794727Y-50585327D01*
X58794724Y-50585331D01*
X58723538Y-50691866D01*
X58723534Y-50691874D01*
X58674500Y-50810252D01*
X58674499Y-50810257D01*
X58649500Y-50935930D01*
X500500Y-50935930D01*
X500500Y-49665930D01*
X64249500Y-49665930D01*
X64249500Y-49794069D01*
X64274499Y-49919742D01*
X64274500Y-49919747D01*
X64323534Y-50038125D01*
X64323538Y-50038133D01*
X64366365Y-50102226D01*
X64394724Y-50144669D01*
X64485331Y-50235276D01*
X64548848Y-50277717D01*
X64591866Y-50306461D01*
X64591870Y-50306463D01*
X64591873Y-50306465D01*
X64710256Y-50355501D01*
X64835931Y-50380500D01*
X64835932Y-50380500D01*
X64964068Y-50380500D01*
X64964069Y-50380500D01*
X65089744Y-50355501D01*
X65208127Y-50306465D01*
X65314669Y-50235276D01*
X65405276Y-50144669D01*
X65476465Y-50038127D01*
X65525501Y-49919744D01*
X65550500Y-49794069D01*
X65550500Y-49665931D01*
X65525501Y-49540256D01*
X65476465Y-49421873D01*
X65476463Y-49421870D01*
X65476461Y-49421866D01*
X65447717Y-49378848D01*
X65405276Y-49315331D01*
X65314669Y-49224724D01*
X65272226Y-49196365D01*
X65208133Y-49153538D01*
X65208125Y-49153534D01*
X65089747Y-49104500D01*
X65089745Y-49104499D01*
X65089744Y-49104499D01*
X64964069Y-49079500D01*
X64835931Y-49079500D01*
X64835930Y-49079500D01*
X64773093Y-49091999D01*
X64710256Y-49104499D01*
X64710255Y-49104499D01*
X64710252Y-49104500D01*
X64591874Y-49153534D01*
X64591866Y-49153538D01*
X64485331Y-49224724D01*
X64485327Y-49224727D01*
X64394727Y-49315327D01*
X64394724Y-49315331D01*
X64323538Y-49421866D01*
X64323534Y-49421874D01*
X64274500Y-49540252D01*
X64274499Y-49540257D01*
X64249500Y-49665930D01*
X500500Y-49665930D01*
X500500Y-47870930D01*
X69749500Y-47870930D01*
X69749500Y-47999069D01*
X69774499Y-48124742D01*
X69774500Y-48124747D01*
X69823534Y-48243125D01*
X69823538Y-48243133D01*
X69866365Y-48307226D01*
X69894724Y-48349669D01*
X69894727Y-48349672D01*
X69935051Y-48389996D01*
X69962828Y-48444513D01*
X69953257Y-48504945D01*
X69935051Y-48530004D01*
X69894727Y-48570327D01*
X69894724Y-48570331D01*
X69823538Y-48676866D01*
X69823534Y-48676874D01*
X69774500Y-48795252D01*
X69774499Y-48795257D01*
X69749500Y-48920930D01*
X69749500Y-49049069D01*
X69774499Y-49174742D01*
X69774500Y-49174747D01*
X69823534Y-49293125D01*
X69823538Y-49293133D01*
X69838371Y-49315331D01*
X69894724Y-49399669D01*
X69985331Y-49490276D01*
X70048848Y-49532717D01*
X70091866Y-49561461D01*
X70091870Y-49561463D01*
X70091873Y-49561465D01*
X70210256Y-49610501D01*
X70335931Y-49635500D01*
X70335932Y-49635500D01*
X70464068Y-49635500D01*
X70464069Y-49635500D01*
X70589744Y-49610501D01*
X70708127Y-49561465D01*
X70814669Y-49490276D01*
X70905276Y-49399669D01*
X70976465Y-49293127D01*
X71025501Y-49174744D01*
X71050500Y-49049069D01*
X71050500Y-48920931D01*
X71025501Y-48795256D01*
X70976465Y-48676873D01*
X70976463Y-48676870D01*
X70976461Y-48676866D01*
X70947717Y-48633848D01*
X70905276Y-48570331D01*
X70905271Y-48570326D01*
X70905268Y-48570322D01*
X70864949Y-48530004D01*
X70837171Y-48475488D01*
X70846742Y-48415056D01*
X70864949Y-48389996D01*
X70905268Y-48349677D01*
X70905276Y-48349669D01*
X70976465Y-48243127D01*
X71025501Y-48124744D01*
X71050500Y-47999069D01*
X71050500Y-47870931D01*
X71025501Y-47745256D01*
X70976465Y-47626873D01*
X70976463Y-47626870D01*
X70976461Y-47626866D01*
X70947717Y-47583848D01*
X70905276Y-47520331D01*
X70814669Y-47429724D01*
X70772226Y-47401365D01*
X70708133Y-47358538D01*
X70708125Y-47358534D01*
X70589747Y-47309500D01*
X70589745Y-47309499D01*
X70589744Y-47309499D01*
X70464069Y-47284500D01*
X70335931Y-47284500D01*
X70335930Y-47284500D01*
X70273093Y-47296999D01*
X70210256Y-47309499D01*
X70210255Y-47309499D01*
X70210252Y-47309500D01*
X70091874Y-47358534D01*
X70091866Y-47358538D01*
X69985331Y-47429724D01*
X69985327Y-47429727D01*
X69894727Y-47520327D01*
X69894724Y-47520331D01*
X69823538Y-47626866D01*
X69823534Y-47626874D01*
X69774500Y-47745252D01*
X69774499Y-47745257D01*
X69749500Y-47870930D01*
X500500Y-47870930D01*
X500500Y-47125930D01*
X67349500Y-47125930D01*
X67349500Y-47254069D01*
X67374499Y-47379742D01*
X67374500Y-47379747D01*
X67423534Y-47498125D01*
X67423538Y-47498133D01*
X67438371Y-47520331D01*
X67494724Y-47604669D01*
X67585331Y-47695276D01*
X67648848Y-47737717D01*
X67691866Y-47766461D01*
X67691870Y-47766463D01*
X67691873Y-47766465D01*
X67810256Y-47815501D01*
X67935931Y-47840500D01*
X67935932Y-47840500D01*
X68064068Y-47840500D01*
X68064069Y-47840500D01*
X68189744Y-47815501D01*
X68308127Y-47766465D01*
X68414669Y-47695276D01*
X68505276Y-47604669D01*
X68576465Y-47498127D01*
X68625501Y-47379744D01*
X68650500Y-47254069D01*
X68650500Y-47125931D01*
X68625501Y-47000256D01*
X68576465Y-46881873D01*
X68576463Y-46881870D01*
X68576461Y-46881866D01*
X68547717Y-46838848D01*
X68505276Y-46775331D01*
X68414669Y-46684724D01*
X68372226Y-46656365D01*
X68308133Y-46613538D01*
X68308125Y-46613534D01*
X68189747Y-46564500D01*
X68189745Y-46564499D01*
X68189744Y-46564499D01*
X68064069Y-46539500D01*
X67935931Y-46539500D01*
X67935930Y-46539500D01*
X67873093Y-46551999D01*
X67810256Y-46564499D01*
X67810255Y-46564499D01*
X67810252Y-46564500D01*
X67691874Y-46613534D01*
X67691866Y-46613538D01*
X67585331Y-46684724D01*
X67585327Y-46684727D01*
X67494727Y-46775327D01*
X67494724Y-46775331D01*
X67423538Y-46881866D01*
X67423534Y-46881874D01*
X67374500Y-47000252D01*
X67374499Y-47000257D01*
X67349500Y-47125930D01*
X500500Y-47125930D01*
X500500Y-45435930D01*
X58649500Y-45435930D01*
X58649500Y-45564069D01*
X58674499Y-45689742D01*
X58674500Y-45689747D01*
X58723534Y-45808125D01*
X58723538Y-45808133D01*
X58766365Y-45872226D01*
X58794724Y-45914669D01*
X58885331Y-46005276D01*
X58948848Y-46047717D01*
X58991866Y-46076461D01*
X58991870Y-46076463D01*
X58991873Y-46076465D01*
X59110256Y-46125501D01*
X59235931Y-46150500D01*
X59235932Y-46150500D01*
X59364068Y-46150500D01*
X59364069Y-46150500D01*
X59489744Y-46125501D01*
X59608127Y-46076465D01*
X59714669Y-46005276D01*
X59805276Y-45914669D01*
X59876465Y-45808127D01*
X59925501Y-45689744D01*
X59950500Y-45564069D01*
X59950500Y-45435931D01*
X59925501Y-45310256D01*
X59876465Y-45191873D01*
X59876463Y-45191870D01*
X59876461Y-45191866D01*
X59847717Y-45148848D01*
X59805276Y-45085331D01*
X59714669Y-44994724D01*
X59672226Y-44966365D01*
X59608133Y-44923538D01*
X59608125Y-44923534D01*
X59489747Y-44874500D01*
X59489745Y-44874499D01*
X59489744Y-44874499D01*
X59364069Y-44849500D01*
X59235931Y-44849500D01*
X59235930Y-44849500D01*
X59173093Y-44861999D01*
X59110256Y-44874499D01*
X59110255Y-44874499D01*
X59110252Y-44874500D01*
X58991874Y-44923534D01*
X58991866Y-44923538D01*
X58885331Y-44994724D01*
X58885327Y-44994727D01*
X58794727Y-45085327D01*
X58794724Y-45085331D01*
X58723538Y-45191866D01*
X58723534Y-45191874D01*
X58674500Y-45310252D01*
X58674499Y-45310257D01*
X58649500Y-45435930D01*
X500500Y-45435930D01*
X500500Y-43935930D01*
X31499500Y-43935930D01*
X31499500Y-44064069D01*
X31524499Y-44189742D01*
X31524500Y-44189747D01*
X31573534Y-44308125D01*
X31573538Y-44308133D01*
X31616365Y-44372226D01*
X31644724Y-44414669D01*
X31735331Y-44505276D01*
X31798848Y-44547717D01*
X31841866Y-44576461D01*
X31841870Y-44576463D01*
X31841873Y-44576465D01*
X31960256Y-44625501D01*
X32085931Y-44650500D01*
X32085932Y-44650500D01*
X32214068Y-44650500D01*
X32214069Y-44650500D01*
X32339744Y-44625501D01*
X32458127Y-44576465D01*
X32564669Y-44505276D01*
X32655276Y-44414669D01*
X32726465Y-44308127D01*
X32775501Y-44189744D01*
X32800500Y-44064069D01*
X32800500Y-43935931D01*
X32800500Y-43935930D01*
X35624500Y-43935930D01*
X35624500Y-44064069D01*
X35649499Y-44189742D01*
X35649500Y-44189747D01*
X35698534Y-44308125D01*
X35698538Y-44308133D01*
X35741365Y-44372226D01*
X35769724Y-44414669D01*
X35860331Y-44505276D01*
X35923848Y-44547717D01*
X35966866Y-44576461D01*
X35966870Y-44576463D01*
X35966873Y-44576465D01*
X36085256Y-44625501D01*
X36210931Y-44650500D01*
X36210932Y-44650500D01*
X36339068Y-44650500D01*
X36339069Y-44650500D01*
X36464744Y-44625501D01*
X36583127Y-44576465D01*
X36689669Y-44505276D01*
X36780276Y-44414669D01*
X36851465Y-44308127D01*
X36900501Y-44189744D01*
X36925500Y-44064069D01*
X36925500Y-43935931D01*
X36900501Y-43810256D01*
X36851465Y-43691873D01*
X36851463Y-43691870D01*
X36851461Y-43691866D01*
X36822717Y-43648848D01*
X36780276Y-43585331D01*
X36689669Y-43494724D01*
X36630631Y-43455276D01*
X36583133Y-43423538D01*
X36583125Y-43423534D01*
X36464747Y-43374500D01*
X36464745Y-43374499D01*
X36464744Y-43374499D01*
X36339069Y-43349500D01*
X36210931Y-43349500D01*
X36210930Y-43349500D01*
X36148093Y-43361999D01*
X36085256Y-43374499D01*
X36085255Y-43374499D01*
X36085252Y-43374500D01*
X35966874Y-43423534D01*
X35966866Y-43423538D01*
X35860331Y-43494724D01*
X35860327Y-43494727D01*
X35769727Y-43585327D01*
X35769724Y-43585331D01*
X35698538Y-43691866D01*
X35698534Y-43691874D01*
X35649500Y-43810252D01*
X35649499Y-43810257D01*
X35624500Y-43935930D01*
X32800500Y-43935930D01*
X32775501Y-43810256D01*
X32726465Y-43691873D01*
X32726463Y-43691870D01*
X32726461Y-43691866D01*
X32697717Y-43648848D01*
X32655276Y-43585331D01*
X32564669Y-43494724D01*
X32505631Y-43455276D01*
X32458133Y-43423538D01*
X32458125Y-43423534D01*
X32339747Y-43374500D01*
X32339745Y-43374499D01*
X32339744Y-43374499D01*
X32214069Y-43349500D01*
X32085931Y-43349500D01*
X32085930Y-43349500D01*
X32023093Y-43361999D01*
X31960256Y-43374499D01*
X31960255Y-43374499D01*
X31960252Y-43374500D01*
X31841874Y-43423534D01*
X31841866Y-43423538D01*
X31735331Y-43494724D01*
X31735327Y-43494727D01*
X31644727Y-43585327D01*
X31644724Y-43585331D01*
X31573538Y-43691866D01*
X31573534Y-43691874D01*
X31524500Y-43810252D01*
X31524499Y-43810257D01*
X31499500Y-43935930D01*
X500500Y-43935930D01*
X500500Y-42497824D01*
X6649999Y-42497824D01*
X6656401Y-42557370D01*
X6656403Y-42557381D01*
X6706646Y-42692088D01*
X6706647Y-42692090D01*
X6792807Y-42807184D01*
X6792815Y-42807192D01*
X6907909Y-42893352D01*
X6907911Y-42893353D01*
X7042618Y-42943596D01*
X7042629Y-42943598D01*
X7102176Y-42950000D01*
X7749999Y-42950000D01*
X7750000Y-42949999D01*
X7750000Y-42033012D01*
X7807007Y-42065925D01*
X7934174Y-42100000D01*
X8065826Y-42100000D01*
X8192993Y-42065925D01*
X8250000Y-42033012D01*
X8250000Y-42949999D01*
X8250001Y-42950000D01*
X8897824Y-42950000D01*
X8957370Y-42943598D01*
X8957381Y-42943596D01*
X9092088Y-42893353D01*
X9092090Y-42893352D01*
X9207184Y-42807192D01*
X9207192Y-42807184D01*
X9293352Y-42692090D01*
X9293353Y-42692088D01*
X9343596Y-42557381D01*
X9343598Y-42557370D01*
X9350000Y-42497824D01*
X9350000Y-42100917D01*
X9368907Y-42042726D01*
X9418407Y-42006762D01*
X9479593Y-42006762D01*
X9529093Y-42042726D01*
X9537210Y-42055972D01*
X9598766Y-42176786D01*
X9654451Y-42253430D01*
X9700586Y-42316928D01*
X9823072Y-42439414D01*
X9963212Y-42541232D01*
X10117555Y-42619873D01*
X10117557Y-42619873D01*
X10117558Y-42619874D01*
X10117561Y-42619876D01*
X10282293Y-42673401D01*
X10282297Y-42673402D01*
X10453386Y-42700500D01*
X10453389Y-42700500D01*
X10626614Y-42700500D01*
X10797702Y-42673402D01*
X10797706Y-42673401D01*
X10962438Y-42619876D01*
X10962440Y-42619874D01*
X10962445Y-42619873D01*
X11116788Y-42541232D01*
X11256928Y-42439414D01*
X11379414Y-42316928D01*
X11481232Y-42176788D01*
X11559873Y-42022445D01*
X11559874Y-42022440D01*
X11559876Y-42022438D01*
X11613401Y-41857706D01*
X11613402Y-41857702D01*
X11640500Y-41686614D01*
X11640500Y-41513385D01*
X11979500Y-41513385D01*
X11979500Y-41686614D01*
X12006597Y-41857702D01*
X12006598Y-41857706D01*
X12060123Y-42022438D01*
X12060125Y-42022441D01*
X12060126Y-42022444D01*
X12060127Y-42022445D01*
X12138768Y-42176788D01*
X12240586Y-42316928D01*
X12363072Y-42439414D01*
X12472415Y-42518856D01*
X12508378Y-42568355D01*
X12508378Y-42629541D01*
X12505098Y-42637256D01*
X12505396Y-42637380D01*
X12454500Y-42760252D01*
X12454499Y-42760255D01*
X12454499Y-42760256D01*
X12429500Y-42885931D01*
X12429500Y-43014069D01*
X12451665Y-43125499D01*
X12454499Y-43139742D01*
X12454500Y-43139747D01*
X12503534Y-43258125D01*
X12503538Y-43258133D01*
X12546365Y-43322226D01*
X12574724Y-43364669D01*
X12665331Y-43455276D01*
X12724369Y-43494724D01*
X12771866Y-43526461D01*
X12771870Y-43526463D01*
X12771873Y-43526465D01*
X12890256Y-43575501D01*
X13015931Y-43600500D01*
X13015932Y-43600500D01*
X13144068Y-43600500D01*
X13144069Y-43600500D01*
X13269744Y-43575501D01*
X13388127Y-43526465D01*
X13494669Y-43455276D01*
X13585276Y-43364669D01*
X13656465Y-43258127D01*
X13705501Y-43139744D01*
X13730500Y-43014069D01*
X13730500Y-42885931D01*
X45624500Y-42885931D01*
X45624500Y-43014069D01*
X45646665Y-43125499D01*
X45649499Y-43139742D01*
X45649500Y-43139747D01*
X45698534Y-43258125D01*
X45698538Y-43258133D01*
X45741365Y-43322226D01*
X45769724Y-43364669D01*
X45860331Y-43455276D01*
X45919369Y-43494724D01*
X45966866Y-43526461D01*
X45966870Y-43526463D01*
X45966873Y-43526465D01*
X46085256Y-43575501D01*
X46210931Y-43600500D01*
X46210932Y-43600500D01*
X46339068Y-43600500D01*
X46339069Y-43600500D01*
X46464744Y-43575501D01*
X46583127Y-43526465D01*
X46689669Y-43455276D01*
X46780276Y-43364669D01*
X46851465Y-43258127D01*
X46900501Y-43139744D01*
X46925500Y-43014069D01*
X46925500Y-42885931D01*
X46900501Y-42760256D01*
X46851465Y-42641873D01*
X46851463Y-42641870D01*
X46851461Y-42641866D01*
X46810307Y-42580276D01*
X46780276Y-42535331D01*
X46689669Y-42444724D01*
X46676509Y-42435931D01*
X58649500Y-42435931D01*
X58649500Y-42564069D01*
X58671248Y-42673402D01*
X58674499Y-42689742D01*
X58674500Y-42689747D01*
X58723534Y-42808125D01*
X58723538Y-42808133D01*
X58766365Y-42872226D01*
X58794724Y-42914669D01*
X58885331Y-43005276D01*
X58948848Y-43047717D01*
X58991866Y-43076461D01*
X58991870Y-43076463D01*
X58991873Y-43076465D01*
X59110256Y-43125501D01*
X59235931Y-43150500D01*
X59235932Y-43150500D01*
X59364068Y-43150500D01*
X59364069Y-43150500D01*
X59489744Y-43125501D01*
X59608127Y-43076465D01*
X59714669Y-43005276D01*
X59805276Y-42914669D01*
X59876465Y-42808127D01*
X59925501Y-42689744D01*
X59950500Y-42564069D01*
X59950500Y-42435931D01*
X59925501Y-42310256D01*
X59876465Y-42191873D01*
X59876463Y-42191870D01*
X59876461Y-42191866D01*
X59847717Y-42148848D01*
X59805276Y-42085331D01*
X59730876Y-42010931D01*
X71824500Y-42010931D01*
X71824500Y-42139069D01*
X71832002Y-42176785D01*
X71849499Y-42264742D01*
X71849500Y-42264747D01*
X71898534Y-42383125D01*
X71898538Y-42383133D01*
X71933817Y-42435930D01*
X71969724Y-42489669D01*
X72060331Y-42580276D01*
X72119592Y-42619873D01*
X72166866Y-42651461D01*
X72166870Y-42651463D01*
X72166873Y-42651465D01*
X72285256Y-42700501D01*
X72410931Y-42725500D01*
X72410932Y-42725500D01*
X72539068Y-42725500D01*
X72539069Y-42725500D01*
X72664744Y-42700501D01*
X72783127Y-42651465D01*
X72889669Y-42580276D01*
X72929996Y-42539949D01*
X72984512Y-42512171D01*
X73044944Y-42521742D01*
X73070004Y-42539949D01*
X73110322Y-42580268D01*
X73110326Y-42580271D01*
X73110331Y-42580276D01*
X73169592Y-42619873D01*
X73216866Y-42651461D01*
X73216870Y-42651463D01*
X73216873Y-42651465D01*
X73335256Y-42700501D01*
X73460931Y-42725500D01*
X73460932Y-42725500D01*
X73589068Y-42725500D01*
X73589069Y-42725500D01*
X73714744Y-42700501D01*
X73833127Y-42651465D01*
X73939669Y-42580276D01*
X74030276Y-42489669D01*
X74101465Y-42383127D01*
X74150501Y-42264744D01*
X74175500Y-42139069D01*
X74175500Y-42010931D01*
X74150501Y-41885256D01*
X74101465Y-41766873D01*
X74101463Y-41766870D01*
X74101461Y-41766866D01*
X74072717Y-41723848D01*
X74030276Y-41660331D01*
X73939669Y-41569724D01*
X73886465Y-41534174D01*
X73833133Y-41498538D01*
X73833125Y-41498534D01*
X73714747Y-41449500D01*
X73714745Y-41449499D01*
X73714744Y-41449499D01*
X73589069Y-41424500D01*
X73460931Y-41424500D01*
X73460930Y-41424500D01*
X73405637Y-41435499D01*
X73335256Y-41449499D01*
X73335255Y-41449499D01*
X73335252Y-41449500D01*
X73216874Y-41498534D01*
X73216866Y-41498538D01*
X73110331Y-41569724D01*
X73110327Y-41569727D01*
X73070004Y-41610051D01*
X73015487Y-41637828D01*
X72955055Y-41628257D01*
X72929996Y-41610051D01*
X72889672Y-41569727D01*
X72889669Y-41569724D01*
X72836465Y-41534174D01*
X72783133Y-41498538D01*
X72783125Y-41498534D01*
X72664747Y-41449500D01*
X72664745Y-41449499D01*
X72664744Y-41449499D01*
X72539069Y-41424500D01*
X72410931Y-41424500D01*
X72410930Y-41424500D01*
X72355637Y-41435499D01*
X72285256Y-41449499D01*
X72285255Y-41449499D01*
X72285252Y-41449500D01*
X72166874Y-41498534D01*
X72166866Y-41498538D01*
X72060331Y-41569724D01*
X72060327Y-41569727D01*
X71969727Y-41660327D01*
X71969724Y-41660331D01*
X71898538Y-41766866D01*
X71898534Y-41766874D01*
X71849500Y-41885252D01*
X71849499Y-41885255D01*
X71849499Y-41885256D01*
X71824500Y-42010931D01*
X59730876Y-42010931D01*
X59714669Y-41994724D01*
X59672226Y-41966365D01*
X59608133Y-41923538D01*
X59608125Y-41923534D01*
X59489747Y-41874500D01*
X59489745Y-41874499D01*
X59489744Y-41874499D01*
X59364069Y-41849500D01*
X59235931Y-41849500D01*
X59235930Y-41849500D01*
X59173093Y-41861999D01*
X59110256Y-41874499D01*
X59110255Y-41874499D01*
X59110252Y-41874500D01*
X58991874Y-41923534D01*
X58991866Y-41923538D01*
X58885331Y-41994724D01*
X58885327Y-41994727D01*
X58794727Y-42085327D01*
X58794724Y-42085331D01*
X58723538Y-42191866D01*
X58723534Y-42191874D01*
X58674500Y-42310252D01*
X58674499Y-42310255D01*
X58674499Y-42310256D01*
X58649500Y-42435931D01*
X46676509Y-42435931D01*
X46647226Y-42416365D01*
X46583133Y-42373538D01*
X46583125Y-42373534D01*
X46464747Y-42324500D01*
X46464745Y-42324499D01*
X46464744Y-42324499D01*
X46339069Y-42299500D01*
X46210931Y-42299500D01*
X46210930Y-42299500D01*
X46156858Y-42310256D01*
X46085256Y-42324499D01*
X46085255Y-42324499D01*
X46085252Y-42324500D01*
X45966874Y-42373534D01*
X45966866Y-42373538D01*
X45860331Y-42444724D01*
X45860327Y-42444727D01*
X45769727Y-42535327D01*
X45769724Y-42535331D01*
X45698538Y-42641866D01*
X45698534Y-42641874D01*
X45649500Y-42760252D01*
X45649499Y-42760255D01*
X45649499Y-42760256D01*
X45624500Y-42885931D01*
X13730500Y-42885931D01*
X13705501Y-42760256D01*
X13660438Y-42651465D01*
X13654604Y-42637380D01*
X13656834Y-42636456D01*
X13647707Y-42585406D01*
X13674396Y-42530348D01*
X13687579Y-42518860D01*
X13796928Y-42439414D01*
X13919414Y-42316928D01*
X14021232Y-42176788D01*
X14099873Y-42022445D01*
X14099874Y-42022440D01*
X14099876Y-42022438D01*
X14153401Y-41857706D01*
X14153402Y-41857702D01*
X14180500Y-41686614D01*
X14180500Y-41513385D01*
X14153402Y-41342297D01*
X14153401Y-41342293D01*
X14099876Y-41177561D01*
X14099874Y-41177558D01*
X14099873Y-41177557D01*
X14099873Y-41177555D01*
X14021232Y-41023212D01*
X13919414Y-40883072D01*
X13796928Y-40760586D01*
X13776756Y-40745930D01*
X26874500Y-40745930D01*
X26874500Y-40874069D01*
X26899499Y-40999742D01*
X26899500Y-40999747D01*
X26948534Y-41118125D01*
X26948538Y-41118133D01*
X26988243Y-41177555D01*
X27019724Y-41224669D01*
X27110331Y-41315276D01*
X27150765Y-41342293D01*
X27216866Y-41386461D01*
X27216870Y-41386463D01*
X27216873Y-41386465D01*
X27335256Y-41435501D01*
X27460931Y-41460500D01*
X27460932Y-41460500D01*
X27589068Y-41460500D01*
X27589069Y-41460500D01*
X27714744Y-41435501D01*
X27833127Y-41386465D01*
X27939669Y-41315276D01*
X28030276Y-41224669D01*
X28101465Y-41118127D01*
X28150501Y-40999744D01*
X28175500Y-40874069D01*
X28175500Y-40745931D01*
X28175500Y-40745930D01*
X34149500Y-40745930D01*
X34149500Y-40874069D01*
X34174499Y-40999742D01*
X34174500Y-40999747D01*
X34223534Y-41118125D01*
X34223538Y-41118133D01*
X34263243Y-41177555D01*
X34294724Y-41224669D01*
X34385331Y-41315276D01*
X34425765Y-41342293D01*
X34491866Y-41386461D01*
X34491870Y-41386463D01*
X34491873Y-41386465D01*
X34610256Y-41435501D01*
X34735931Y-41460500D01*
X34735932Y-41460500D01*
X34864068Y-41460500D01*
X34864069Y-41460500D01*
X34989744Y-41435501D01*
X35108127Y-41386465D01*
X35214669Y-41315276D01*
X35305276Y-41224669D01*
X35376465Y-41118127D01*
X35425501Y-40999744D01*
X35450500Y-40874069D01*
X35450500Y-40745931D01*
X35425501Y-40620256D01*
X35376465Y-40501873D01*
X35376463Y-40501870D01*
X35376461Y-40501866D01*
X35347717Y-40458848D01*
X35305276Y-40395331D01*
X35214669Y-40304724D01*
X35172226Y-40276365D01*
X35108133Y-40233538D01*
X35108125Y-40233534D01*
X34989747Y-40184500D01*
X34989745Y-40184499D01*
X34989744Y-40184499D01*
X34864069Y-40159500D01*
X34735931Y-40159500D01*
X34735930Y-40159500D01*
X34673093Y-40171999D01*
X34610256Y-40184499D01*
X34610255Y-40184499D01*
X34610252Y-40184500D01*
X34491874Y-40233534D01*
X34491866Y-40233538D01*
X34385331Y-40304724D01*
X34385327Y-40304727D01*
X34294727Y-40395327D01*
X34294724Y-40395331D01*
X34223538Y-40501866D01*
X34223534Y-40501874D01*
X34174500Y-40620252D01*
X34174499Y-40620257D01*
X34149500Y-40745930D01*
X28175500Y-40745930D01*
X28150501Y-40620256D01*
X28101465Y-40501873D01*
X28101463Y-40501870D01*
X28101461Y-40501866D01*
X28072717Y-40458848D01*
X28030276Y-40395331D01*
X27939669Y-40304724D01*
X27897226Y-40276365D01*
X27833133Y-40233538D01*
X27833125Y-40233534D01*
X27714747Y-40184500D01*
X27714745Y-40184499D01*
X27714744Y-40184499D01*
X27589069Y-40159500D01*
X27460931Y-40159500D01*
X27460930Y-40159500D01*
X27398093Y-40171999D01*
X27335256Y-40184499D01*
X27335255Y-40184499D01*
X27335252Y-40184500D01*
X27216874Y-40233534D01*
X27216866Y-40233538D01*
X27110331Y-40304724D01*
X27110327Y-40304727D01*
X27019727Y-40395327D01*
X27019724Y-40395331D01*
X26948538Y-40501866D01*
X26948534Y-40501874D01*
X26899500Y-40620252D01*
X26899499Y-40620257D01*
X26874500Y-40745930D01*
X13776756Y-40745930D01*
X13656788Y-40658768D01*
X13656787Y-40658767D01*
X13656785Y-40658766D01*
X13502441Y-40580125D01*
X13502438Y-40580123D01*
X13337706Y-40526598D01*
X13337702Y-40526597D01*
X13166614Y-40499500D01*
X13166611Y-40499500D01*
X12993389Y-40499500D01*
X12993386Y-40499500D01*
X12822297Y-40526597D01*
X12822293Y-40526598D01*
X12657561Y-40580123D01*
X12657558Y-40580125D01*
X12503214Y-40658766D01*
X12363073Y-40760585D01*
X12240585Y-40883073D01*
X12138766Y-41023214D01*
X12060125Y-41177558D01*
X12060123Y-41177561D01*
X12006598Y-41342293D01*
X12006597Y-41342297D01*
X11979500Y-41513385D01*
X11640500Y-41513385D01*
X11613402Y-41342297D01*
X11613401Y-41342293D01*
X11559876Y-41177561D01*
X11559874Y-41177558D01*
X11559873Y-41177557D01*
X11559873Y-41177555D01*
X11481232Y-41023212D01*
X11379414Y-40883072D01*
X11256928Y-40760586D01*
X11116788Y-40658768D01*
X11116787Y-40658767D01*
X11116785Y-40658766D01*
X10962441Y-40580125D01*
X10962438Y-40580123D01*
X10797706Y-40526598D01*
X10797702Y-40526597D01*
X10626614Y-40499500D01*
X10626611Y-40499500D01*
X10453389Y-40499500D01*
X10453386Y-40499500D01*
X10282297Y-40526597D01*
X10282293Y-40526598D01*
X10117561Y-40580123D01*
X10117558Y-40580125D01*
X9963214Y-40658766D01*
X9823073Y-40760585D01*
X9700585Y-40883073D01*
X9598766Y-41023214D01*
X9537210Y-41144027D01*
X9493945Y-41187292D01*
X9433513Y-41196863D01*
X9378997Y-41169086D01*
X9351219Y-41114569D01*
X9350000Y-41099082D01*
X9350000Y-40702175D01*
X9343598Y-40642629D01*
X9343596Y-40642618D01*
X9293353Y-40507911D01*
X9293352Y-40507909D01*
X9207192Y-40392815D01*
X9207184Y-40392807D01*
X9092090Y-40306647D01*
X9092088Y-40306646D01*
X8957381Y-40256403D01*
X8957370Y-40256401D01*
X8897824Y-40250000D01*
X8250001Y-40250000D01*
X8250000Y-40250001D01*
X8250000Y-41166988D01*
X8192993Y-41134075D01*
X8065826Y-41100000D01*
X7934174Y-41100000D01*
X7807007Y-41134075D01*
X7750000Y-41166988D01*
X7750000Y-40250001D01*
X7749999Y-40250000D01*
X7102176Y-40250000D01*
X7042629Y-40256401D01*
X7042618Y-40256403D01*
X6907911Y-40306646D01*
X6907909Y-40306647D01*
X6792815Y-40392807D01*
X6792807Y-40392815D01*
X6706647Y-40507909D01*
X6706646Y-40507911D01*
X6656403Y-40642618D01*
X6656401Y-40642629D01*
X6650000Y-40702175D01*
X6650000Y-41349999D01*
X6650001Y-41350000D01*
X7566988Y-41350000D01*
X7534075Y-41407007D01*
X7500000Y-41534174D01*
X7500000Y-41665826D01*
X7534075Y-41792993D01*
X7566988Y-41850000D01*
X6650001Y-41850000D01*
X6650000Y-41850001D01*
X6650000Y-42497824D01*
X6649999Y-42497824D01*
X500500Y-42497824D01*
X500500Y-40010931D01*
X13824500Y-40010931D01*
X13824500Y-40139069D01*
X13847839Y-40256401D01*
X13849499Y-40264742D01*
X13849500Y-40264747D01*
X13898534Y-40383125D01*
X13898538Y-40383133D01*
X13906689Y-40395331D01*
X13969724Y-40489669D01*
X14060331Y-40580276D01*
X14120159Y-40620252D01*
X14166866Y-40651461D01*
X14166870Y-40651463D01*
X14166873Y-40651465D01*
X14285256Y-40700501D01*
X14410931Y-40725500D01*
X14410932Y-40725500D01*
X14539068Y-40725500D01*
X14539069Y-40725500D01*
X14664744Y-40700501D01*
X14783127Y-40651465D01*
X14889669Y-40580276D01*
X14929996Y-40539949D01*
X14984512Y-40512171D01*
X15044944Y-40521742D01*
X15070004Y-40539949D01*
X15110322Y-40580268D01*
X15110326Y-40580271D01*
X15110331Y-40580276D01*
X15170159Y-40620252D01*
X15216866Y-40651461D01*
X15216870Y-40651463D01*
X15216873Y-40651465D01*
X15335256Y-40700501D01*
X15460931Y-40725500D01*
X15460932Y-40725500D01*
X15589068Y-40725500D01*
X15589069Y-40725500D01*
X15714744Y-40700501D01*
X15833127Y-40651465D01*
X15939669Y-40580276D01*
X16030276Y-40489669D01*
X16101465Y-40383127D01*
X16150501Y-40264744D01*
X16175500Y-40139069D01*
X16175500Y-40010931D01*
X16150501Y-39885256D01*
X16101465Y-39766873D01*
X16101463Y-39766870D01*
X16101461Y-39766866D01*
X16072717Y-39723848D01*
X16030276Y-39660331D01*
X15939669Y-39569724D01*
X15894495Y-39539540D01*
X15855348Y-39513382D01*
X15833134Y-39498538D01*
X15833125Y-39498534D01*
X15714747Y-39449500D01*
X15714745Y-39449499D01*
X15714744Y-39449499D01*
X15646535Y-39435931D01*
X58649500Y-39435931D01*
X58649500Y-39564069D01*
X58668648Y-39660331D01*
X58674499Y-39689742D01*
X58674500Y-39689747D01*
X58723534Y-39808125D01*
X58723538Y-39808133D01*
X58766365Y-39872226D01*
X58794724Y-39914669D01*
X58885331Y-40005276D01*
X58948848Y-40047717D01*
X58991866Y-40076461D01*
X58991870Y-40076463D01*
X58991873Y-40076465D01*
X59110256Y-40125501D01*
X59235931Y-40150500D01*
X59235932Y-40150500D01*
X59364068Y-40150500D01*
X59364069Y-40150500D01*
X59489744Y-40125501D01*
X59608127Y-40076465D01*
X59714669Y-40005276D01*
X59805276Y-39914669D01*
X59876465Y-39808127D01*
X59925501Y-39689744D01*
X59950500Y-39564069D01*
X59950500Y-39435931D01*
X69749500Y-39435931D01*
X69749500Y-39564069D01*
X69768648Y-39660331D01*
X69774499Y-39689742D01*
X69774500Y-39689747D01*
X69823534Y-39808125D01*
X69823538Y-39808133D01*
X69866365Y-39872226D01*
X69894724Y-39914669D01*
X69985331Y-40005276D01*
X70048848Y-40047717D01*
X70091866Y-40076461D01*
X70091870Y-40076463D01*
X70091873Y-40076465D01*
X70210256Y-40125501D01*
X70335931Y-40150500D01*
X70335932Y-40150500D01*
X70464068Y-40150500D01*
X70464069Y-40150500D01*
X70589744Y-40125501D01*
X70708127Y-40076465D01*
X70814669Y-40005276D01*
X70905276Y-39914669D01*
X70976465Y-39808127D01*
X71025501Y-39689744D01*
X71050500Y-39564069D01*
X71050500Y-39435931D01*
X71025501Y-39310256D01*
X70976465Y-39191873D01*
X70976463Y-39191870D01*
X70976461Y-39191866D01*
X70947717Y-39148848D01*
X70905276Y-39085331D01*
X70814669Y-38994724D01*
X70772226Y-38966365D01*
X70708133Y-38923538D01*
X70708125Y-38923534D01*
X70589747Y-38874500D01*
X70589745Y-38874499D01*
X70589744Y-38874499D01*
X70464069Y-38849500D01*
X70335931Y-38849500D01*
X70335930Y-38849500D01*
X70273093Y-38861999D01*
X70210256Y-38874499D01*
X70210255Y-38874499D01*
X70210252Y-38874500D01*
X70091874Y-38923534D01*
X70091866Y-38923538D01*
X69985331Y-38994724D01*
X69985327Y-38994727D01*
X69894727Y-39085327D01*
X69894724Y-39085331D01*
X69823538Y-39191866D01*
X69823534Y-39191874D01*
X69774500Y-39310252D01*
X69774499Y-39310255D01*
X69774499Y-39310256D01*
X69749500Y-39435931D01*
X59950500Y-39435931D01*
X59925501Y-39310256D01*
X59876465Y-39191873D01*
X59876463Y-39191870D01*
X59876461Y-39191866D01*
X59847717Y-39148848D01*
X59805276Y-39085331D01*
X59714669Y-38994724D01*
X59672226Y-38966365D01*
X59608133Y-38923538D01*
X59608125Y-38923534D01*
X59489747Y-38874500D01*
X59489745Y-38874499D01*
X59489744Y-38874499D01*
X59364069Y-38849500D01*
X59235931Y-38849500D01*
X59235930Y-38849500D01*
X59173093Y-38861999D01*
X59110256Y-38874499D01*
X59110255Y-38874499D01*
X59110252Y-38874500D01*
X58991874Y-38923534D01*
X58991866Y-38923538D01*
X58885331Y-38994724D01*
X58885327Y-38994727D01*
X58794727Y-39085327D01*
X58794724Y-39085331D01*
X58723538Y-39191866D01*
X58723534Y-39191874D01*
X58674500Y-39310252D01*
X58674499Y-39310255D01*
X58674499Y-39310256D01*
X58649500Y-39435931D01*
X15646535Y-39435931D01*
X15589069Y-39424500D01*
X15460931Y-39424500D01*
X15460930Y-39424500D01*
X15403470Y-39435930D01*
X15335256Y-39449499D01*
X15335255Y-39449499D01*
X15335252Y-39449500D01*
X15216874Y-39498534D01*
X15216866Y-39498538D01*
X15110331Y-39569724D01*
X15110327Y-39569727D01*
X15070004Y-39610051D01*
X15015487Y-39637828D01*
X14955055Y-39628257D01*
X14929996Y-39610051D01*
X14889672Y-39569727D01*
X14889669Y-39569724D01*
X14847226Y-39541365D01*
X14783133Y-39498538D01*
X14783125Y-39498534D01*
X14664747Y-39449500D01*
X14664745Y-39449499D01*
X14664744Y-39449499D01*
X14539069Y-39424500D01*
X14410931Y-39424500D01*
X14410930Y-39424500D01*
X14353470Y-39435930D01*
X14285256Y-39449499D01*
X14285255Y-39449499D01*
X14285252Y-39449500D01*
X14166874Y-39498534D01*
X14166866Y-39498538D01*
X14060331Y-39569724D01*
X14060327Y-39569727D01*
X13969727Y-39660327D01*
X13969724Y-39660331D01*
X13898538Y-39766866D01*
X13898534Y-39766874D01*
X13849500Y-39885252D01*
X13849499Y-39885255D01*
X13849499Y-39885256D01*
X13843648Y-39914669D01*
X13825626Y-40005272D01*
X13824500Y-40010931D01*
X500500Y-40010931D01*
X500500Y-36935930D01*
X2824500Y-36935930D01*
X2824500Y-37064069D01*
X2849499Y-37189742D01*
X2849500Y-37189747D01*
X2898534Y-37308125D01*
X2898538Y-37308133D01*
X2941365Y-37372226D01*
X2969724Y-37414669D01*
X3060331Y-37505276D01*
X3123848Y-37547717D01*
X3166866Y-37576461D01*
X3166870Y-37576463D01*
X3166873Y-37576465D01*
X3285256Y-37625501D01*
X3410931Y-37650500D01*
X3410932Y-37650500D01*
X3539068Y-37650500D01*
X3539069Y-37650500D01*
X3664744Y-37625501D01*
X3783127Y-37576465D01*
X3889669Y-37505276D01*
X3929996Y-37464949D01*
X3984512Y-37437171D01*
X4044944Y-37446742D01*
X4070004Y-37464949D01*
X4110322Y-37505268D01*
X4110326Y-37505271D01*
X4110331Y-37505276D01*
X4173848Y-37547717D01*
X4216866Y-37576461D01*
X4216870Y-37576463D01*
X4216873Y-37576465D01*
X4335256Y-37625501D01*
X4460931Y-37650500D01*
X4460932Y-37650500D01*
X4589068Y-37650500D01*
X4589069Y-37650500D01*
X4714744Y-37625501D01*
X4833127Y-37576465D01*
X4939669Y-37505276D01*
X5030276Y-37414669D01*
X5101465Y-37308127D01*
X5150501Y-37189744D01*
X5175500Y-37064069D01*
X5175500Y-36935931D01*
X5175500Y-36935930D01*
X28749500Y-36935930D01*
X28749500Y-37064069D01*
X28774499Y-37189742D01*
X28774500Y-37189747D01*
X28823534Y-37308125D01*
X28823538Y-37308133D01*
X28866365Y-37372226D01*
X28894724Y-37414669D01*
X28985331Y-37505276D01*
X29048848Y-37547717D01*
X29091866Y-37576461D01*
X29091870Y-37576463D01*
X29091873Y-37576465D01*
X29210256Y-37625501D01*
X29335931Y-37650500D01*
X29335932Y-37650500D01*
X29464068Y-37650500D01*
X29464069Y-37650500D01*
X29589744Y-37625501D01*
X29708127Y-37576465D01*
X29814669Y-37505276D01*
X29905276Y-37414669D01*
X29976465Y-37308127D01*
X30025501Y-37189744D01*
X30050500Y-37064069D01*
X30050500Y-36935931D01*
X30025501Y-36810256D01*
X29976465Y-36691873D01*
X29976463Y-36691870D01*
X29976461Y-36691866D01*
X29947717Y-36648848D01*
X29905276Y-36585331D01*
X29814669Y-36494724D01*
X29772226Y-36466365D01*
X29708133Y-36423538D01*
X29708125Y-36423534D01*
X29589747Y-36374500D01*
X29589745Y-36374499D01*
X29589744Y-36374499D01*
X29464069Y-36349500D01*
X29335931Y-36349500D01*
X29335930Y-36349500D01*
X29273093Y-36361999D01*
X29210256Y-36374499D01*
X29210255Y-36374499D01*
X29210252Y-36374500D01*
X29091874Y-36423534D01*
X29091866Y-36423538D01*
X28985331Y-36494724D01*
X28985327Y-36494727D01*
X28894727Y-36585327D01*
X28894724Y-36585331D01*
X28823538Y-36691866D01*
X28823534Y-36691874D01*
X28774500Y-36810252D01*
X28774499Y-36810257D01*
X28749500Y-36935930D01*
X5175500Y-36935930D01*
X5150501Y-36810256D01*
X5101465Y-36691873D01*
X5101463Y-36691870D01*
X5101461Y-36691866D01*
X5072717Y-36648848D01*
X5030276Y-36585331D01*
X4939669Y-36494724D01*
X4897226Y-36466365D01*
X4833133Y-36423538D01*
X4833125Y-36423534D01*
X4714747Y-36374500D01*
X4714745Y-36374499D01*
X4714744Y-36374499D01*
X4589069Y-36349500D01*
X4460931Y-36349500D01*
X4460930Y-36349500D01*
X4398093Y-36361999D01*
X4335256Y-36374499D01*
X4335255Y-36374499D01*
X4335252Y-36374500D01*
X4216874Y-36423534D01*
X4216866Y-36423538D01*
X4110331Y-36494724D01*
X4110327Y-36494727D01*
X4070004Y-36535051D01*
X4015487Y-36562828D01*
X3955055Y-36553257D01*
X3929996Y-36535051D01*
X3889672Y-36494727D01*
X3889669Y-36494724D01*
X3847226Y-36466365D01*
X3783133Y-36423538D01*
X3783125Y-36423534D01*
X3664747Y-36374500D01*
X3664745Y-36374499D01*
X3664744Y-36374499D01*
X3539069Y-36349500D01*
X3410931Y-36349500D01*
X3410930Y-36349500D01*
X3348093Y-36361999D01*
X3285256Y-36374499D01*
X3285255Y-36374499D01*
X3285252Y-36374500D01*
X3166874Y-36423534D01*
X3166866Y-36423538D01*
X3060331Y-36494724D01*
X3060327Y-36494727D01*
X2969727Y-36585327D01*
X2969724Y-36585331D01*
X2898538Y-36691866D01*
X2898534Y-36691874D01*
X2849500Y-36810252D01*
X2849499Y-36810257D01*
X2824500Y-36935930D01*
X500500Y-36935930D01*
X500500Y-35435931D01*
X58649500Y-35435931D01*
X58649500Y-35564069D01*
X58669391Y-35664067D01*
X58674499Y-35689742D01*
X58674500Y-35689747D01*
X58723534Y-35808125D01*
X58723538Y-35808133D01*
X58766365Y-35872226D01*
X58794724Y-35914669D01*
X58885331Y-36005276D01*
X58948848Y-36047717D01*
X58991866Y-36076461D01*
X58991870Y-36076463D01*
X58991873Y-36076465D01*
X59110256Y-36125501D01*
X59235931Y-36150500D01*
X59235932Y-36150500D01*
X59364068Y-36150500D01*
X59364069Y-36150500D01*
X59489744Y-36125501D01*
X59608127Y-36076465D01*
X59714669Y-36005276D01*
X59805276Y-35914669D01*
X59876465Y-35808127D01*
X59925501Y-35689744D01*
X59950500Y-35564069D01*
X59950500Y-35535930D01*
X62812000Y-35535930D01*
X62812000Y-35664069D01*
X62836999Y-35789742D01*
X62837000Y-35789747D01*
X62886034Y-35908125D01*
X62886038Y-35908133D01*
X62928865Y-35972226D01*
X62957224Y-36014669D01*
X63047831Y-36105276D01*
X63111348Y-36147717D01*
X63154366Y-36176461D01*
X63154370Y-36176463D01*
X63154373Y-36176465D01*
X63272756Y-36225501D01*
X63398431Y-36250500D01*
X63398432Y-36250500D01*
X63526568Y-36250500D01*
X63526569Y-36250500D01*
X63652244Y-36225501D01*
X63770627Y-36176465D01*
X63877169Y-36105276D01*
X63967776Y-36014669D01*
X64038965Y-35908127D01*
X64088001Y-35789744D01*
X64113000Y-35664069D01*
X64113000Y-35535931D01*
X64088001Y-35410256D01*
X64038965Y-35291873D01*
X64038963Y-35291870D01*
X64038961Y-35291866D01*
X64010217Y-35248848D01*
X63967776Y-35185331D01*
X63877169Y-35094724D01*
X63834726Y-35066365D01*
X63770633Y-35023538D01*
X63770625Y-35023534D01*
X63652247Y-34974500D01*
X63652245Y-34974499D01*
X63652244Y-34974499D01*
X63526569Y-34949500D01*
X63398431Y-34949500D01*
X63398430Y-34949500D01*
X63335593Y-34961999D01*
X63272756Y-34974499D01*
X63272755Y-34974499D01*
X63272752Y-34974500D01*
X63154374Y-35023534D01*
X63154366Y-35023538D01*
X63047831Y-35094724D01*
X63047827Y-35094727D01*
X62957227Y-35185327D01*
X62957224Y-35185331D01*
X62886038Y-35291866D01*
X62886034Y-35291874D01*
X62837000Y-35410252D01*
X62836999Y-35410257D01*
X62812000Y-35535930D01*
X59950500Y-35535930D01*
X59950500Y-35435931D01*
X59925501Y-35310256D01*
X59876465Y-35191873D01*
X59876463Y-35191870D01*
X59876461Y-35191866D01*
X59847717Y-35148848D01*
X59805276Y-35085331D01*
X59714669Y-34994724D01*
X59672226Y-34966365D01*
X59608133Y-34923538D01*
X59608125Y-34923534D01*
X59489747Y-34874500D01*
X59489745Y-34874499D01*
X59489744Y-34874499D01*
X59364069Y-34849500D01*
X59235931Y-34849500D01*
X59235930Y-34849500D01*
X59173093Y-34861999D01*
X59110256Y-34874499D01*
X59110255Y-34874499D01*
X59110252Y-34874500D01*
X58991874Y-34923534D01*
X58991866Y-34923538D01*
X58885331Y-34994724D01*
X58885327Y-34994727D01*
X58794727Y-35085327D01*
X58794724Y-35085331D01*
X58723538Y-35191866D01*
X58723534Y-35191874D01*
X58674500Y-35310252D01*
X58674499Y-35310255D01*
X58674499Y-35310256D01*
X58649500Y-35435931D01*
X500500Y-35435931D01*
X500500Y-33297824D01*
X6649999Y-33297824D01*
X6656401Y-33357370D01*
X6656403Y-33357381D01*
X6706646Y-33492088D01*
X6706647Y-33492090D01*
X6792807Y-33607184D01*
X6792815Y-33607192D01*
X6907909Y-33693352D01*
X6907911Y-33693353D01*
X7042618Y-33743596D01*
X7042629Y-33743598D01*
X7102176Y-33750000D01*
X7749999Y-33750000D01*
X7750000Y-33749999D01*
X7750000Y-32833012D01*
X7807007Y-32865925D01*
X7934174Y-32900000D01*
X8065826Y-32900000D01*
X8192993Y-32865925D01*
X8250000Y-32833012D01*
X8250000Y-33749999D01*
X8250001Y-33750000D01*
X8897824Y-33750000D01*
X8957370Y-33743598D01*
X8957381Y-33743596D01*
X9092088Y-33693353D01*
X9092090Y-33693352D01*
X9207184Y-33607192D01*
X9207192Y-33607184D01*
X9293352Y-33492090D01*
X9293353Y-33492088D01*
X9343596Y-33357381D01*
X9343598Y-33357370D01*
X9350000Y-33297824D01*
X9350000Y-32900917D01*
X9368907Y-32842726D01*
X9418407Y-32806762D01*
X9479593Y-32806762D01*
X9529093Y-32842726D01*
X9537210Y-32855972D01*
X9598766Y-32976786D01*
X9654451Y-33053430D01*
X9700586Y-33116928D01*
X9823072Y-33239414D01*
X9963212Y-33341232D01*
X10117555Y-33419873D01*
X10117557Y-33419873D01*
X10117558Y-33419874D01*
X10117561Y-33419876D01*
X10282293Y-33473401D01*
X10282297Y-33473402D01*
X10453386Y-33500500D01*
X10453389Y-33500500D01*
X10626614Y-33500500D01*
X10797702Y-33473402D01*
X10797706Y-33473401D01*
X10962438Y-33419876D01*
X10962440Y-33419874D01*
X10962445Y-33419873D01*
X11116788Y-33341232D01*
X11256928Y-33239414D01*
X11379414Y-33116928D01*
X11481232Y-32976788D01*
X11559873Y-32822445D01*
X11559874Y-32822440D01*
X11559876Y-32822438D01*
X11613401Y-32657706D01*
X11613402Y-32657702D01*
X11640500Y-32486614D01*
X11640500Y-32313385D01*
X11979500Y-32313385D01*
X11979500Y-32486614D01*
X12006597Y-32657702D01*
X12006598Y-32657706D01*
X12060123Y-32822438D01*
X12060125Y-32822441D01*
X12117950Y-32935931D01*
X12138768Y-32976788D01*
X12240586Y-33116928D01*
X12363072Y-33239414D01*
X12503212Y-33341232D01*
X12657555Y-33419873D01*
X12657557Y-33419873D01*
X12657558Y-33419874D01*
X12657561Y-33419876D01*
X12822293Y-33473401D01*
X12822297Y-33473402D01*
X12993386Y-33500500D01*
X12993389Y-33500500D01*
X13166614Y-33500500D01*
X13337702Y-33473402D01*
X13337706Y-33473401D01*
X13502438Y-33419876D01*
X13502440Y-33419874D01*
X13502445Y-33419873D01*
X13656788Y-33341232D01*
X13796928Y-33239414D01*
X13910412Y-33125930D01*
X26874500Y-33125930D01*
X26874500Y-33254068D01*
X26891838Y-33341232D01*
X26899499Y-33379741D01*
X26899500Y-33379746D01*
X26948534Y-33498124D01*
X26948538Y-33498132D01*
X26953312Y-33505276D01*
X27019724Y-33604668D01*
X27110331Y-33695275D01*
X27173848Y-33737716D01*
X27216866Y-33766460D01*
X27216870Y-33766462D01*
X27216873Y-33766464D01*
X27335256Y-33815500D01*
X27460931Y-33840499D01*
X27460932Y-33840499D01*
X27589068Y-33840499D01*
X27589069Y-33840499D01*
X27714744Y-33815500D01*
X27833127Y-33766464D01*
X27939669Y-33695275D01*
X28030276Y-33604668D01*
X28101465Y-33498126D01*
X28150501Y-33379743D01*
X28175500Y-33254068D01*
X28175500Y-33125930D01*
X34149500Y-33125930D01*
X34149500Y-33254068D01*
X34166838Y-33341232D01*
X34174499Y-33379741D01*
X34174500Y-33379746D01*
X34223534Y-33498124D01*
X34223538Y-33498132D01*
X34228312Y-33505276D01*
X34294724Y-33604668D01*
X34385331Y-33695275D01*
X34448848Y-33737716D01*
X34491866Y-33766460D01*
X34491870Y-33766462D01*
X34491873Y-33766464D01*
X34610256Y-33815500D01*
X34735931Y-33840499D01*
X34735932Y-33840499D01*
X34864068Y-33840499D01*
X34864069Y-33840499D01*
X34989744Y-33815500D01*
X35108127Y-33766464D01*
X35214669Y-33695275D01*
X35305276Y-33604668D01*
X35376465Y-33498126D01*
X35425501Y-33379743D01*
X35450500Y-33254068D01*
X35450500Y-33125930D01*
X35425501Y-33000255D01*
X35376465Y-32881872D01*
X35376463Y-32881869D01*
X35376461Y-32881865D01*
X35336757Y-32822445D01*
X35305276Y-32775330D01*
X35214669Y-32684723D01*
X35162704Y-32650001D01*
X35108133Y-32613537D01*
X35108125Y-32613533D01*
X34989747Y-32564499D01*
X34989745Y-32564498D01*
X34989744Y-32564498D01*
X34864069Y-32539499D01*
X34735931Y-32539499D01*
X34735930Y-32539499D01*
X34708256Y-32545004D01*
X34610256Y-32564498D01*
X34610255Y-32564498D01*
X34610252Y-32564499D01*
X34491874Y-32613533D01*
X34491866Y-32613537D01*
X34385331Y-32684723D01*
X34385327Y-32684726D01*
X34294727Y-32775326D01*
X34294724Y-32775330D01*
X34223538Y-32881865D01*
X34223534Y-32881873D01*
X34174500Y-33000251D01*
X34174499Y-33000254D01*
X34174499Y-33000255D01*
X34173500Y-33005276D01*
X34149586Y-33125500D01*
X34149500Y-33125930D01*
X28175500Y-33125930D01*
X28150501Y-33000255D01*
X28101465Y-32881872D01*
X28101463Y-32881869D01*
X28101461Y-32881865D01*
X28061757Y-32822445D01*
X28030276Y-32775330D01*
X27939669Y-32684723D01*
X27887704Y-32650001D01*
X27833133Y-32613537D01*
X27833125Y-32613533D01*
X27714747Y-32564499D01*
X27714745Y-32564498D01*
X27714744Y-32564498D01*
X27589069Y-32539499D01*
X27460931Y-32539499D01*
X27460930Y-32539499D01*
X27433256Y-32545004D01*
X27335256Y-32564498D01*
X27335255Y-32564498D01*
X27335252Y-32564499D01*
X27216874Y-32613533D01*
X27216866Y-32613537D01*
X27110331Y-32684723D01*
X27110327Y-32684726D01*
X27019727Y-32775326D01*
X27019724Y-32775330D01*
X26948538Y-32881865D01*
X26948534Y-32881873D01*
X26899500Y-33000251D01*
X26899499Y-33000254D01*
X26899499Y-33000255D01*
X26898500Y-33005276D01*
X26874586Y-33125500D01*
X26874500Y-33125930D01*
X13910412Y-33125930D01*
X13919414Y-33116928D01*
X14021232Y-32976788D01*
X14099873Y-32822445D01*
X14099874Y-32822440D01*
X14099876Y-32822438D01*
X14153401Y-32657706D01*
X14153402Y-32657702D01*
X14180500Y-32486614D01*
X14180500Y-32435931D01*
X58649500Y-32435931D01*
X58649500Y-32564069D01*
X58673500Y-32684723D01*
X58674499Y-32689742D01*
X58674500Y-32689747D01*
X58723534Y-32808125D01*
X58723538Y-32808133D01*
X58746653Y-32842726D01*
X58794724Y-32914669D01*
X58885331Y-33005276D01*
X58948848Y-33047717D01*
X58991866Y-33076461D01*
X58991870Y-33076463D01*
X58991873Y-33076465D01*
X59110256Y-33125501D01*
X59235931Y-33150500D01*
X59235932Y-33150500D01*
X59364068Y-33150500D01*
X59364069Y-33150500D01*
X59489744Y-33125501D01*
X59608127Y-33076465D01*
X59714669Y-33005276D01*
X59805276Y-32914669D01*
X59876465Y-32808127D01*
X59925501Y-32689744D01*
X59950500Y-32564069D01*
X59950500Y-32435931D01*
X59925501Y-32310256D01*
X59876465Y-32191873D01*
X59876463Y-32191870D01*
X59876461Y-32191866D01*
X59843337Y-32142293D01*
X59805276Y-32085331D01*
X59714669Y-31994724D01*
X59657231Y-31956345D01*
X59608133Y-31923538D01*
X59608125Y-31923534D01*
X59517344Y-31885931D01*
X67349500Y-31885931D01*
X67349500Y-32014069D01*
X67365199Y-32092993D01*
X67374499Y-32139742D01*
X67374500Y-32139747D01*
X67423534Y-32258125D01*
X67423538Y-32258133D01*
X67458364Y-32310252D01*
X67494724Y-32364669D01*
X67494727Y-32364672D01*
X67535051Y-32404996D01*
X67562828Y-32459513D01*
X67553257Y-32519945D01*
X67535051Y-32545004D01*
X67494727Y-32585327D01*
X67494724Y-32585331D01*
X67423538Y-32691866D01*
X67423534Y-32691874D01*
X67374500Y-32810252D01*
X67374499Y-32810255D01*
X67374499Y-32810256D01*
X67368040Y-32842726D01*
X67353730Y-32914668D01*
X67349500Y-32935931D01*
X67349500Y-33064069D01*
X67366692Y-33150499D01*
X67374499Y-33189742D01*
X67374500Y-33189747D01*
X67423534Y-33308125D01*
X67423538Y-33308133D01*
X67456438Y-33357370D01*
X67494724Y-33414669D01*
X67585331Y-33505276D01*
X67648848Y-33547717D01*
X67691866Y-33576461D01*
X67691870Y-33576463D01*
X67691873Y-33576465D01*
X67810256Y-33625501D01*
X67935931Y-33650500D01*
X67935932Y-33650500D01*
X68064068Y-33650500D01*
X68064069Y-33650500D01*
X68189744Y-33625501D01*
X68308127Y-33576465D01*
X68414669Y-33505276D01*
X68505276Y-33414669D01*
X68576465Y-33308127D01*
X68625501Y-33189744D01*
X68650500Y-33064069D01*
X68650500Y-32935931D01*
X68625501Y-32810256D01*
X68576465Y-32691873D01*
X68576463Y-32691870D01*
X68576461Y-32691866D01*
X68547717Y-32648848D01*
X68505276Y-32585331D01*
X68505271Y-32585326D01*
X68505268Y-32585322D01*
X68464949Y-32545004D01*
X68437171Y-32490488D01*
X68446742Y-32430056D01*
X68464949Y-32404996D01*
X68505268Y-32364677D01*
X68505276Y-32364669D01*
X68576465Y-32258127D01*
X68625501Y-32139744D01*
X68650500Y-32014069D01*
X68650500Y-31885931D01*
X68625501Y-31760256D01*
X68576465Y-31641873D01*
X68576463Y-31641870D01*
X68576461Y-31641866D01*
X68547717Y-31598848D01*
X68505276Y-31535331D01*
X68414669Y-31444724D01*
X68369672Y-31414658D01*
X68308133Y-31373538D01*
X68308125Y-31373534D01*
X68189747Y-31324500D01*
X68189745Y-31324499D01*
X68189744Y-31324499D01*
X68064069Y-31299500D01*
X67935931Y-31299500D01*
X67935930Y-31299500D01*
X67893657Y-31307909D01*
X67810256Y-31324499D01*
X67810255Y-31324499D01*
X67810252Y-31324500D01*
X67691874Y-31373534D01*
X67691866Y-31373538D01*
X67585331Y-31444724D01*
X67585327Y-31444727D01*
X67494727Y-31535327D01*
X67494724Y-31535331D01*
X67423538Y-31641866D01*
X67423534Y-31641874D01*
X67374500Y-31760252D01*
X67374499Y-31760255D01*
X67374499Y-31760256D01*
X67349500Y-31885931D01*
X59517344Y-31885931D01*
X59489747Y-31874500D01*
X59489745Y-31874499D01*
X59489744Y-31874499D01*
X59364069Y-31849500D01*
X59235931Y-31849500D01*
X59235930Y-31849500D01*
X59173093Y-31861999D01*
X59110256Y-31874499D01*
X59110255Y-31874499D01*
X59110252Y-31874500D01*
X58991874Y-31923534D01*
X58991866Y-31923538D01*
X58885331Y-31994724D01*
X58885327Y-31994727D01*
X58794727Y-32085327D01*
X58794724Y-32085331D01*
X58723538Y-32191866D01*
X58723534Y-32191874D01*
X58674500Y-32310252D01*
X58674499Y-32310255D01*
X58674499Y-32310256D01*
X58663675Y-32364669D01*
X58650669Y-32430056D01*
X58649500Y-32435931D01*
X14180500Y-32435931D01*
X14180500Y-32313385D01*
X14153402Y-32142297D01*
X14153401Y-32142293D01*
X14099876Y-31977561D01*
X14099874Y-31977558D01*
X14099873Y-31977557D01*
X14099873Y-31977555D01*
X14021232Y-31823212D01*
X13919414Y-31683072D01*
X13796928Y-31560586D01*
X13687584Y-31481142D01*
X13651621Y-31431644D01*
X13651621Y-31370458D01*
X13654909Y-31362746D01*
X13654604Y-31362620D01*
X13680749Y-31299500D01*
X13705501Y-31239744D01*
X13730500Y-31114069D01*
X13730500Y-30985931D01*
X45624500Y-30985931D01*
X45624500Y-31114069D01*
X45640162Y-31192807D01*
X45649499Y-31239742D01*
X45649500Y-31239747D01*
X45698534Y-31358125D01*
X45698538Y-31358133D01*
X45736308Y-31414658D01*
X45769724Y-31464669D01*
X45860331Y-31555276D01*
X45923848Y-31597717D01*
X45966866Y-31626461D01*
X45966870Y-31626463D01*
X45966873Y-31626465D01*
X46085256Y-31675501D01*
X46210931Y-31700500D01*
X46210932Y-31700500D01*
X46339068Y-31700500D01*
X46339069Y-31700500D01*
X46464744Y-31675501D01*
X46583127Y-31626465D01*
X46689669Y-31555276D01*
X46780276Y-31464669D01*
X46851465Y-31358127D01*
X46900501Y-31239744D01*
X46925500Y-31114069D01*
X46925500Y-30985931D01*
X46900501Y-30860256D01*
X46851465Y-30741873D01*
X46851463Y-30741870D01*
X46851461Y-30741866D01*
X46822717Y-30698848D01*
X46780276Y-30635331D01*
X46689669Y-30544724D01*
X46630631Y-30505276D01*
X46583133Y-30473538D01*
X46583125Y-30473534D01*
X46464747Y-30424500D01*
X46464745Y-30424499D01*
X46464744Y-30424499D01*
X46339069Y-30399500D01*
X46210931Y-30399500D01*
X46210930Y-30399500D01*
X46148093Y-30411999D01*
X46085256Y-30424499D01*
X46085255Y-30424499D01*
X46085252Y-30424500D01*
X45966874Y-30473534D01*
X45966866Y-30473538D01*
X45860331Y-30544724D01*
X45860327Y-30544727D01*
X45769727Y-30635327D01*
X45769724Y-30635331D01*
X45698538Y-30741866D01*
X45698534Y-30741874D01*
X45649500Y-30860252D01*
X45649499Y-30860257D01*
X45633703Y-30939668D01*
X45624500Y-30985931D01*
X13730500Y-30985931D01*
X13705501Y-30860256D01*
X13656465Y-30741873D01*
X13656463Y-30741870D01*
X13656461Y-30741866D01*
X13627717Y-30698848D01*
X13585276Y-30635331D01*
X13494669Y-30544724D01*
X13435631Y-30505276D01*
X13388133Y-30473538D01*
X13388125Y-30473534D01*
X13269747Y-30424500D01*
X13269745Y-30424499D01*
X13269744Y-30424499D01*
X13144069Y-30399500D01*
X13015931Y-30399500D01*
X13015930Y-30399500D01*
X12953093Y-30411999D01*
X12890256Y-30424499D01*
X12890255Y-30424499D01*
X12890252Y-30424500D01*
X12771874Y-30473534D01*
X12771866Y-30473538D01*
X12665331Y-30544724D01*
X12665327Y-30544727D01*
X12574727Y-30635327D01*
X12574724Y-30635331D01*
X12503538Y-30741866D01*
X12503534Y-30741874D01*
X12454500Y-30860252D01*
X12454499Y-30860257D01*
X12438703Y-30939668D01*
X12429500Y-30985931D01*
X12429500Y-31114069D01*
X12445162Y-31192807D01*
X12454499Y-31239742D01*
X12454500Y-31239747D01*
X12505396Y-31362620D01*
X12503177Y-31363538D01*
X12512283Y-31414658D01*
X12485557Y-31469698D01*
X12472414Y-31481143D01*
X12363077Y-31560581D01*
X12240585Y-31683073D01*
X12138766Y-31823214D01*
X12060125Y-31977558D01*
X12060123Y-31977561D01*
X12006598Y-32142293D01*
X12006597Y-32142297D01*
X11979500Y-32313385D01*
X11640500Y-32313385D01*
X11613402Y-32142297D01*
X11613401Y-32142293D01*
X11559876Y-31977561D01*
X11559874Y-31977558D01*
X11559873Y-31977557D01*
X11559873Y-31977555D01*
X11481232Y-31823212D01*
X11379414Y-31683072D01*
X11256928Y-31560586D01*
X11116788Y-31458768D01*
X11116787Y-31458767D01*
X11116785Y-31458766D01*
X10962441Y-31380125D01*
X10962438Y-31380123D01*
X10797706Y-31326598D01*
X10797702Y-31326597D01*
X10626614Y-31299500D01*
X10626611Y-31299500D01*
X10453389Y-31299500D01*
X10453386Y-31299500D01*
X10282297Y-31326597D01*
X10282293Y-31326598D01*
X10117561Y-31380123D01*
X10117558Y-31380125D01*
X9963214Y-31458766D01*
X9823073Y-31560585D01*
X9700585Y-31683073D01*
X9598766Y-31823214D01*
X9537210Y-31944027D01*
X9493945Y-31987292D01*
X9433513Y-31996863D01*
X9378997Y-31969086D01*
X9351219Y-31914569D01*
X9350000Y-31899082D01*
X9350000Y-31502175D01*
X9343598Y-31442629D01*
X9343596Y-31442618D01*
X9293353Y-31307911D01*
X9293352Y-31307909D01*
X9207192Y-31192815D01*
X9207184Y-31192807D01*
X9092090Y-31106647D01*
X9092088Y-31106646D01*
X8957381Y-31056403D01*
X8957370Y-31056401D01*
X8897824Y-31050000D01*
X8250001Y-31050000D01*
X8250000Y-31050001D01*
X8250000Y-31966988D01*
X8192993Y-31934075D01*
X8065826Y-31900000D01*
X7934174Y-31900000D01*
X7807007Y-31934075D01*
X7750000Y-31966988D01*
X7750000Y-31050001D01*
X7749999Y-31050000D01*
X7102176Y-31050000D01*
X7042629Y-31056401D01*
X7042618Y-31056403D01*
X6907911Y-31106646D01*
X6907909Y-31106647D01*
X6792815Y-31192807D01*
X6792807Y-31192815D01*
X6706647Y-31307909D01*
X6706646Y-31307911D01*
X6656403Y-31442618D01*
X6656401Y-31442629D01*
X6650000Y-31502175D01*
X6650000Y-32149999D01*
X6650001Y-32150000D01*
X7566988Y-32150000D01*
X7534075Y-32207007D01*
X7500000Y-32334174D01*
X7500000Y-32465826D01*
X7534075Y-32592993D01*
X7566988Y-32650000D01*
X6650001Y-32650000D01*
X6650000Y-32650001D01*
X6650000Y-33297824D01*
X6649999Y-33297824D01*
X500500Y-33297824D01*
X500500Y-29935930D01*
X31499500Y-29935930D01*
X31499500Y-30064069D01*
X31524499Y-30189742D01*
X31524500Y-30189747D01*
X31573534Y-30308125D01*
X31573538Y-30308133D01*
X31616365Y-30372226D01*
X31644724Y-30414669D01*
X31735331Y-30505276D01*
X31794369Y-30544724D01*
X31841866Y-30576461D01*
X31841870Y-30576463D01*
X31841873Y-30576465D01*
X31960256Y-30625501D01*
X32085931Y-30650500D01*
X32085932Y-30650500D01*
X32214068Y-30650500D01*
X32214069Y-30650500D01*
X32339744Y-30625501D01*
X32458127Y-30576465D01*
X32564669Y-30505276D01*
X32655276Y-30414669D01*
X32726465Y-30308127D01*
X32775501Y-30189744D01*
X32800500Y-30064069D01*
X32800500Y-29935931D01*
X32800500Y-29935930D01*
X35624500Y-29935930D01*
X35624500Y-30064069D01*
X35649499Y-30189742D01*
X35649500Y-30189747D01*
X35698534Y-30308125D01*
X35698538Y-30308133D01*
X35741365Y-30372226D01*
X35769724Y-30414669D01*
X35860331Y-30505276D01*
X35919369Y-30544724D01*
X35966866Y-30576461D01*
X35966870Y-30576463D01*
X35966873Y-30576465D01*
X36085256Y-30625501D01*
X36210931Y-30650500D01*
X36210932Y-30650500D01*
X36339068Y-30650500D01*
X36339069Y-30650500D01*
X36464744Y-30625501D01*
X36583127Y-30576465D01*
X36689669Y-30505276D01*
X36780276Y-30414669D01*
X36851465Y-30308127D01*
X36900501Y-30189744D01*
X36925500Y-30064069D01*
X36925500Y-29935931D01*
X36900501Y-29810256D01*
X36851465Y-29691873D01*
X36851463Y-29691870D01*
X36851461Y-29691866D01*
X36822717Y-29648848D01*
X36780276Y-29585331D01*
X36689669Y-29494724D01*
X36655518Y-29471905D01*
X36583133Y-29423538D01*
X36583125Y-29423534D01*
X36552696Y-29410930D01*
X68549500Y-29410930D01*
X68549500Y-29539069D01*
X68574499Y-29664742D01*
X68574500Y-29664747D01*
X68623534Y-29783125D01*
X68623538Y-29783133D01*
X68666365Y-29847226D01*
X68694724Y-29889669D01*
X68694727Y-29889672D01*
X68735051Y-29929996D01*
X68762828Y-29984513D01*
X68753257Y-30044945D01*
X68735051Y-30070004D01*
X68694727Y-30110327D01*
X68694724Y-30110331D01*
X68623538Y-30216866D01*
X68623534Y-30216874D01*
X68574500Y-30335252D01*
X68574499Y-30335257D01*
X68549500Y-30460930D01*
X68549500Y-30589069D01*
X68574499Y-30714742D01*
X68574500Y-30714747D01*
X68623534Y-30833125D01*
X68623538Y-30833133D01*
X68666365Y-30897226D01*
X68694724Y-30939669D01*
X68785331Y-31030276D01*
X68814852Y-31050001D01*
X68891866Y-31101461D01*
X68891870Y-31101463D01*
X68891873Y-31101465D01*
X69010256Y-31150501D01*
X69135931Y-31175500D01*
X69135932Y-31175500D01*
X69264068Y-31175500D01*
X69264069Y-31175500D01*
X69389744Y-31150501D01*
X69508127Y-31101465D01*
X69614669Y-31030276D01*
X69705276Y-30939669D01*
X69776465Y-30833127D01*
X69825501Y-30714744D01*
X69850500Y-30589069D01*
X69850500Y-30460931D01*
X69825501Y-30335256D01*
X69776465Y-30216873D01*
X69776463Y-30216870D01*
X69776461Y-30216866D01*
X69747717Y-30173848D01*
X69705276Y-30110331D01*
X69705271Y-30110326D01*
X69705268Y-30110322D01*
X69664949Y-30070004D01*
X69637171Y-30015488D01*
X69646742Y-29955056D01*
X69664949Y-29929996D01*
X69705268Y-29889677D01*
X69705276Y-29889669D01*
X69776465Y-29783127D01*
X69825501Y-29664744D01*
X69850500Y-29539069D01*
X69850500Y-29410931D01*
X69825501Y-29285256D01*
X69776465Y-29166873D01*
X69776463Y-29166870D01*
X69776461Y-29166866D01*
X69747717Y-29123848D01*
X69705276Y-29060331D01*
X69614669Y-28969724D01*
X69572226Y-28941365D01*
X69508133Y-28898538D01*
X69508125Y-28898534D01*
X69389747Y-28849500D01*
X69389745Y-28849499D01*
X69389744Y-28849499D01*
X69264069Y-28824500D01*
X69135931Y-28824500D01*
X69135930Y-28824500D01*
X69073093Y-28836999D01*
X69010256Y-28849499D01*
X69010255Y-28849499D01*
X69010252Y-28849500D01*
X68891874Y-28898534D01*
X68891866Y-28898538D01*
X68785331Y-28969724D01*
X68785327Y-28969727D01*
X68694727Y-29060327D01*
X68694724Y-29060331D01*
X68623538Y-29166866D01*
X68623534Y-29166874D01*
X68574500Y-29285252D01*
X68574499Y-29285257D01*
X68549500Y-29410930D01*
X36552696Y-29410930D01*
X36464747Y-29374500D01*
X36464745Y-29374499D01*
X36464744Y-29374499D01*
X36339069Y-29349500D01*
X36210931Y-29349500D01*
X36210930Y-29349500D01*
X36148093Y-29361999D01*
X36085256Y-29374499D01*
X36085255Y-29374499D01*
X36085252Y-29374500D01*
X35966874Y-29423534D01*
X35966866Y-29423538D01*
X35860331Y-29494724D01*
X35860327Y-29494727D01*
X35769727Y-29585327D01*
X35769724Y-29585331D01*
X35698538Y-29691866D01*
X35698534Y-29691874D01*
X35649500Y-29810252D01*
X35649499Y-29810257D01*
X35624500Y-29935930D01*
X32800500Y-29935930D01*
X32775501Y-29810256D01*
X32726465Y-29691873D01*
X32726463Y-29691870D01*
X32726461Y-29691866D01*
X32697717Y-29648848D01*
X32655276Y-29585331D01*
X32564669Y-29494724D01*
X32522226Y-29466365D01*
X32458133Y-29423538D01*
X32458125Y-29423534D01*
X32339747Y-29374500D01*
X32339745Y-29374499D01*
X32339744Y-29374499D01*
X32214069Y-29349500D01*
X32085931Y-29349500D01*
X32085930Y-29349500D01*
X32023093Y-29361999D01*
X31960256Y-29374499D01*
X31960255Y-29374499D01*
X31960252Y-29374500D01*
X31841874Y-29423534D01*
X31841866Y-29423538D01*
X31735331Y-29494724D01*
X31735327Y-29494727D01*
X31644727Y-29585327D01*
X31644724Y-29585331D01*
X31573538Y-29691866D01*
X31573534Y-29691874D01*
X31524500Y-29810252D01*
X31524499Y-29810257D01*
X31499500Y-29935930D01*
X500500Y-29935930D01*
X500500Y-26910930D01*
X67349500Y-26910930D01*
X67349500Y-27039069D01*
X67374499Y-27164742D01*
X67374500Y-27164747D01*
X67423534Y-27283125D01*
X67423538Y-27283133D01*
X67466365Y-27347226D01*
X67494724Y-27389669D01*
X67494727Y-27389672D01*
X67535051Y-27429996D01*
X67562828Y-27484513D01*
X67553257Y-27544945D01*
X67535051Y-27570004D01*
X67494727Y-27610327D01*
X67494724Y-27610331D01*
X67423538Y-27716866D01*
X67423534Y-27716874D01*
X67374500Y-27835252D01*
X67374499Y-27835257D01*
X67349500Y-27960930D01*
X67349500Y-28089069D01*
X67374499Y-28214742D01*
X67374500Y-28214747D01*
X67423534Y-28333125D01*
X67423538Y-28333133D01*
X67466365Y-28397226D01*
X67494724Y-28439669D01*
X67585331Y-28530276D01*
X67648848Y-28572717D01*
X67691866Y-28601461D01*
X67691870Y-28601463D01*
X67691873Y-28601465D01*
X67810256Y-28650501D01*
X67935931Y-28675500D01*
X67935932Y-28675500D01*
X68064068Y-28675500D01*
X68064069Y-28675500D01*
X68189744Y-28650501D01*
X68308127Y-28601465D01*
X68414669Y-28530276D01*
X68505276Y-28439669D01*
X68576465Y-28333127D01*
X68625501Y-28214744D01*
X68650500Y-28089069D01*
X68650500Y-27960931D01*
X68625501Y-27835256D01*
X68576465Y-27716873D01*
X68576463Y-27716870D01*
X68576461Y-27716866D01*
X68547717Y-27673848D01*
X68505276Y-27610331D01*
X68505271Y-27610326D01*
X68505268Y-27610322D01*
X68464949Y-27570004D01*
X68437171Y-27515488D01*
X68446742Y-27455056D01*
X68464949Y-27429996D01*
X68505268Y-27389677D01*
X68505276Y-27389669D01*
X68576465Y-27283127D01*
X68625501Y-27164744D01*
X68650500Y-27039069D01*
X68650500Y-26910931D01*
X68625501Y-26785256D01*
X68576465Y-26666873D01*
X68576463Y-26666870D01*
X68576461Y-26666866D01*
X68547717Y-26623848D01*
X68505276Y-26560331D01*
X68414669Y-26469724D01*
X68372226Y-26441365D01*
X68308133Y-26398538D01*
X68308125Y-26398534D01*
X68189747Y-26349500D01*
X68189745Y-26349499D01*
X68189744Y-26349499D01*
X68064069Y-26324500D01*
X67935931Y-26324500D01*
X67935930Y-26324500D01*
X67873093Y-26336999D01*
X67810256Y-26349499D01*
X67810255Y-26349499D01*
X67810252Y-26349500D01*
X67691874Y-26398534D01*
X67691866Y-26398538D01*
X67585331Y-26469724D01*
X67585327Y-26469727D01*
X67494727Y-26560327D01*
X67494724Y-26560331D01*
X67423538Y-26666866D01*
X67423534Y-26666874D01*
X67374500Y-26785252D01*
X67374499Y-26785257D01*
X67349500Y-26910930D01*
X500500Y-26910930D01*
X500500Y-23935930D01*
X58649500Y-23935930D01*
X58649500Y-24064069D01*
X58674499Y-24189742D01*
X58674500Y-24189747D01*
X58723534Y-24308125D01*
X58723538Y-24308133D01*
X58766365Y-24372226D01*
X58794724Y-24414669D01*
X58885331Y-24505276D01*
X58948848Y-24547717D01*
X58991866Y-24576461D01*
X58991870Y-24576463D01*
X58991873Y-24576465D01*
X59110256Y-24625501D01*
X59235931Y-24650500D01*
X59235932Y-24650500D01*
X59364068Y-24650500D01*
X59364069Y-24650500D01*
X59489744Y-24625501D01*
X59608127Y-24576465D01*
X59714669Y-24505276D01*
X59805276Y-24414669D01*
X59876465Y-24308127D01*
X59925501Y-24189744D01*
X59950500Y-24064069D01*
X59950500Y-23935931D01*
X59925501Y-23810256D01*
X59876465Y-23691873D01*
X59876463Y-23691870D01*
X59876461Y-23691866D01*
X59847717Y-23648848D01*
X59805276Y-23585331D01*
X59714669Y-23494724D01*
X59663448Y-23460499D01*
X59608133Y-23423538D01*
X59608125Y-23423534D01*
X59489747Y-23374500D01*
X59489745Y-23374499D01*
X59489744Y-23374499D01*
X59364069Y-23349500D01*
X59235931Y-23349500D01*
X59235930Y-23349500D01*
X59173093Y-23361999D01*
X59110256Y-23374499D01*
X59110255Y-23374499D01*
X59110252Y-23374500D01*
X58991874Y-23423534D01*
X58991866Y-23423538D01*
X58885331Y-23494724D01*
X58885327Y-23494727D01*
X58794727Y-23585327D01*
X58794724Y-23585331D01*
X58723538Y-23691866D01*
X58723534Y-23691874D01*
X58674500Y-23810252D01*
X58674499Y-23810257D01*
X58649500Y-23935930D01*
X500500Y-23935930D01*
X500500Y-22745930D01*
X62449500Y-22745930D01*
X62449500Y-22874069D01*
X62474499Y-22999742D01*
X62474500Y-22999747D01*
X62523534Y-23118125D01*
X62523538Y-23118133D01*
X62566365Y-23182226D01*
X62594724Y-23224669D01*
X62685331Y-23315276D01*
X62736551Y-23349500D01*
X62791866Y-23386461D01*
X62791870Y-23386463D01*
X62791873Y-23386465D01*
X62910256Y-23435501D01*
X63035931Y-23460500D01*
X63035932Y-23460500D01*
X63164068Y-23460500D01*
X63164069Y-23460500D01*
X63289744Y-23435501D01*
X63408127Y-23386465D01*
X63514669Y-23315276D01*
X63605276Y-23224669D01*
X63676465Y-23118127D01*
X63725501Y-22999744D01*
X63750500Y-22874069D01*
X63750500Y-22745931D01*
X63725501Y-22620256D01*
X63676465Y-22501873D01*
X63676463Y-22501870D01*
X63676461Y-22501866D01*
X63647717Y-22458848D01*
X63605276Y-22395331D01*
X63514669Y-22304724D01*
X63472226Y-22276365D01*
X63408133Y-22233538D01*
X63408125Y-22233534D01*
X63289747Y-22184500D01*
X63289745Y-22184499D01*
X63289744Y-22184499D01*
X63164069Y-22159500D01*
X63035931Y-22159500D01*
X63035930Y-22159500D01*
X62973093Y-22171999D01*
X62910256Y-22184499D01*
X62910255Y-22184499D01*
X62910252Y-22184500D01*
X62791874Y-22233534D01*
X62791866Y-22233538D01*
X62685331Y-22304724D01*
X62685327Y-22304727D01*
X62594727Y-22395327D01*
X62594724Y-22395331D01*
X62523538Y-22501866D01*
X62523534Y-22501874D01*
X62474500Y-22620252D01*
X62474499Y-22620257D01*
X62449500Y-22745930D01*
X500500Y-22745930D01*
X500500Y-20935930D01*
X31499500Y-20935930D01*
X31499500Y-21064069D01*
X31524499Y-21189742D01*
X31524500Y-21189747D01*
X31573534Y-21308125D01*
X31573538Y-21308133D01*
X31616365Y-21372226D01*
X31644724Y-21414669D01*
X31735331Y-21505276D01*
X31798848Y-21547717D01*
X31841866Y-21576461D01*
X31841870Y-21576463D01*
X31841873Y-21576465D01*
X31960256Y-21625501D01*
X32085931Y-21650500D01*
X32085932Y-21650500D01*
X32214068Y-21650500D01*
X32214069Y-21650500D01*
X32339744Y-21625501D01*
X32458127Y-21576465D01*
X32564669Y-21505276D01*
X32655276Y-21414669D01*
X32726465Y-21308127D01*
X32775501Y-21189744D01*
X32800500Y-21064069D01*
X32800500Y-20935931D01*
X32800500Y-20935930D01*
X35624500Y-20935930D01*
X35624500Y-21064069D01*
X35649499Y-21189742D01*
X35649500Y-21189747D01*
X35698534Y-21308125D01*
X35698538Y-21308133D01*
X35741365Y-21372226D01*
X35769724Y-21414669D01*
X35860331Y-21505276D01*
X35923848Y-21547717D01*
X35966866Y-21576461D01*
X35966870Y-21576463D01*
X35966873Y-21576465D01*
X36085256Y-21625501D01*
X36210931Y-21650500D01*
X36210932Y-21650500D01*
X36339068Y-21650500D01*
X36339069Y-21650500D01*
X36464744Y-21625501D01*
X36583127Y-21576465D01*
X36689669Y-21505276D01*
X36780276Y-21414669D01*
X36851465Y-21308127D01*
X36900501Y-21189744D01*
X36925500Y-21064069D01*
X36925500Y-20935931D01*
X36900501Y-20810256D01*
X36851465Y-20691873D01*
X36851463Y-20691870D01*
X36851461Y-20691866D01*
X36822717Y-20648848D01*
X36780276Y-20585331D01*
X36689669Y-20494724D01*
X36630631Y-20455276D01*
X36583133Y-20423538D01*
X36583125Y-20423534D01*
X36464747Y-20374500D01*
X36464745Y-20374499D01*
X36464744Y-20374499D01*
X36339069Y-20349500D01*
X36210931Y-20349500D01*
X36210930Y-20349500D01*
X36148093Y-20361999D01*
X36085256Y-20374499D01*
X36085255Y-20374499D01*
X36085252Y-20374500D01*
X35966874Y-20423534D01*
X35966866Y-20423538D01*
X35860331Y-20494724D01*
X35860327Y-20494727D01*
X35769727Y-20585327D01*
X35769724Y-20585331D01*
X35698538Y-20691866D01*
X35698534Y-20691874D01*
X35649500Y-20810252D01*
X35649499Y-20810257D01*
X35624500Y-20935930D01*
X32800500Y-20935930D01*
X32775501Y-20810256D01*
X32726465Y-20691873D01*
X32726463Y-20691870D01*
X32726461Y-20691866D01*
X32697717Y-20648848D01*
X32655276Y-20585331D01*
X32564669Y-20494724D01*
X32505631Y-20455276D01*
X32458133Y-20423538D01*
X32458125Y-20423534D01*
X32339747Y-20374500D01*
X32339745Y-20374499D01*
X32339744Y-20374499D01*
X32214069Y-20349500D01*
X32085931Y-20349500D01*
X32085930Y-20349500D01*
X32023093Y-20361999D01*
X31960256Y-20374499D01*
X31960255Y-20374499D01*
X31960252Y-20374500D01*
X31841874Y-20423534D01*
X31841866Y-20423538D01*
X31735331Y-20494724D01*
X31735327Y-20494727D01*
X31644727Y-20585327D01*
X31644724Y-20585331D01*
X31573538Y-20691866D01*
X31573534Y-20691874D01*
X31524500Y-20810252D01*
X31524499Y-20810257D01*
X31499500Y-20935930D01*
X500500Y-20935930D01*
X500500Y-19497824D01*
X6649999Y-19497824D01*
X6656401Y-19557370D01*
X6656403Y-19557381D01*
X6706646Y-19692088D01*
X6706647Y-19692090D01*
X6792807Y-19807184D01*
X6792815Y-19807192D01*
X6907909Y-19893352D01*
X6907911Y-19893353D01*
X7042618Y-19943596D01*
X7042629Y-19943598D01*
X7102176Y-19950000D01*
X7749999Y-19950000D01*
X7750000Y-19949999D01*
X7750000Y-19033012D01*
X7807007Y-19065925D01*
X7934174Y-19100000D01*
X8065826Y-19100000D01*
X8192993Y-19065925D01*
X8250000Y-19033012D01*
X8250000Y-19949999D01*
X8250001Y-19950000D01*
X8897824Y-19950000D01*
X8957370Y-19943598D01*
X8957381Y-19943596D01*
X9092088Y-19893353D01*
X9092090Y-19893352D01*
X9207184Y-19807192D01*
X9207192Y-19807184D01*
X9293352Y-19692090D01*
X9293353Y-19692088D01*
X9343596Y-19557381D01*
X9343598Y-19557370D01*
X9350000Y-19497824D01*
X9350000Y-19100917D01*
X9368907Y-19042726D01*
X9418407Y-19006762D01*
X9479593Y-19006762D01*
X9529093Y-19042726D01*
X9537210Y-19055972D01*
X9598766Y-19176786D01*
X9654451Y-19253430D01*
X9700586Y-19316928D01*
X9823072Y-19439414D01*
X9963212Y-19541232D01*
X10117555Y-19619873D01*
X10117557Y-19619873D01*
X10117558Y-19619874D01*
X10117561Y-19619876D01*
X10282293Y-19673401D01*
X10282297Y-19673402D01*
X10453386Y-19700500D01*
X10453389Y-19700500D01*
X10626614Y-19700500D01*
X10797702Y-19673402D01*
X10797706Y-19673401D01*
X10962438Y-19619876D01*
X10962440Y-19619874D01*
X10962445Y-19619873D01*
X11116788Y-19541232D01*
X11256928Y-19439414D01*
X11379414Y-19316928D01*
X11481232Y-19176788D01*
X11559873Y-19022445D01*
X11559874Y-19022440D01*
X11559876Y-19022438D01*
X11613401Y-18857706D01*
X11613402Y-18857702D01*
X11640500Y-18686614D01*
X11640500Y-18513385D01*
X11979500Y-18513385D01*
X11979500Y-18686614D01*
X12006597Y-18857702D01*
X12006598Y-18857706D01*
X12060123Y-19022438D01*
X12060125Y-19022441D01*
X12060126Y-19022444D01*
X12060127Y-19022445D01*
X12138768Y-19176788D01*
X12240586Y-19316928D01*
X12363072Y-19439414D01*
X12472415Y-19518856D01*
X12508378Y-19568355D01*
X12508378Y-19629541D01*
X12505098Y-19637256D01*
X12505396Y-19637380D01*
X12454500Y-19760252D01*
X12454499Y-19760257D01*
X12429500Y-19885930D01*
X12429500Y-20014069D01*
X12454499Y-20139742D01*
X12454500Y-20139747D01*
X12503534Y-20258125D01*
X12503538Y-20258133D01*
X12546365Y-20322226D01*
X12574724Y-20364669D01*
X12665331Y-20455276D01*
X12724369Y-20494724D01*
X12771866Y-20526461D01*
X12771870Y-20526463D01*
X12771873Y-20526465D01*
X12890256Y-20575501D01*
X13015931Y-20600500D01*
X13015932Y-20600500D01*
X13144068Y-20600500D01*
X13144069Y-20600500D01*
X13269744Y-20575501D01*
X13388127Y-20526465D01*
X13494669Y-20455276D01*
X13585276Y-20364669D01*
X13656465Y-20258127D01*
X13705501Y-20139744D01*
X13730500Y-20014069D01*
X13730500Y-19885931D01*
X13730500Y-19885930D01*
X45624500Y-19885930D01*
X45624500Y-20014069D01*
X45649499Y-20139742D01*
X45649500Y-20139747D01*
X45698534Y-20258125D01*
X45698538Y-20258133D01*
X45741365Y-20322226D01*
X45769724Y-20364669D01*
X45860331Y-20455276D01*
X45919369Y-20494724D01*
X45966866Y-20526461D01*
X45966870Y-20526463D01*
X45966873Y-20526465D01*
X46085256Y-20575501D01*
X46210931Y-20600500D01*
X46210932Y-20600500D01*
X46339068Y-20600500D01*
X46339069Y-20600500D01*
X46464744Y-20575501D01*
X46583127Y-20526465D01*
X46689669Y-20455276D01*
X46780276Y-20364669D01*
X46851465Y-20258127D01*
X46900501Y-20139744D01*
X46925500Y-20014069D01*
X46925500Y-19885931D01*
X46900501Y-19760256D01*
X46851465Y-19641873D01*
X46851463Y-19641870D01*
X46851461Y-19641866D01*
X46813735Y-19585406D01*
X46780276Y-19535331D01*
X46689669Y-19444724D01*
X46647226Y-19416365D01*
X46583133Y-19373538D01*
X46583125Y-19373534D01*
X46464747Y-19324500D01*
X46464745Y-19324499D01*
X46464744Y-19324499D01*
X46339069Y-19299500D01*
X46210931Y-19299500D01*
X46210930Y-19299500D01*
X46148093Y-19311999D01*
X46085256Y-19324499D01*
X46085255Y-19324499D01*
X46085252Y-19324500D01*
X45966874Y-19373534D01*
X45966866Y-19373538D01*
X45860331Y-19444724D01*
X45860327Y-19444727D01*
X45769727Y-19535327D01*
X45769724Y-19535331D01*
X45698538Y-19641866D01*
X45698534Y-19641874D01*
X45649500Y-19760252D01*
X45649499Y-19760257D01*
X45624500Y-19885930D01*
X13730500Y-19885930D01*
X13705501Y-19760256D01*
X13656465Y-19641873D01*
X13654604Y-19637380D01*
X13656834Y-19636456D01*
X13647707Y-19585406D01*
X13674396Y-19530348D01*
X13687579Y-19518860D01*
X13796928Y-19439414D01*
X13919414Y-19316928D01*
X14021232Y-19176788D01*
X14099873Y-19022445D01*
X14099874Y-19022440D01*
X14099876Y-19022438D01*
X14153401Y-18857706D01*
X14153402Y-18857702D01*
X14180500Y-18686614D01*
X14180500Y-18513385D01*
X14153402Y-18342297D01*
X14153401Y-18342293D01*
X14099876Y-18177561D01*
X14099874Y-18177558D01*
X14099873Y-18177557D01*
X14099873Y-18177555D01*
X14021232Y-18023212D01*
X13919414Y-17883072D01*
X13796928Y-17760586D01*
X13776756Y-17745930D01*
X26874500Y-17745930D01*
X26874500Y-17874069D01*
X26899499Y-17999742D01*
X26899500Y-17999747D01*
X26948534Y-18118125D01*
X26948538Y-18118133D01*
X26988243Y-18177555D01*
X27019724Y-18224669D01*
X27110331Y-18315276D01*
X27150765Y-18342293D01*
X27216866Y-18386461D01*
X27216870Y-18386463D01*
X27216873Y-18386465D01*
X27335256Y-18435501D01*
X27460931Y-18460500D01*
X27460932Y-18460500D01*
X27589068Y-18460500D01*
X27589069Y-18460500D01*
X27714744Y-18435501D01*
X27833127Y-18386465D01*
X27939669Y-18315276D01*
X28030276Y-18224669D01*
X28101465Y-18118127D01*
X28150501Y-17999744D01*
X28175500Y-17874069D01*
X28175500Y-17745931D01*
X28175500Y-17745930D01*
X34149500Y-17745930D01*
X34149500Y-17874069D01*
X34174499Y-17999742D01*
X34174500Y-17999747D01*
X34223534Y-18118125D01*
X34223538Y-18118133D01*
X34263243Y-18177555D01*
X34294724Y-18224669D01*
X34385331Y-18315276D01*
X34425765Y-18342293D01*
X34491866Y-18386461D01*
X34491870Y-18386463D01*
X34491873Y-18386465D01*
X34610256Y-18435501D01*
X34735931Y-18460500D01*
X34735932Y-18460500D01*
X34864068Y-18460500D01*
X34864069Y-18460500D01*
X34989744Y-18435501D01*
X35108127Y-18386465D01*
X35214669Y-18315276D01*
X35305276Y-18224669D01*
X35376465Y-18118127D01*
X35425501Y-17999744D01*
X35450500Y-17874069D01*
X35450500Y-17745931D01*
X35434587Y-17665931D01*
X64249500Y-17665931D01*
X64249500Y-17794069D01*
X64267204Y-17883073D01*
X64274499Y-17919742D01*
X64274500Y-17919747D01*
X64323534Y-18038125D01*
X64323538Y-18038133D01*
X64364264Y-18099082D01*
X64394724Y-18144669D01*
X64485331Y-18235276D01*
X64548848Y-18277717D01*
X64591866Y-18306461D01*
X64591870Y-18306463D01*
X64591873Y-18306465D01*
X64710256Y-18355501D01*
X64835931Y-18380500D01*
X64835932Y-18380500D01*
X64964068Y-18380500D01*
X64964069Y-18380500D01*
X65089744Y-18355501D01*
X65208127Y-18306465D01*
X65314669Y-18235276D01*
X65405276Y-18144669D01*
X65476465Y-18038127D01*
X65525501Y-17919744D01*
X65550500Y-17794069D01*
X65550500Y-17665931D01*
X65525501Y-17540256D01*
X65476465Y-17421873D01*
X65476463Y-17421870D01*
X65476461Y-17421866D01*
X65447717Y-17378848D01*
X65405276Y-17315331D01*
X65314669Y-17224724D01*
X65272226Y-17196365D01*
X65208133Y-17153538D01*
X65208125Y-17153534D01*
X65089747Y-17104500D01*
X65089745Y-17104499D01*
X65089744Y-17104499D01*
X64964069Y-17079500D01*
X64835931Y-17079500D01*
X64835930Y-17079500D01*
X64773093Y-17091999D01*
X64710256Y-17104499D01*
X64710255Y-17104499D01*
X64710252Y-17104500D01*
X64591874Y-17153534D01*
X64591866Y-17153538D01*
X64485331Y-17224724D01*
X64485327Y-17224727D01*
X64394727Y-17315327D01*
X64394724Y-17315331D01*
X64323538Y-17421866D01*
X64323534Y-17421874D01*
X64274500Y-17540252D01*
X64274499Y-17540257D01*
X64252378Y-17651465D01*
X64249500Y-17665931D01*
X35434587Y-17665931D01*
X35425501Y-17620256D01*
X35376465Y-17501873D01*
X35376463Y-17501870D01*
X35376461Y-17501866D01*
X35323011Y-17421874D01*
X35305276Y-17395331D01*
X35214669Y-17304724D01*
X35172226Y-17276365D01*
X35108133Y-17233538D01*
X35108125Y-17233534D01*
X34989747Y-17184500D01*
X34989745Y-17184499D01*
X34989744Y-17184499D01*
X34864069Y-17159500D01*
X34735931Y-17159500D01*
X34735930Y-17159500D01*
X34673093Y-17171999D01*
X34610256Y-17184499D01*
X34610255Y-17184499D01*
X34610252Y-17184500D01*
X34491874Y-17233534D01*
X34491866Y-17233538D01*
X34385331Y-17304724D01*
X34385327Y-17304727D01*
X34294727Y-17395327D01*
X34294724Y-17395331D01*
X34223538Y-17501866D01*
X34223534Y-17501874D01*
X34174500Y-17620252D01*
X34174499Y-17620257D01*
X34149500Y-17745930D01*
X28175500Y-17745930D01*
X28150501Y-17620256D01*
X28101465Y-17501873D01*
X28101463Y-17501870D01*
X28101461Y-17501866D01*
X28048011Y-17421874D01*
X28030276Y-17395331D01*
X27939669Y-17304724D01*
X27897226Y-17276365D01*
X27833133Y-17233538D01*
X27833125Y-17233534D01*
X27714747Y-17184500D01*
X27714745Y-17184499D01*
X27714744Y-17184499D01*
X27589069Y-17159500D01*
X27460931Y-17159500D01*
X27460930Y-17159500D01*
X27398093Y-17171999D01*
X27335256Y-17184499D01*
X27335255Y-17184499D01*
X27335252Y-17184500D01*
X27216874Y-17233534D01*
X27216866Y-17233538D01*
X27110331Y-17304724D01*
X27110327Y-17304727D01*
X27019727Y-17395327D01*
X27019724Y-17395331D01*
X26948538Y-17501866D01*
X26948534Y-17501874D01*
X26899500Y-17620252D01*
X26899499Y-17620257D01*
X26874500Y-17745930D01*
X13776756Y-17745930D01*
X13656788Y-17658768D01*
X13656787Y-17658767D01*
X13656785Y-17658766D01*
X13502441Y-17580125D01*
X13502438Y-17580123D01*
X13337706Y-17526598D01*
X13337702Y-17526597D01*
X13166614Y-17499500D01*
X13166611Y-17499500D01*
X12993389Y-17499500D01*
X12993386Y-17499500D01*
X12822297Y-17526597D01*
X12822293Y-17526598D01*
X12657561Y-17580123D01*
X12657558Y-17580125D01*
X12503214Y-17658766D01*
X12363073Y-17760585D01*
X12240585Y-17883073D01*
X12138766Y-18023214D01*
X12060125Y-18177558D01*
X12060123Y-18177561D01*
X12006598Y-18342293D01*
X12006597Y-18342297D01*
X11979500Y-18513385D01*
X11640500Y-18513385D01*
X11613402Y-18342297D01*
X11613401Y-18342293D01*
X11559876Y-18177561D01*
X11559874Y-18177558D01*
X11559873Y-18177557D01*
X11559873Y-18177555D01*
X11481232Y-18023212D01*
X11379414Y-17883072D01*
X11256928Y-17760586D01*
X11116788Y-17658768D01*
X11116787Y-17658767D01*
X11116785Y-17658766D01*
X10962441Y-17580125D01*
X10962438Y-17580123D01*
X10797706Y-17526598D01*
X10797702Y-17526597D01*
X10626614Y-17499500D01*
X10626611Y-17499500D01*
X10453389Y-17499500D01*
X10453386Y-17499500D01*
X10282297Y-17526597D01*
X10282293Y-17526598D01*
X10117561Y-17580123D01*
X10117558Y-17580125D01*
X9963214Y-17658766D01*
X9823073Y-17760585D01*
X9700585Y-17883073D01*
X9598766Y-18023214D01*
X9537210Y-18144027D01*
X9493945Y-18187292D01*
X9433513Y-18196863D01*
X9378997Y-18169086D01*
X9351219Y-18114569D01*
X9350000Y-18099082D01*
X9350000Y-17702175D01*
X9343598Y-17642629D01*
X9343596Y-17642618D01*
X9293353Y-17507911D01*
X9293352Y-17507909D01*
X9207192Y-17392815D01*
X9207184Y-17392807D01*
X9092090Y-17306647D01*
X9092088Y-17306646D01*
X8957381Y-17256403D01*
X8957370Y-17256401D01*
X8897824Y-17250000D01*
X8250001Y-17250000D01*
X8250000Y-17250001D01*
X8250000Y-18166988D01*
X8192993Y-18134075D01*
X8065826Y-18100000D01*
X7934174Y-18100000D01*
X7807007Y-18134075D01*
X7750000Y-18166988D01*
X7750000Y-17250001D01*
X7749999Y-17250000D01*
X7102176Y-17250000D01*
X7042629Y-17256401D01*
X7042618Y-17256403D01*
X6907911Y-17306646D01*
X6907909Y-17306647D01*
X6792815Y-17392807D01*
X6792807Y-17392815D01*
X6706647Y-17507909D01*
X6706646Y-17507911D01*
X6656403Y-17642618D01*
X6656401Y-17642629D01*
X6650000Y-17702175D01*
X6650000Y-18349999D01*
X6650001Y-18350000D01*
X7566988Y-18350000D01*
X7534075Y-18407007D01*
X7500000Y-18534174D01*
X7500000Y-18665826D01*
X7534075Y-18792993D01*
X7566988Y-18850000D01*
X6650001Y-18850000D01*
X6650000Y-18850001D01*
X6650000Y-19497824D01*
X6649999Y-19497824D01*
X500500Y-19497824D01*
X500500Y-17010931D01*
X13824500Y-17010931D01*
X13824500Y-17139069D01*
X13847839Y-17256401D01*
X13849499Y-17264742D01*
X13849500Y-17264747D01*
X13898534Y-17383125D01*
X13898538Y-17383133D01*
X13941365Y-17447226D01*
X13969724Y-17489669D01*
X14060331Y-17580276D01*
X14105566Y-17610501D01*
X14166866Y-17651461D01*
X14166870Y-17651463D01*
X14166873Y-17651465D01*
X14285256Y-17700501D01*
X14410931Y-17725500D01*
X14410932Y-17725500D01*
X14539068Y-17725500D01*
X14539069Y-17725500D01*
X14664744Y-17700501D01*
X14783127Y-17651465D01*
X14889669Y-17580276D01*
X14929996Y-17539949D01*
X14984512Y-17512171D01*
X15044944Y-17521742D01*
X15070004Y-17539949D01*
X15110322Y-17580268D01*
X15110326Y-17580271D01*
X15110331Y-17580276D01*
X15155566Y-17610501D01*
X15216866Y-17651461D01*
X15216870Y-17651463D01*
X15216873Y-17651465D01*
X15335256Y-17700501D01*
X15460931Y-17725500D01*
X15460932Y-17725500D01*
X15589068Y-17725500D01*
X15589069Y-17725500D01*
X15714744Y-17700501D01*
X15833127Y-17651465D01*
X15939669Y-17580276D01*
X16030276Y-17489669D01*
X16101465Y-17383127D01*
X16150501Y-17264744D01*
X16175500Y-17139069D01*
X16175500Y-17010931D01*
X16150501Y-16885256D01*
X16101465Y-16766873D01*
X16101463Y-16766870D01*
X16101461Y-16766866D01*
X16072717Y-16723848D01*
X16030276Y-16660331D01*
X15939669Y-16569724D01*
X15880224Y-16530004D01*
X15833133Y-16498538D01*
X15833125Y-16498534D01*
X15714747Y-16449500D01*
X15714745Y-16449499D01*
X15714744Y-16449499D01*
X15589069Y-16424500D01*
X15460931Y-16424500D01*
X15460930Y-16424500D01*
X15398093Y-16436999D01*
X15335256Y-16449499D01*
X15335255Y-16449499D01*
X15335252Y-16449500D01*
X15216874Y-16498534D01*
X15216866Y-16498538D01*
X15110331Y-16569724D01*
X15110327Y-16569727D01*
X15070004Y-16610051D01*
X15015487Y-16637828D01*
X14955055Y-16628257D01*
X14929996Y-16610051D01*
X14889672Y-16569727D01*
X14889669Y-16569724D01*
X14830224Y-16530004D01*
X14783133Y-16498538D01*
X14783125Y-16498534D01*
X14664747Y-16449500D01*
X14664745Y-16449499D01*
X14664744Y-16449499D01*
X14539069Y-16424500D01*
X14410931Y-16424500D01*
X14410930Y-16424500D01*
X14348093Y-16436999D01*
X14285256Y-16449499D01*
X14285255Y-16449499D01*
X14285252Y-16449500D01*
X14166874Y-16498534D01*
X14166866Y-16498538D01*
X14060331Y-16569724D01*
X14060327Y-16569727D01*
X13969727Y-16660327D01*
X13969724Y-16660331D01*
X13898538Y-16766866D01*
X13898534Y-16766874D01*
X13849500Y-16885252D01*
X13849499Y-16885255D01*
X13849499Y-16885256D01*
X13824500Y-17010931D01*
X500500Y-17010931D01*
X500500Y-15870930D01*
X69749500Y-15870930D01*
X69749500Y-15999069D01*
X69774499Y-16124742D01*
X69774500Y-16124747D01*
X69823534Y-16243125D01*
X69823538Y-16243133D01*
X69866365Y-16307226D01*
X69894724Y-16349669D01*
X69894727Y-16349672D01*
X69935051Y-16389996D01*
X69962828Y-16444513D01*
X69953257Y-16504945D01*
X69935051Y-16530004D01*
X69894727Y-16570327D01*
X69894724Y-16570331D01*
X69823538Y-16676866D01*
X69823534Y-16676874D01*
X69774500Y-16795252D01*
X69774499Y-16795257D01*
X69749500Y-16920930D01*
X69749500Y-17049069D01*
X69774499Y-17174742D01*
X69774500Y-17174747D01*
X69823534Y-17293125D01*
X69823538Y-17293133D01*
X69838371Y-17315331D01*
X69894724Y-17399669D01*
X69985331Y-17490276D01*
X70039691Y-17526598D01*
X70091866Y-17561461D01*
X70091870Y-17561463D01*
X70091873Y-17561465D01*
X70210256Y-17610501D01*
X70335931Y-17635500D01*
X70335932Y-17635500D01*
X70464068Y-17635500D01*
X70464069Y-17635500D01*
X70589744Y-17610501D01*
X70708127Y-17561465D01*
X70814669Y-17490276D01*
X70905276Y-17399669D01*
X70976465Y-17293127D01*
X71025501Y-17174744D01*
X71050500Y-17049069D01*
X71050500Y-16920931D01*
X71025501Y-16795256D01*
X70976465Y-16676873D01*
X70976463Y-16676870D01*
X70976461Y-16676866D01*
X70931816Y-16610051D01*
X70905276Y-16570331D01*
X70905271Y-16570326D01*
X70905268Y-16570322D01*
X70864949Y-16530004D01*
X70837171Y-16475488D01*
X70846742Y-16415056D01*
X70864949Y-16389996D01*
X70905268Y-16349677D01*
X70905276Y-16349669D01*
X70976465Y-16243127D01*
X71025501Y-16124744D01*
X71050500Y-15999069D01*
X71050500Y-15870931D01*
X71025501Y-15745256D01*
X70976465Y-15626873D01*
X70976463Y-15626870D01*
X70976461Y-15626866D01*
X70947717Y-15583848D01*
X70905276Y-15520331D01*
X70814669Y-15429724D01*
X70772226Y-15401365D01*
X70708133Y-15358538D01*
X70708125Y-15358534D01*
X70589747Y-15309500D01*
X70589745Y-15309499D01*
X70589744Y-15309499D01*
X70464069Y-15284500D01*
X70335931Y-15284500D01*
X70335930Y-15284500D01*
X70273093Y-15296999D01*
X70210256Y-15309499D01*
X70210255Y-15309499D01*
X70210252Y-15309500D01*
X70091874Y-15358534D01*
X70091866Y-15358538D01*
X69985331Y-15429724D01*
X69985327Y-15429727D01*
X69894727Y-15520327D01*
X69894724Y-15520331D01*
X69823538Y-15626866D01*
X69823534Y-15626874D01*
X69774500Y-15745252D01*
X69774499Y-15745257D01*
X69749500Y-15870930D01*
X500500Y-15870930D01*
X500500Y-15125930D01*
X67349500Y-15125930D01*
X67349500Y-15254069D01*
X67374499Y-15379742D01*
X67374500Y-15379747D01*
X67423534Y-15498125D01*
X67423538Y-15498133D01*
X67438371Y-15520331D01*
X67494724Y-15604669D01*
X67585331Y-15695276D01*
X67648848Y-15737717D01*
X67691866Y-15766461D01*
X67691870Y-15766463D01*
X67691873Y-15766465D01*
X67810256Y-15815501D01*
X67935931Y-15840500D01*
X67935932Y-15840500D01*
X68064068Y-15840500D01*
X68064069Y-15840500D01*
X68189744Y-15815501D01*
X68308127Y-15766465D01*
X68414669Y-15695276D01*
X68505276Y-15604669D01*
X68576465Y-15498127D01*
X68625501Y-15379744D01*
X68650500Y-15254069D01*
X68650500Y-15125931D01*
X68625501Y-15000256D01*
X68576465Y-14881873D01*
X68576463Y-14881870D01*
X68576461Y-14881866D01*
X68547717Y-14838848D01*
X68505276Y-14775331D01*
X68414669Y-14684724D01*
X68363448Y-14650499D01*
X68308133Y-14613538D01*
X68308125Y-14613534D01*
X68189747Y-14564500D01*
X68189745Y-14564499D01*
X68189744Y-14564499D01*
X68064069Y-14539500D01*
X67935931Y-14539500D01*
X67935930Y-14539500D01*
X67873093Y-14551999D01*
X67810256Y-14564499D01*
X67810255Y-14564499D01*
X67810252Y-14564500D01*
X67691874Y-14613534D01*
X67691866Y-14613538D01*
X67585331Y-14684724D01*
X67585327Y-14684727D01*
X67494727Y-14775327D01*
X67494724Y-14775331D01*
X67423538Y-14881866D01*
X67423534Y-14881874D01*
X67374500Y-15000252D01*
X67374499Y-15000257D01*
X67349500Y-15125930D01*
X500500Y-15125930D01*
X500500Y-13935930D01*
X2824500Y-13935930D01*
X2824500Y-14064069D01*
X2849499Y-14189742D01*
X2849500Y-14189747D01*
X2898534Y-14308125D01*
X2898538Y-14308133D01*
X2941365Y-14372226D01*
X2969724Y-14414669D01*
X3060331Y-14505276D01*
X3111551Y-14539500D01*
X3166866Y-14576461D01*
X3166870Y-14576463D01*
X3166873Y-14576465D01*
X3285256Y-14625501D01*
X3410931Y-14650500D01*
X3410932Y-14650500D01*
X3539068Y-14650500D01*
X3539069Y-14650500D01*
X3664744Y-14625501D01*
X3783127Y-14576465D01*
X3889669Y-14505276D01*
X3929996Y-14464949D01*
X3984512Y-14437171D01*
X4044944Y-14446742D01*
X4070004Y-14464949D01*
X4110322Y-14505268D01*
X4110326Y-14505271D01*
X4110331Y-14505276D01*
X4161551Y-14539500D01*
X4216866Y-14576461D01*
X4216870Y-14576463D01*
X4216873Y-14576465D01*
X4335256Y-14625501D01*
X4460931Y-14650500D01*
X4460932Y-14650500D01*
X4589068Y-14650500D01*
X4589069Y-14650500D01*
X4714744Y-14625501D01*
X4833127Y-14576465D01*
X4939669Y-14505276D01*
X5030276Y-14414669D01*
X5101465Y-14308127D01*
X5150501Y-14189744D01*
X5175500Y-14064069D01*
X5175500Y-13935931D01*
X5175500Y-13935930D01*
X28749500Y-13935930D01*
X28749500Y-14064069D01*
X28774499Y-14189742D01*
X28774500Y-14189747D01*
X28823534Y-14308125D01*
X28823538Y-14308133D01*
X28866365Y-14372226D01*
X28894724Y-14414669D01*
X28985331Y-14505276D01*
X29036551Y-14539500D01*
X29091866Y-14576461D01*
X29091870Y-14576463D01*
X29091873Y-14576465D01*
X29210256Y-14625501D01*
X29335931Y-14650500D01*
X29335932Y-14650500D01*
X29464068Y-14650500D01*
X29464069Y-14650500D01*
X29589744Y-14625501D01*
X29708127Y-14576465D01*
X29814669Y-14505276D01*
X29905276Y-14414669D01*
X29976465Y-14308127D01*
X30025501Y-14189744D01*
X30050500Y-14064069D01*
X30050500Y-13935931D01*
X30025501Y-13810256D01*
X29976465Y-13691873D01*
X29976463Y-13691870D01*
X29976461Y-13691866D01*
X29947717Y-13648848D01*
X29905276Y-13585331D01*
X29814669Y-13494724D01*
X29772226Y-13466365D01*
X29708133Y-13423538D01*
X29708125Y-13423534D01*
X29589747Y-13374500D01*
X29589745Y-13374499D01*
X29589744Y-13374499D01*
X29464069Y-13349500D01*
X29335931Y-13349500D01*
X29335930Y-13349500D01*
X29273093Y-13361999D01*
X29210256Y-13374499D01*
X29210255Y-13374499D01*
X29210252Y-13374500D01*
X29091874Y-13423534D01*
X29091866Y-13423538D01*
X28985331Y-13494724D01*
X28985327Y-13494727D01*
X28894727Y-13585327D01*
X28894724Y-13585331D01*
X28823538Y-13691866D01*
X28823534Y-13691874D01*
X28774500Y-13810252D01*
X28774499Y-13810257D01*
X28749500Y-13935930D01*
X5175500Y-13935930D01*
X5150501Y-13810256D01*
X5101465Y-13691873D01*
X5101463Y-13691870D01*
X5101461Y-13691866D01*
X5072717Y-13648848D01*
X5030276Y-13585331D01*
X4939669Y-13494724D01*
X4897226Y-13466365D01*
X4833133Y-13423538D01*
X4833125Y-13423534D01*
X4714747Y-13374500D01*
X4714745Y-13374499D01*
X4714744Y-13374499D01*
X4589069Y-13349500D01*
X4460931Y-13349500D01*
X4460930Y-13349500D01*
X4398093Y-13361999D01*
X4335256Y-13374499D01*
X4335255Y-13374499D01*
X4335252Y-13374500D01*
X4216874Y-13423534D01*
X4216866Y-13423538D01*
X4110331Y-13494724D01*
X4110327Y-13494727D01*
X4070004Y-13535051D01*
X4015487Y-13562828D01*
X3955055Y-13553257D01*
X3929996Y-13535051D01*
X3889672Y-13494727D01*
X3889669Y-13494724D01*
X3847226Y-13466365D01*
X3783133Y-13423538D01*
X3783125Y-13423534D01*
X3664747Y-13374500D01*
X3664745Y-13374499D01*
X3664744Y-13374499D01*
X3539069Y-13349500D01*
X3410931Y-13349500D01*
X3410930Y-13349500D01*
X3348093Y-13361999D01*
X3285256Y-13374499D01*
X3285255Y-13374499D01*
X3285252Y-13374500D01*
X3166874Y-13423534D01*
X3166866Y-13423538D01*
X3060331Y-13494724D01*
X3060327Y-13494727D01*
X2969727Y-13585327D01*
X2969724Y-13585331D01*
X2898538Y-13691866D01*
X2898534Y-13691874D01*
X2849500Y-13810252D01*
X2849499Y-13810257D01*
X2824500Y-13935930D01*
X500500Y-13935930D01*
X500500Y-10297824D01*
X6649999Y-10297824D01*
X6656401Y-10357370D01*
X6656403Y-10357381D01*
X6706646Y-10492088D01*
X6706647Y-10492090D01*
X6792807Y-10607184D01*
X6792815Y-10607192D01*
X6907909Y-10693352D01*
X6907911Y-10693353D01*
X7042618Y-10743596D01*
X7042629Y-10743598D01*
X7102176Y-10750000D01*
X7749999Y-10750000D01*
X7750000Y-10749999D01*
X7750000Y-9833012D01*
X7807007Y-9865925D01*
X7934174Y-9900000D01*
X8065826Y-9900000D01*
X8192993Y-9865925D01*
X8250000Y-9833012D01*
X8250000Y-10749999D01*
X8250001Y-10750000D01*
X8897824Y-10750000D01*
X8957370Y-10743598D01*
X8957381Y-10743596D01*
X9092088Y-10693353D01*
X9092090Y-10693352D01*
X9207184Y-10607192D01*
X9207192Y-10607184D01*
X9293352Y-10492090D01*
X9293353Y-10492088D01*
X9343596Y-10357381D01*
X9343598Y-10357370D01*
X9350000Y-10297824D01*
X9350000Y-9900917D01*
X9368907Y-9842726D01*
X9418407Y-9806762D01*
X9479593Y-9806762D01*
X9529093Y-9842726D01*
X9537210Y-9855972D01*
X9598766Y-9976786D01*
X9615819Y-10000257D01*
X9700586Y-10116928D01*
X9823072Y-10239414D01*
X9963212Y-10341232D01*
X10117555Y-10419873D01*
X10117557Y-10419873D01*
X10117558Y-10419874D01*
X10117561Y-10419876D01*
X10282293Y-10473401D01*
X10282297Y-10473402D01*
X10453386Y-10500500D01*
X10453389Y-10500500D01*
X10626614Y-10500500D01*
X10797702Y-10473402D01*
X10797706Y-10473401D01*
X10962438Y-10419876D01*
X10962440Y-10419874D01*
X10962445Y-10419873D01*
X11116788Y-10341232D01*
X11256928Y-10239414D01*
X11379414Y-10116928D01*
X11481232Y-9976788D01*
X11559873Y-9822445D01*
X11559874Y-9822440D01*
X11559876Y-9822438D01*
X11613401Y-9657706D01*
X11613402Y-9657702D01*
X11640500Y-9486614D01*
X11640500Y-9313385D01*
X11979500Y-9313385D01*
X11979500Y-9486614D01*
X12006597Y-9657702D01*
X12006598Y-9657706D01*
X12060123Y-9822438D01*
X12060125Y-9822441D01*
X12060126Y-9822444D01*
X12060127Y-9822445D01*
X12138768Y-9976788D01*
X12240586Y-10116928D01*
X12363072Y-10239414D01*
X12503212Y-10341232D01*
X12657555Y-10419873D01*
X12657557Y-10419873D01*
X12657558Y-10419874D01*
X12657561Y-10419876D01*
X12822293Y-10473401D01*
X12822297Y-10473402D01*
X12993386Y-10500500D01*
X12993389Y-10500500D01*
X13166614Y-10500500D01*
X13337702Y-10473402D01*
X13337706Y-10473401D01*
X13502438Y-10419876D01*
X13502440Y-10419874D01*
X13502445Y-10419873D01*
X13656788Y-10341232D01*
X13796928Y-10239414D01*
X13910411Y-10125931D01*
X26874500Y-10125931D01*
X26874500Y-10254069D01*
X26895048Y-10357370D01*
X26899499Y-10379742D01*
X26899500Y-10379747D01*
X26948534Y-10498125D01*
X26948538Y-10498133D01*
X26991365Y-10562226D01*
X27019724Y-10604669D01*
X27110331Y-10695276D01*
X27173848Y-10737717D01*
X27216866Y-10766461D01*
X27216870Y-10766463D01*
X27216873Y-10766465D01*
X27335256Y-10815501D01*
X27460931Y-10840500D01*
X27460932Y-10840500D01*
X27589068Y-10840500D01*
X27589069Y-10840500D01*
X27714744Y-10815501D01*
X27833127Y-10766465D01*
X27939669Y-10695276D01*
X28030276Y-10604669D01*
X28101465Y-10498127D01*
X28150501Y-10379744D01*
X28175500Y-10254069D01*
X28175500Y-10125931D01*
X34149500Y-10125931D01*
X34149500Y-10254069D01*
X34170048Y-10357370D01*
X34174499Y-10379742D01*
X34174500Y-10379747D01*
X34223534Y-10498125D01*
X34223538Y-10498133D01*
X34266365Y-10562226D01*
X34294724Y-10604669D01*
X34385331Y-10695276D01*
X34448848Y-10737717D01*
X34491866Y-10766461D01*
X34491870Y-10766463D01*
X34491873Y-10766465D01*
X34610256Y-10815501D01*
X34735931Y-10840500D01*
X34735932Y-10840500D01*
X34864068Y-10840500D01*
X34864069Y-10840500D01*
X34989744Y-10815501D01*
X35108127Y-10766465D01*
X35214669Y-10695276D01*
X35305276Y-10604669D01*
X35376465Y-10498127D01*
X35425501Y-10379744D01*
X35450500Y-10254069D01*
X35450500Y-10125931D01*
X35425501Y-10000256D01*
X35376465Y-9881873D01*
X35376463Y-9881870D01*
X35376461Y-9881866D01*
X35347717Y-9838848D01*
X35305276Y-9775331D01*
X35214669Y-9684724D01*
X35172226Y-9656365D01*
X35108133Y-9613538D01*
X35108125Y-9613534D01*
X34989747Y-9564500D01*
X34989745Y-9564499D01*
X34989744Y-9564499D01*
X34864069Y-9539500D01*
X34735931Y-9539500D01*
X34735930Y-9539500D01*
X34673093Y-9551999D01*
X34610256Y-9564499D01*
X34610255Y-9564499D01*
X34610252Y-9564500D01*
X34491874Y-9613534D01*
X34491866Y-9613538D01*
X34385331Y-9684724D01*
X34385327Y-9684727D01*
X34294727Y-9775327D01*
X34294724Y-9775331D01*
X34223538Y-9881866D01*
X34223534Y-9881874D01*
X34174500Y-10000252D01*
X34174499Y-10000255D01*
X34174499Y-10000256D01*
X34149500Y-10125931D01*
X28175500Y-10125931D01*
X28150501Y-10000256D01*
X28101465Y-9881873D01*
X28101463Y-9881870D01*
X28101461Y-9881866D01*
X28072717Y-9838848D01*
X28030276Y-9775331D01*
X27939669Y-9684724D01*
X27897226Y-9656365D01*
X27833133Y-9613538D01*
X27833125Y-9613534D01*
X27714747Y-9564500D01*
X27714745Y-9564499D01*
X27714744Y-9564499D01*
X27589069Y-9539500D01*
X27460931Y-9539500D01*
X27460930Y-9539500D01*
X27398093Y-9551999D01*
X27335256Y-9564499D01*
X27335255Y-9564499D01*
X27335252Y-9564500D01*
X27216874Y-9613534D01*
X27216866Y-9613538D01*
X27110331Y-9684724D01*
X27110327Y-9684727D01*
X27019727Y-9775327D01*
X27019724Y-9775331D01*
X26948538Y-9881866D01*
X26948534Y-9881874D01*
X26899500Y-10000252D01*
X26899499Y-10000255D01*
X26899499Y-10000256D01*
X26874500Y-10125931D01*
X13910411Y-10125931D01*
X13919414Y-10116928D01*
X14021232Y-9976788D01*
X14099873Y-9822445D01*
X14099874Y-9822440D01*
X14099876Y-9822438D01*
X14153401Y-9657706D01*
X14153402Y-9657702D01*
X14180500Y-9486614D01*
X14180500Y-9313385D01*
X14153402Y-9142297D01*
X14153401Y-9142293D01*
X14099876Y-8977561D01*
X14099874Y-8977558D01*
X14099873Y-8977557D01*
X14099873Y-8977555D01*
X14021232Y-8823212D01*
X13919414Y-8683072D01*
X13796928Y-8560586D01*
X13687584Y-8481142D01*
X13651621Y-8431644D01*
X13651621Y-8370458D01*
X13654909Y-8362746D01*
X13654604Y-8362620D01*
X13680749Y-8299500D01*
X13705501Y-8239744D01*
X13730500Y-8114069D01*
X13730500Y-7985931D01*
X45624500Y-7985931D01*
X45624500Y-8114069D01*
X45640162Y-8192807D01*
X45649499Y-8239742D01*
X45649500Y-8239747D01*
X45698534Y-8358125D01*
X45698538Y-8358133D01*
X45736308Y-8414658D01*
X45769724Y-8464669D01*
X45860331Y-8555276D01*
X45923848Y-8597717D01*
X45966866Y-8626461D01*
X45966870Y-8626463D01*
X45966873Y-8626465D01*
X46085256Y-8675501D01*
X46210931Y-8700500D01*
X46210932Y-8700500D01*
X46339068Y-8700500D01*
X46339069Y-8700500D01*
X46464744Y-8675501D01*
X46583127Y-8626465D01*
X46689669Y-8555276D01*
X46780276Y-8464669D01*
X46851465Y-8358127D01*
X46900501Y-8239744D01*
X46925500Y-8114069D01*
X46925500Y-7985931D01*
X46900501Y-7860256D01*
X46851465Y-7741873D01*
X46851463Y-7741870D01*
X46851461Y-7741866D01*
X46822717Y-7698848D01*
X46780276Y-7635331D01*
X46689669Y-7544724D01*
X46630631Y-7505276D01*
X46583133Y-7473538D01*
X46583125Y-7473534D01*
X46464747Y-7424500D01*
X46464745Y-7424499D01*
X46464744Y-7424499D01*
X46339069Y-7399500D01*
X46210931Y-7399500D01*
X46210930Y-7399500D01*
X46148093Y-7411999D01*
X46085256Y-7424499D01*
X46085255Y-7424499D01*
X46085252Y-7424500D01*
X45966874Y-7473534D01*
X45966866Y-7473538D01*
X45860331Y-7544724D01*
X45860327Y-7544727D01*
X45769727Y-7635327D01*
X45769724Y-7635331D01*
X45698538Y-7741866D01*
X45698534Y-7741874D01*
X45649500Y-7860252D01*
X45649499Y-7860255D01*
X45649499Y-7860256D01*
X45624500Y-7985931D01*
X13730500Y-7985931D01*
X13705501Y-7860256D01*
X13656465Y-7741873D01*
X13656463Y-7741870D01*
X13656461Y-7741866D01*
X13627717Y-7698848D01*
X13585276Y-7635331D01*
X13494669Y-7544724D01*
X13435631Y-7505276D01*
X13388133Y-7473538D01*
X13388125Y-7473534D01*
X13269747Y-7424500D01*
X13269745Y-7424499D01*
X13269744Y-7424499D01*
X13144069Y-7399500D01*
X13015931Y-7399500D01*
X13015930Y-7399500D01*
X12953093Y-7411999D01*
X12890256Y-7424499D01*
X12890255Y-7424499D01*
X12890252Y-7424500D01*
X12771874Y-7473534D01*
X12771866Y-7473538D01*
X12665331Y-7544724D01*
X12665327Y-7544727D01*
X12574727Y-7635327D01*
X12574724Y-7635331D01*
X12503538Y-7741866D01*
X12503534Y-7741874D01*
X12454500Y-7860252D01*
X12454499Y-7860255D01*
X12454499Y-7860256D01*
X12429500Y-7985931D01*
X12429500Y-8114069D01*
X12445162Y-8192807D01*
X12454499Y-8239742D01*
X12454500Y-8239747D01*
X12505396Y-8362620D01*
X12503177Y-8363538D01*
X12512283Y-8414658D01*
X12485557Y-8469698D01*
X12472414Y-8481143D01*
X12363077Y-8560581D01*
X12240585Y-8683073D01*
X12138766Y-8823214D01*
X12060125Y-8977558D01*
X12060123Y-8977561D01*
X12006598Y-9142293D01*
X12006597Y-9142297D01*
X11979500Y-9313385D01*
X11640500Y-9313385D01*
X11613402Y-9142297D01*
X11613401Y-9142293D01*
X11559876Y-8977561D01*
X11559874Y-8977558D01*
X11559873Y-8977557D01*
X11559873Y-8977555D01*
X11481232Y-8823212D01*
X11379414Y-8683072D01*
X11256928Y-8560586D01*
X11116788Y-8458768D01*
X11116787Y-8458767D01*
X11116785Y-8458766D01*
X10962441Y-8380125D01*
X10962438Y-8380123D01*
X10797706Y-8326598D01*
X10797702Y-8326597D01*
X10626614Y-8299500D01*
X10626611Y-8299500D01*
X10453389Y-8299500D01*
X10453386Y-8299500D01*
X10282297Y-8326597D01*
X10282293Y-8326598D01*
X10117561Y-8380123D01*
X10117558Y-8380125D01*
X9963214Y-8458766D01*
X9823073Y-8560585D01*
X9700585Y-8683073D01*
X9598766Y-8823214D01*
X9537210Y-8944027D01*
X9493945Y-8987292D01*
X9433513Y-8996863D01*
X9378997Y-8969086D01*
X9351219Y-8914569D01*
X9350000Y-8899082D01*
X9350000Y-8502175D01*
X9343598Y-8442629D01*
X9343596Y-8442618D01*
X9293353Y-8307911D01*
X9293352Y-8307909D01*
X9207192Y-8192815D01*
X9207184Y-8192807D01*
X9092090Y-8106647D01*
X9092088Y-8106646D01*
X8957381Y-8056403D01*
X8957370Y-8056401D01*
X8897824Y-8050000D01*
X8250001Y-8050000D01*
X8250000Y-8050001D01*
X8250000Y-8966988D01*
X8192993Y-8934075D01*
X8065826Y-8900000D01*
X7934174Y-8900000D01*
X7807007Y-8934075D01*
X7750000Y-8966988D01*
X7750000Y-8050001D01*
X7749999Y-8050000D01*
X7102176Y-8050000D01*
X7042629Y-8056401D01*
X7042618Y-8056403D01*
X6907911Y-8106646D01*
X6907909Y-8106647D01*
X6792815Y-8192807D01*
X6792807Y-8192815D01*
X6706647Y-8307909D01*
X6706646Y-8307911D01*
X6656403Y-8442618D01*
X6656401Y-8442629D01*
X6650000Y-8502175D01*
X6650000Y-9149999D01*
X6650001Y-9150000D01*
X7566988Y-9150000D01*
X7534075Y-9207007D01*
X7500000Y-9334174D01*
X7500000Y-9465826D01*
X7534075Y-9592993D01*
X7566988Y-9650000D01*
X6650001Y-9650000D01*
X6650000Y-9650001D01*
X6650000Y-10297824D01*
X6649999Y-10297824D01*
X500500Y-10297824D01*
X500500Y-6935930D01*
X31499500Y-6935930D01*
X31499500Y-7064069D01*
X31524499Y-7189742D01*
X31524500Y-7189747D01*
X31573534Y-7308125D01*
X31573538Y-7308133D01*
X31616365Y-7372226D01*
X31644724Y-7414669D01*
X31735331Y-7505276D01*
X31794369Y-7544724D01*
X31841866Y-7576461D01*
X31841870Y-7576463D01*
X31841873Y-7576465D01*
X31960256Y-7625501D01*
X32085931Y-7650500D01*
X32085932Y-7650500D01*
X32214068Y-7650500D01*
X32214069Y-7650500D01*
X32339744Y-7625501D01*
X32458127Y-7576465D01*
X32564669Y-7505276D01*
X32655276Y-7414669D01*
X32726465Y-7308127D01*
X32775501Y-7189744D01*
X32800500Y-7064069D01*
X32800500Y-6935931D01*
X32800500Y-6935930D01*
X35624500Y-6935930D01*
X35624500Y-7064069D01*
X35649499Y-7189742D01*
X35649500Y-7189747D01*
X35698534Y-7308125D01*
X35698538Y-7308133D01*
X35741365Y-7372226D01*
X35769724Y-7414669D01*
X35860331Y-7505276D01*
X35919369Y-7544724D01*
X35966866Y-7576461D01*
X35966870Y-7576463D01*
X35966873Y-7576465D01*
X36085256Y-7625501D01*
X36210931Y-7650500D01*
X36210932Y-7650500D01*
X36339068Y-7650500D01*
X36339069Y-7650500D01*
X36464744Y-7625501D01*
X36583127Y-7576465D01*
X36689669Y-7505276D01*
X36780276Y-7414669D01*
X36851465Y-7308127D01*
X36900501Y-7189744D01*
X36925500Y-7064069D01*
X36925500Y-6935931D01*
X36900501Y-6810256D01*
X36851465Y-6691873D01*
X36851463Y-6691870D01*
X36851461Y-6691866D01*
X36822717Y-6648848D01*
X36780276Y-6585331D01*
X36689669Y-6494724D01*
X36647226Y-6466365D01*
X36583133Y-6423538D01*
X36583125Y-6423534D01*
X36464747Y-6374500D01*
X36464745Y-6374499D01*
X36464744Y-6374499D01*
X36339069Y-6349500D01*
X36210931Y-6349500D01*
X36210930Y-6349500D01*
X36148093Y-6361999D01*
X36085256Y-6374499D01*
X36085255Y-6374499D01*
X36085252Y-6374500D01*
X35966874Y-6423534D01*
X35966866Y-6423538D01*
X35860331Y-6494724D01*
X35860327Y-6494727D01*
X35769727Y-6585327D01*
X35769724Y-6585331D01*
X35698538Y-6691866D01*
X35698534Y-6691874D01*
X35649500Y-6810252D01*
X35649499Y-6810257D01*
X35624500Y-6935930D01*
X32800500Y-6935930D01*
X32775501Y-6810256D01*
X32726465Y-6691873D01*
X32726463Y-6691870D01*
X32726461Y-6691866D01*
X32697717Y-6648848D01*
X32655276Y-6585331D01*
X32564669Y-6494724D01*
X32522226Y-6466365D01*
X32458133Y-6423538D01*
X32458125Y-6423534D01*
X32339747Y-6374500D01*
X32339745Y-6374499D01*
X32339744Y-6374499D01*
X32214069Y-6349500D01*
X32085931Y-6349500D01*
X32085930Y-6349500D01*
X32023093Y-6361999D01*
X31960256Y-6374499D01*
X31960255Y-6374499D01*
X31960252Y-6374500D01*
X31841874Y-6423534D01*
X31841866Y-6423538D01*
X31735331Y-6494724D01*
X31735327Y-6494727D01*
X31644727Y-6585327D01*
X31644724Y-6585331D01*
X31573538Y-6691866D01*
X31573534Y-6691874D01*
X31524500Y-6810252D01*
X31524499Y-6810257D01*
X31499500Y-6935930D01*
X500500Y-6935930D01*
X500500Y-599500D01*
X519407Y-541309D01*
X568907Y-505345D01*
X599500Y-500500D01*
X76600500Y-500500D01*
X76658691Y-519407D01*
G37*
%TD.AperFunction*%
%TD*%
M02*
